<?xml version="1.0" standalone="no"?>
<!DOCTYPE svg PUBLIC "-//W3C//DTD SVG 1.1//EN" "http://www.w3.org/Graphics/SVG/1.1/DTD/svg11.dtd" >
<svg xmlns="http://www.w3.org/2000/svg" xmlns:xlink="http://www.w3.org/1999/xlink" version="1.1">
<metadata></metadata>
<defs>
<font id="proxima_nova_scosflight" horiz-adv-x="1325" >
<font-face units-per-em="2048" ascent="1618" descent="-430" />
<missing-glyph horiz-adv-x="530" />
<glyph unicode="&#xfb01;" horiz-adv-x="1431" d="M166 0v1126h754v-100h-641v-397h630v-101h-630v-528h-113zM1155 0v1126h113v-1126h-113z" />
<glyph unicode="&#xfb02;" horiz-adv-x="1918" d="M166 0v1126h754v-100h-641v-397h630v-101h-630v-528h-113zM1155 0v1126h113v-1026h567v-100h-680z" />
<glyph horiz-adv-x="0" />
<glyph unicode="&#xd;" horiz-adv-x="0" />
<glyph horiz-adv-x="0" />
<glyph horiz-adv-x="0" />
<glyph unicode=" "  horiz-adv-x="530" />
<glyph unicode="&#x09;" horiz-adv-x="530" />
<glyph unicode="&#xa0;" horiz-adv-x="530" />
<glyph unicode="!" horiz-adv-x="360" d="M90 72q0 35 26.5 61.5t63.5 26.5t62.5 -26.5t25.5 -61.5q0 -37 -25.5 -63.5t-62.5 -26.5t-63.5 26.5t-26.5 63.5zM113 1126h133l-27 -821h-80z" />
<glyph unicode="&#x22;" horiz-adv-x="649" d="M119 1313q0 31 20.5 52t53.5 21q31 0 52 -21.5t21 -51.5q0 -6 -2 -27.5t-5 -53.5t-7 -71l-8 -78q-8 -94 -21 -209h-61q-14 115 -23 209q-4 39 -7 78t-6 71t-5 53.5t-2 27.5zM383 1313q0 31 21.5 52t52.5 21q33 0 53 -21.5t20 -51.5q0 -6 -2 -27.5t-5 -53.5t-7 -71l-8 -78 q-8 -94 -21 -209h-61q-14 115 -23 209q-4 39 -7 78t-6 71t-5 53.5t-2 27.5z" />
<glyph unicode="#" horiz-adv-x="999" d="M49 332l25 80h182l106 311h-186l23 76h188l111 327h92l-113 -327h197l112 327h93l-113 -327h184l-22 -76h-187l-106 -311h192l-24 -80h-195l-110 -332h-92l112 332h-199l-108 -332h-94l112 332h-180zM346 412h197l104 311h-194z" />
<glyph unicode="$" horiz-adv-x="1021" d="M80 156l70 80q49 -57 132 -103.5t189 -56.5v467q-68 16 -131.5 36.5t-113.5 54.5t-80.5 84t-30.5 126q0 66 27.5 120t75.5 94t112.5 63.5t140.5 27.5v137h88v-137q113 -10 200 -52t148 -108l-65 -78q-53 63 -127 96t-156 42v-414q70 -18 137.5 -42t120.5 -60.5t87 -92 t34 -139.5q0 -63 -22.5 -119.5t-68.5 -99.5t-118 -70.5t-170 -34.5v-129h-88v129q-131 8 -230.5 56.5t-160.5 122.5zM231 846q0 -41 19.5 -71t51.5 -51.5t76 -36.5t93 -30v394q-104 -8 -172 -64.5t-68 -140.5zM559 76q70 6 120 26.5t81 51t45 67.5t14 78q0 51 -21.5 86 t-56 60.5t-83 43t-99.5 31.5v-444z" />
<glyph unicode="%" horiz-adv-x="1191" d="M53 870q0 59 19.5 110.5t55.5 89.5t84 59.5t105 21.5q59 0 108.5 -21.5t84.5 -59.5t54.5 -89.5t19.5 -110.5t-19.5 -109t-54.5 -87t-84 -58.5t-109 -21.5q-57 0 -105 21.5t-84 58.5t-55.5 87t-19.5 109zM137 870q0 -86 50.5 -146t129.5 -60q84 0 133.5 60t49.5 146 t-49.5 148.5t-133.5 62.5q-80 0 -130 -62.5t-50 -148.5zM158 0l784 1126h94l-786 -1126h-92zM610 254q0 59 19.5 110.5t54.5 89.5t83 59.5t107 21.5q57 0 106.5 -21.5t84.5 -59.5t54.5 -89.5t19.5 -110.5t-19.5 -110.5t-54.5 -88.5t-84 -58.5t-107 -21.5q-59 0 -107 21.5 t-83 58.5t-54.5 88.5t-19.5 110.5zM694 254q0 -86 49.5 -146.5t130.5 -60.5q82 0 131.5 60.5t49.5 146.5q0 88 -49.5 148.5t-131.5 60.5t-131 -60.5t-49 -148.5z" />
<glyph unicode="&#x26;" horiz-adv-x="1130" d="M61 293q0 68 21.5 119t58.5 91t84 70.5t99 57.5q-47 68 -71 130t-24 126q0 57 22.5 105t60.5 84t90.5 55.5t111.5 19.5q51 0 97 -13.5t81 -41t55.5 -69.5t20.5 -97q0 -63 -26.5 -111.5t-69.5 -85.5t-97.5 -66.5t-111.5 -58.5q35 -43 72.5 -85t78.5 -83q41 -47 80 -86 t76 -78q45 63 77 134t54 141l92 -37q-33 -86 -70.5 -160.5t-84.5 -140.5q53 -51 110.5 -102.5t126.5 -110.5h-147q-37 31 -75 65.5t-77 71.5q-72 -76 -158 -119t-194 -43q-78 0 -144.5 21.5t-114.5 63.5t-76 100.5t-28 132.5zM170 297q0 -102 71.5 -169t188.5 -67 q82 0 151.5 38t127.5 100q-51 49 -95.5 95t-76.5 81q-47 51 -88 97t-76 89q-84 -47 -143.5 -107.5t-59.5 -156.5zM330 885q0 -47 22.5 -100.5t61.5 -108.5q51 25 97 49.5t82 54t57.5 65.5t21.5 83q0 70 -43 105.5t-113 35.5q-82 0 -134 -53t-52 -131z" />
<glyph unicode="'" horiz-adv-x="382" d="M119 1313q0 31 20.5 52t53.5 21q31 0 52 -21.5t21 -51.5q0 -6 -2 -27.5t-5 -53.5t-7 -71l-8 -78q-8 -94 -21 -209h-61q-14 115 -23 209q-4 39 -7 78t-6 71t-5 53.5t-2 27.5z" />
<glyph unicode="(" horiz-adv-x="464" d="M92 498q0 248 70.5 476t204.5 429l63 -45q-49 -98 -89 -195.5t-68.5 -200t-44 -217t-15.5 -247.5t15.5 -247t44 -217.5t68.5 -198.5t89 -193l-63 -50q-133 201 -204 429.5t-71 476.5z" />
<glyph unicode=")" horiz-adv-x="464" d="M35 -358q49 98 89 193t68.5 198.5t44 217.5t15.5 247t-15.5 247.5t-44 217t-68.5 200t-89 195.5l63 45q133 -201 204 -429.5t71 -475.5q0 -248 -71 -476.5t-204 -429.5z" />
<glyph unicode="*" horiz-adv-x="686" d="M76 993l213 109l-213 108l39 68l200 -131l-10 239h76l-12 -239l202 131l39 -68l-215 -108l215 -109l-39 -67l-202 131l12 -240h-76l10 240l-200 -131z" />
<glyph unicode="+" horiz-adv-x="1015" d="M59 647v86h404v432h92v-432h401v-86h-401v-444h-92v444h-404z" />
<glyph unicode="," horiz-adv-x="448" d="M119 -201q49 35 81.5 88.5t37.5 100.5q-4 -2 -9 -2h-12q-37 0 -60.5 24.5t-23.5 61.5q0 35 25.5 61.5t62.5 26.5q41 0 73 -34t32 -97q0 -86 -44 -162t-104 -117z" />
<glyph unicode="-" horiz-adv-x="614" d="M61 446v99h492v-99h-492z" />
<glyph unicode="." horiz-adv-x="448" d="M133 72q0 35 27.5 61.5t64.5 26.5t63.5 -27t26.5 -61q0 -37 -26.5 -63.5t-63.5 -26.5t-64.5 26.5t-27.5 63.5z" />
<glyph unicode="/" horiz-adv-x="577" d="M0 -41l485 1448h93l-486 -1448h-92z" />
<glyph unicode="0" horiz-adv-x="1245" d="M119 563q0 109 28.5 214.5t90 188.5t158 134t229.5 51q131 0 226 -51t156.5 -134t91 -188.5t29.5 -214.5t-29.5 -213t-91 -188t-156.5 -135.5t-226 -51.5q-133 0 -229.5 51.5t-158 135.5t-90 188.5t-28.5 212.5zM242 563q0 -90 20.5 -176t66.5 -153.5t118.5 -109.5 t177.5 -42q102 0 173.5 42t118 109.5t67 153.5t20.5 176q0 88 -20.5 175t-66 155t-118 109.5t-174.5 41.5q-104 0 -177 -41.5t-119 -109.5t-66.5 -155t-20.5 -175z" />
<glyph unicode="1" horiz-adv-x="630" d="M53 809l301 317h107v-1126h-117v967l-219 -234z" />
<glyph unicode="2" horiz-adv-x="1179" d="M106 940q72 98 199 154.5t273 56.5q86 0 163.5 -25.5t135 -73.5t91 -116t33.5 -152q0 -98 -49 -193t-136 -183.5t-205.5 -164t-256.5 -137.5h627v-106h-850v98q379 166 566.5 337t187.5 337q0 61 -24.5 111.5t-66.5 86.5t-98.5 55t-120.5 19q-127 0 -229 -49t-160 -129z " />
<glyph unicode="3" horiz-adv-x="1110" d="M61 -37l80 70q57 -82 154.5 -136.5t228.5 -54.5q160 0 252 78t92 213q0 74 -28.5 126t-77.5 86t-116.5 50.5t-143.5 16.5q-41 0 -76 -1t-51 -3v110q16 -2 51 -2h76q68 0 131 15.5t110.5 47t76 81t28.5 116.5q0 63 -26.5 112.5t-71.5 83.5t-104.5 51t-125.5 17 q-117 0 -204 -44t-162 -130l-74 74q72 88 184.5 147.5t261.5 59.5q88 0 169 -23.5t140.5 -69.5t95.5 -114t36 -154q0 -78 -30 -135t-74 -95t-95 -59.5t-94 -29.5q45 -4 99 -26.5t101.5 -63.5t80 -103.5t32.5 -146.5t-30.5 -155.5t-90 -124t-145.5 -82t-195 -29.5 q-84 0 -155.5 18.5t-130 49t-103.5 71.5t-76 88z" />
<glyph unicode="4" horiz-adv-x="1107" d="M72 135v107l606 884h158v-884h200v-107h-200v-375h-117v375h-647zM193 242h526v768z" />
<glyph unicode="5" horiz-adv-x="1191" d="M152 -41l77 78q66 -94 158 -144.5t225 -50.5q74 0 137.5 26t108.5 70t70.5 104t25.5 130q0 78 -25.5 139.5t-70.5 104.5t-107.5 66.5t-136.5 23.5q-94 0 -175 -32t-156 -101l-88 37v716h788v-106h-672v-535q51 49 135 88t191 39q86 0 165 -27.5t139 -83t96 -137 t36 -188.5q0 -102 -37 -184t-99.5 -138.5t-146.5 -87t-178 -30.5q-172 0 -280.5 60.5t-179.5 162.5z" />
<glyph unicode="6" horiz-adv-x="1196" d="M119 682q0 131 28.5 258t92 226.5t162 159.5t239.5 60q133 0 220 -49t149 -125l-68 -84q-51 66 -119.5 109t-181.5 43q-111 0 -187.5 -53t-124.5 -138t-69.5 -193t-21.5 -216v-31.5t2 -32.5q20 35 60 75t92 74t114.5 56.5t132.5 22.5q92 0 172 -26.5t140.5 -81t94 -135.5 t33.5 -189q0 -84 -30.5 -163t-89 -139.5t-143 -97.5t-195.5 -37q-139 0 -234.5 58.5t-155 157t-86 226.5t-26.5 265zM246 506q6 -70 28.5 -144.5t66.5 -137t111.5 -102.5t163.5 -40q88 0 153 30.5t108 78t63.5 105.5t20.5 114q0 84 -26 145t-72 102t-108.5 61.5t-136.5 20.5 q-113 0 -213 -64.5t-159 -168.5z" />
<glyph unicode="7" horiz-adv-x="1028" d="M68 1020v106h895v-82l-584 -1284h-129l573 1260h-755z" />
<glyph unicode="8" horiz-adv-x="1169" d="M121 342q0 72 28.5 130t75.5 104.5t108.5 78t127.5 50.5q-61 16 -117.5 43.5t-101.5 68.5t-72 95.5t-27 121.5q0 90 39 156.5t101.5 109.5t142.5 64.5t160 21.5t158.5 -21.5t142 -64.5t102.5 -109.5t39 -156.5q0 -68 -26.5 -122t-71.5 -95t-101.5 -68.5t-117.5 -43.5 q66 -18 127 -50t108 -78.5t76 -104.5t29 -130q0 -84 -36 -151.5t-98.5 -114.5t-147.5 -74t-183 -27t-183.5 26t-147.5 74t-98 115.5t-36 151.5zM240 350q0 -61 28.5 -111.5t75.5 -85t110.5 -53t131.5 -18.5t130 18.5t110 53t77 85t29 111.5q0 78 -43 133.5t-99.5 91t-115 54 t-88.5 22.5q-31 -4 -89.5 -22.5t-115.5 -54t-99 -91t-42 -133.5zM262 1022q0 -72 39 -120t92 -78.5t107.5 -47t85.5 -22.5q31 6 86 22.5t107 47t91 78.5t39 120q0 61 -25.5 109.5t-69.5 81t-102.5 50t-125.5 17.5q-68 0 -126.5 -17.5t-102.5 -50t-69.5 -81t-25.5 -109.5z " />
<glyph unicode="9" horiz-adv-x="1196" d="M117 713q0 84 30.5 162.5t89 139t144.5 97.5t194 37q137 0 233.5 -58.5t156 -156.5t86 -226t26.5 -266q0 -131 -28.5 -258t-91 -226t-162 -159.5t-240.5 -60.5q-133 0 -220 48t-149 126l70 84q51 -66 118.5 -109t180.5 -43t189.5 53.5t125 139.5t68.5 192.5t20 214.5v64 q-23 -35 -61.5 -75t-90.5 -73.5t-115.5 -56t-133.5 -22.5q-92 0 -172 26.5t-140.5 79.5t-94 135t-33.5 191zM236 715q0 -84 25.5 -145.5t71.5 -102.5t108.5 -61.5t136.5 -20.5q113 0 213 64.5t159 168.5q-6 70 -28.5 145t-66.5 137.5t-111.5 102t-163.5 39.5 q-88 0 -153 -30.5t-108 -77.5t-63 -105.5t-20 -113.5z" />
<glyph unicode=":" horiz-adv-x="444" d="M133 72q0 35 27.5 61.5t64.5 26.5t63.5 -27t26.5 -61q0 -37 -26.5 -63.5t-63.5 -26.5t-64.5 26.5t-27.5 63.5zM133 913q0 37 27.5 64t64.5 27t63.5 -27t26.5 -64q0 -35 -26.5 -61.5t-63.5 -26.5t-64.5 27t-27.5 61z" />
<glyph unicode=";" horiz-adv-x="448" d="M119 -199q49 35 81.5 88.5t37.5 100.5q-4 -2 -9 -2h-12q-37 0 -60.5 24.5t-23.5 61.5q0 35 25.5 61.5t62.5 26.5q41 0 73 -33.5t32 -99.5q0 -84 -44 -160t-104 -117zM133 913q0 37 27.5 64t64.5 27t63.5 -27t26.5 -64q0 -35 -26.5 -61.5t-63.5 -26.5t-64.5 27t-27.5 61z " />
<glyph unicode="&#x3c;" horiz-adv-x="1015" d="M59 647v76l897 465v-101l-788 -403l788 -399v-101z" />
<glyph unicode="=" horiz-adv-x="1015" d="M59 442v84h897v-84h-897zM59 842v86h897v-86h-897z" />
<glyph unicode="&#x3e;" horiz-adv-x="1015" d="M59 184v101l791 399l-791 403v101l897 -465v-76z" />
<glyph unicode="?" horiz-adv-x="813" d="M25 965q63 84 159.5 134t227.5 50q80 0 144.5 -21.5t108.5 -57.5t67.5 -83t23.5 -100q0 -63 -27 -110.5t-67.5 -83.5t-87 -64.5t-87.5 -57t-67.5 -60.5t-26.5 -73q0 -18 11.5 -41.5t48.5 -46.5l-80 -47q-45 35 -62.5 69t-17.5 68q0 53 26.5 93t65.5 72t85 59.5t85 57.5 t65.5 65.5t26.5 84.5q0 78 -64.5 129.5t-176.5 51.5q-117 0 -191 -43t-127 -113zM297 72q0 35 26.5 61.5t63.5 26.5t63.5 -26.5t26.5 -61.5q0 -37 -26.5 -63.5t-63.5 -26.5t-63.5 26.5t-26.5 63.5z" />
<glyph unicode="@" horiz-adv-x="1603" d="M72 500q0 166 67.5 313.5t179 257t259 173t307.5 63.5q143 0 263 -51.5t204 -140.5t131 -210t47 -258q0 -117 -27.5 -205t-74 -147t-106.5 -90t-124 -31q-84 0 -131 53.5t-49 120.5l-2 12q-53 -76 -142.5 -131t-193.5 -55q-141 0 -227 89t-86 239q0 111 42 206 t111.5 165.5t156.5 110.5t179 40q104 0 171 -51t95 -119l27 133h100l-121 -577q-2 -10 -3 -19.5t-1 -19.5q0 -53 31 -83t72 -30q31 0 71.5 18.5t77.5 63.5t62.5 120t25.5 189q0 127 -43 235.5t-119.5 187.5t-184 124t-238.5 45q-150 0 -285 -61.5t-236.5 -164t-161 -236.5 t-59.5 -277q0 -123 44 -229.5t123 -185.5t187.5 -123t237.5 -44q113 0 206 32t177 85l35 -51q-96 -61 -203.5 -95t-222.5 -34q-139 0 -258 49t-206 136t-136 205t-49 253zM473 506q0 -106 59 -176t168 -70q57 0 107.5 18.5t93.5 48t77 65.5t58 73l66 303q-10 27 -28.5 56.5 t-47.5 55t-67.5 42t-90.5 16.5q-82 0 -153.5 -37t-125.5 -97.5t-85 -138t-31 -159.5z" />
<glyph unicode="A" d="M31 0l559 1366h145l559 -1366h-135l-135 336h-723l-135 -336h-135zM340 442h645l-321 799z" />
<glyph unicode="B" horiz-adv-x="1259" d="M170 0v1366h561q174 0 275.5 -93t101.5 -255q0 -66 -20.5 -119t-53.5 -93t-77 -66.5t-89 -34.5q55 -8 103.5 -39t84.5 -77t57.5 -102.5t21.5 -117.5q0 -172 -103.5 -270.5t-288.5 -98.5h-573zM287 106h438q135 0 211 73t76 198q0 51 -18.5 100t-54.5 87t-89 60.5 t-125 22.5h-438v-541zM287 754h430q133 0 200.5 72.5t67.5 179.5q0 104 -67.5 179t-200.5 75h-430v-506z" />
<glyph unicode="C" horiz-adv-x="1374" d="M119 682q0 158 53 288t147.5 223t220.5 144.5t271 51.5q164 0 288 -66t210 -176l-99 -64q-66 90 -171 144.5t-228 54.5q-121 0 -224.5 -44t-180 -123t-120.5 -189.5t-44 -243.5t44 -242.5t120.5 -189.5t180 -124t224.5 -44q123 0 228.5 54t170.5 145l101 -62 q-92 -113 -214 -178.5t-286 -65.5q-145 0 -271 51.5t-220.5 144.5t-147.5 223t-53 288z" />
<glyph unicode="D" horiz-adv-x="1417" d="M170 0v1366h436q160 0 287 -54.5t217 -147.5t138 -217t48 -265t-48 -266t-138 -217.5t-217 -145.5t-287 -53h-436zM287 106h319q135 0 240.5 45.5t178.5 123t111 182t38 225.5q0 119 -38 224.5t-110 184t-178.5 124t-241.5 45.5h-319v-1154z" />
<glyph unicode="E" horiz-adv-x="1155" d="M170 0v1366h866v-106h-749v-506h735v-107h-735v-541h749v-106h-866z" />
<glyph unicode="F" horiz-adv-x="1110" d="M170 0v1366h866v-106h-749v-506h735v-107h-735v-647h-117z" />
<glyph unicode="G" horiz-adv-x="1456" d="M119 682q0 158 54 288t147.5 223t219.5 144.5t271 51.5q170 0 295 -62.5t219 -171.5l-88 -63q-72 86 -183.5 138t-242.5 52q-121 0 -224.5 -44t-180 -123t-120.5 -189.5t-44 -243.5t44 -243.5t120.5 -190.5t180 -124t224.5 -44q68 0 129 15.5t112.5 39t91.5 53t68 58.5 v327h-516v105h633v-477q-92 -102 -224 -165t-294 -63q-145 0 -271 51.5t-219.5 144.5t-147.5 224t-54 289z" />
<glyph unicode="H" horiz-adv-x="1439" d="M170 0v1366h117v-610h866v610h117v-1366h-117v649h-866v-649h-117z" />
<glyph unicode="I" horiz-adv-x="456" d="M170 0v1366h117v-1366h-117z" />
<glyph unicode="J" horiz-adv-x="962" d="M29 143l71 90q47 -61 111.5 -106t161.5 -45q141 0 222 87t81 226v971h117v-971q0 -106 -33 -185t-89.5 -131t-131 -78t-160.5 -26q-111 0 -197 40t-153 128z" />
<glyph unicode="K" horiz-adv-x="1200" d="M170 0v1366h117v-748l659 748h150l-582 -651l637 -715h-150l-563 643l-151 -166v-477h-117z" />
<glyph unicode="L" horiz-adv-x="991" d="M141 0v1366h119v-1260h662v-106h-781z" />
<glyph unicode="M" horiz-adv-x="1617" d="M170 0v1366h174l465 -1137l463 1137h176v-1366h-119v1219l-498 -1219h-45l-499 1219v-1219h-117z" />
<glyph unicode="N" horiz-adv-x="1431" d="M170 0v1366h119l856 -1157v1157h117v-1366h-115l-860 1174v-1174h-117z" />
<glyph unicode="O" horiz-adv-x="1564" d="M119 682q0 150 47 279t134 224t209 149.5t273 54.5q150 0 273 -54.5t210 -149.5t134 -224.5t47 -278.5q0 -150 -47 -279t-134 -224t-210 -149.5t-273 -54.5q-152 0 -273.5 54.5t-208.5 149.5t-134 224t-47 279zM242 682q0 -129 37.5 -238.5t108.5 -190.5t171 -126 t223 -45t222.5 45t170 126t109.5 190.5t39 238.5t-39 239.5t-109.5 190.5t-170 125t-222.5 45t-223 -45t-171 -125t-108.5 -190.5t-37.5 -239.5z" />
<glyph unicode="P" horiz-adv-x="1169" d="M170 0v1366h512q98 0 175 -31.5t129 -87t80 -128t28 -152.5t-28 -153t-81 -128t-129 -87t-174 -32h-395v-567h-117zM287 674h383q68 0 124 21.5t95 60.5t60.5 93t21.5 118q0 129 -82 211t-219 82h-383v-586z" />
<glyph unicode="Q" horiz-adv-x="1564" d="M119 682q0 150 47 279t134 224t209 149.5t273 54.5q150 0 273 -54.5t210 -149.5t134 -224.5t47 -278.5q0 -156 -51.5 -287t-143.5 -227l144 -150l-80 -73l-146 149q-78 -57 -175 -88t-212 -31q-152 0 -273.5 54.5t-208.5 149.5t-134 224t-47 279zM242 682 q0 -129 37.5 -238.5t108.5 -190.5t171 -126t223 -45q90 0 168 24.5t142 69.5l-211 219l82 76l211 -221q72 82 110.5 191.5t38.5 240.5q0 129 -39 239.5t-109.5 190.5t-170 125t-222.5 45t-223 -45t-171 -125t-108.5 -190.5t-37.5 -239.5z" />
<glyph unicode="R" horiz-adv-x="1216" d="M170 0v1366h510q88 0 164 -27.5t132 -79t88 -125t32 -167.5q0 -92 -31 -165t-82 -122t-120.5 -77t-145.5 -30l395 -573h-141l-383 565h-301v-565h-117zM287 672h383q68 0 124 21.5t96 61.5t61.5 93t21.5 119q0 63 -21.5 117.5t-61.5 93.5t-96.5 60.5t-123.5 21.5h-383 v-588z" />
<glyph unicode="S" horiz-adv-x="1189" d="M94 193l76 88q33 -37 76 -73t97 -63.5t117.5 -45t137.5 -17.5q104 0 173 26.5t111 66.5t58 88t16 91q0 100 -60 155.5t-151.5 90.5t-198 60.5t-197.5 66.5t-151.5 109.5t-60.5 187.5q0 84 35 151.5t96.5 114.5t143.5 73t174 26q154 0 269.5 -50.5t193.5 -142.5l-78 -86 q-74 90 -174.5 131t-216.5 41q-68 0 -126.5 -18.5t-101.5 -52t-67.5 -80t-24.5 -101.5q0 -66 35 -108.5t93 -71.5t131 -50.5t149.5 -44t150.5 -50t132.5 -72.5t93 -109.5t34.5 -161.5q0 -66 -23.5 -134t-80.5 -124.5t-150.5 -92.5t-230.5 -36q-170 0 -296 61.5t-204 156.5z " />
<glyph unicode="T" horiz-adv-x="1155" d="M72 1260v106h1011v-106h-446v-1260h-119v1260h-446z" />
<glyph unicode="U" horiz-adv-x="1404" d="M170 524v842h119v-840q0 -209 105.5 -326.5t307.5 -117.5q203 0 308.5 117.5t105.5 326.5v840h119v-842q0 -254 -134.5 -401.5t-398.5 -147.5q-131 0 -230 39t-166.5 110t-101.5 172t-34 228z" />
<glyph unicode="V" d="M31 1366h135l498 -1235l495 1235h135l-559 -1366h-145z" />
<glyph unicode="W" horiz-adv-x="1775" d="M39 1366h131l330 -1202l336 1202h106l334 -1202l330 1202h131l-389 -1366h-131l-328 1174l-328 -1174h-131z" />
<glyph unicode="X" horiz-adv-x="1320" d="M39 0l549 700l-518 666h147l442 -580l445 580h147l-518 -664l549 -702h-145l-478 616l-475 -616h-145z" />
<glyph unicode="Y" horiz-adv-x="1265" d="M31 1366h141l461 -672l461 672h141l-543 -782v-584h-119v584z" />
<glyph unicode="Z" horiz-adv-x="1189" d="M102 0v102l824 1158h-824v106h971v-100l-823 -1160h837v-106h-985z" />
<glyph unicode="[" horiz-adv-x="466" d="M76 -389v1778h356v-89h-266v-1601h266v-88h-356z" />
<glyph unicode="\" horiz-adv-x="577" d="M0 1407h92l486 -1448h-93z" />
<glyph unicode="]" horiz-adv-x="466" d="M35 -301h266v1601h-266v89h356v-1778h-356v88z" />
<glyph unicode="^" horiz-adv-x="876" d="M39 682l356 684h86l357 -684h-99l-301 600l-301 -600h-98z" />
<glyph unicode="_" horiz-adv-x="1155" d="M-6 -82h1167v-88h-1167v88z" />
<glyph unicode="`" horiz-adv-x="442" d="M0 1434h127l315 -295h-90z" />
<glyph unicode="a" horiz-adv-x="1150" d="M25 0l485 1126h131l485 -1126h-127l-118 272h-613l-114 -272h-129zM305 373h539l-269 631z" />
<glyph unicode="b" horiz-adv-x="1107" d="M166 0v1126h487q152 0 241 -76.5t89 -211.5q0 -102 -58.5 -169t-133.5 -87q45 -12 83.5 -39t68.5 -64t47.5 -82t17.5 -92q0 -141 -92.5 -223t-251.5 -82h-498zM279 100h372q111 0 174.5 57.5t63.5 155.5q0 41 -15.5 80t-45 69t-73.5 48t-104 18h-372v-428zM279 629h364 q111 0 167 57t56 141q0 90 -57 144.5t-166 54.5h-364v-397z" />
<glyph unicode="c" horiz-adv-x="1189" d="M111 565q0 129 46 237.5t125.5 185.5t188.5 120t234 43q141 0 247.5 -55.5t184.5 -153.5l-88 -55q-57 78 -148.5 121t-195.5 43q-100 0 -187.5 -36t-152 -100.5t-101.5 -153.5t-37 -196q0 -106 37 -196t101.5 -154.5t151.5 -101.5t188 -37q104 0 197 44t147 120l90 -56 q-80 -98 -186.5 -153.5t-247.5 -55.5q-125 0 -234 43t-188.5 121t-125.5 186.5t-46 239.5z" />
<glyph unicode="d" horiz-adv-x="1251" d="M166 0v1126h379q137 0 247.5 -45t188.5 -121.5t119 -179t41 -219.5t-41 -219t-119 -178t-188.5 -120t-247.5 -44h-379zM279 100h266q115 0 204 36t149 98.5t92 146.5t32 180t-30.5 181t-91 147.5t-149.5 99.5t-206 37h-266v-926z" />
<glyph unicode="e" horiz-adv-x="1034" d="M166 0v1126h754v-100h-641v-397h630v-101h-630v-428h641v-100h-754z" />
<glyph unicode="f" horiz-adv-x="989" d="M166 0v1126h754v-100h-641v-397h630v-101h-630v-528h-113z" />
<glyph unicode="g" horiz-adv-x="1290" d="M111 563q0 131 46 238.5t127 185.5t189.5 121t233.5 43q141 0 250.5 -52t191.5 -141l-82 -65q-66 72 -159 115t-201 43q-102 0 -189.5 -36t-152 -100.5t-101.5 -154.5t-37 -197q0 -106 37 -196.5t101.5 -155t151.5 -101t190 -36.5q115 0 200.5 44t132.5 89v262h-381v98 h494v-401q-80 -86 -194.5 -138.5t-251.5 -52.5q-125 0 -233.5 43t-189.5 121t-127 185.5t-46 238.5z" />
<glyph unicode="h" horiz-adv-x="1288" d="M166 0v1126h113v-497h733v497h110v-1126h-110v530h-733v-530h-113z" />
<glyph unicode="i" horiz-adv-x="442" d="M166 0v1126h113v-1126h-113z" />
<glyph unicode="j" horiz-adv-x="854" d="M20 121l64 82q41 -53 97.5 -90t135.5 -37q121 0 189.5 69.5t68.5 182.5v798h113v-802q0 -88 -28.5 -154t-78 -109t-115.5 -64.5t-142 -21.5q-190 0 -304 146z" />
<glyph unicode="k" horiz-adv-x="1067" d="M166 0v1126h113v-602l557 602h143l-506 -536l553 -590h-143l-482 524l-122 -133v-391h-113z" />
<glyph unicode="l" horiz-adv-x="929" d="M166 0v1126h113v-1026h567v-100h-680z" />
<glyph unicode="m" horiz-adv-x="1439" d="M166 0v1126h156l397 -925l397 925h158v-1126h-113v973l-418 -973h-47l-417 973v-973h-113z" />
<glyph unicode="n" horiz-adv-x="1280" d="M166 0v1126h115l720 -936v936h113v-1126h-110l-725 950v-950h-113z" />
<glyph unicode="o" horiz-adv-x="1363" d="M111 563q0 123 39.5 230.5t114.5 187.5t180.5 125t236.5 45q129 0 234.5 -45t180 -125t115.5 -187.5t41 -230.5t-41 -230.5t-115.5 -186t-180 -125t-234.5 -46.5q-131 0 -236.5 46.5t-180.5 125t-114.5 186t-39.5 230.5zM227 563q0 -104 32 -193t91.5 -154.5 t143.5 -102.5t188 -37q102 0 186 37t143.5 102.5t92.5 154.5t33 193t-33 194.5t-92.5 155t-143.5 101.5t-186 37q-104 0 -188 -37t-143.5 -101.5t-91.5 -154.5t-32 -195z" />
<glyph unicode="p" horiz-adv-x="1042" d="M166 0v1126h446q90 0 158 -26.5t112 -72.5t66.5 -105.5t22.5 -126.5q0 -68 -22.5 -129.5t-66.5 -107.5t-112 -72.5t-158 -26.5h-333v-459h-113zM279 559h325q127 0 188.5 66.5t61.5 169.5q0 100 -63.5 165.5t-186.5 65.5h-325v-467z" />
<glyph unicode="q" horiz-adv-x="1363" d="M111 563q0 123 39.5 230.5t114.5 187.5t180.5 125t236.5 45q129 0 234.5 -45t180 -125t115.5 -187.5t41 -230.5q0 -129 -44 -239.5t-126 -190.5l115 -123l-72 -65l-118 125q-66 -45 -148 -70t-178 -25q-131 0 -236.5 46.5t-180.5 125t-114.5 186t-39.5 230.5zM227 563 q0 -104 32 -193t91.5 -154.5t143.5 -102.5t188 -37q145 0 254 74l-172 184l72 67l174 -188q59 66 93 155t34 195q0 104 -33 194.5t-92.5 155t-143.5 101.5t-186 37q-104 0 -188 -37t-143.5 -101.5t-91.5 -154.5t-32 -195z" />
<glyph unicode="r" horiz-adv-x="1091" d="M166 0v1126h446q86 0 152.5 -25.5t113 -69.5t71 -105.5t24.5 -130.5q0 -143 -88 -233.5t-236 -96.5l342 -465h-139l-324 459h-249v-459h-113zM279 559h325q127 0 189.5 65.5t62.5 170.5q0 102 -64.5 166.5t-187.5 64.5h-325v-467z" />
<glyph unicode="s" horiz-adv-x="1021" d="M80 156l70 80q53 -61 148 -111.5t216 -50.5q84 0 142.5 19.5t94 50t52 71.5t16.5 84q0 82 -52 126t-130 71.5t-170 47t-170 53.5t-130 90t-52 157q0 70 30.5 126t83 96t124 62.5t151.5 22.5q135 0 234.5 -44t168.5 -118l-65 -78q-63 74 -151.5 108t-186.5 34 q-57 0 -107.5 -15.5t-87.5 -43t-57.5 -65.5t-20.5 -83q0 -70 52.5 -108t131.5 -63.5t170 -47t170 -58.5t131 -99t52 -169q0 -66 -24.5 -125t-77 -104t-133 -71t-191.5 -26q-145 0 -256 51.5t-176 129.5z" />
<glyph unicode="t" horiz-adv-x="952" d="M59 1026v100h836v-100h-363v-1026h-112v1026h-361z" />
<glyph unicode="u" horiz-adv-x="1255" d="M166 430v696h113v-692q0 -168 89 -263t259 -95t260 95t90 263v692h113v-696q0 -211 -117 -333t-346 -122t-345 122t-116 333z" />
<glyph unicode="v" horiz-adv-x="1150" d="M25 1126h129l421 -999l426 999h125l-485 -1126h-131z" />
<glyph unicode="w" horiz-adv-x="1533" d="M31 1126h123l276 -964l287 964h100l285 -966l278 966h123l-338 -1126h-118l-281 948l-279 -948h-118z" />
<glyph unicode="x" horiz-adv-x="1146" d="M29 0l475 578l-449 548h140l378 -469l379 469h140l-449 -546l475 -580h-139l-406 500l-405 -500h-139z" />
<glyph unicode="y" horiz-adv-x="1103" d="M25 1126h135l397 -544l389 544h133l-467 -645v-481h-112v481z" />
<glyph unicode="z" horiz-adv-x="1050" d="M84 0v88l723 938h-723v100h868v-90l-721 -936h736v-100h-883z" />
<glyph unicode="{" horiz-adv-x="509" d="M12 459v82q53 0 80 44t27 101v449q0 57 19.5 104t52 80t73.5 51.5t84 18.5h127v-89h-127q-55 0 -97 -46t-42 -119v-455q0 -66 -20.5 -112t-71.5 -68q51 -23 71.5 -69t20.5 -112v-454q0 -72 42 -119t97 -47h127v-88h-127q-43 0 -84 17.5t-73.5 51t-52 79.5t-19.5 106v448 q0 57 -26.5 101.5t-80.5 44.5z" />
<glyph unicode="|" horiz-adv-x="425" d="M170 -41v1448h88v-1448h-88z" />
<glyph unicode="}" horiz-adv-x="509" d="M35 -301h127q55 0 96 47t41 119v454q0 66 21.5 112t70.5 69q-49 23 -70.5 68.5t-21.5 111.5v455q0 74 -41 119.5t-96 45.5h-127v89h127q43 0 84 -18.5t73.5 -51.5t52 -80t19.5 -104v-449q0 -57 26.5 -101t80.5 -44v-82q-53 0 -80 -44t-27 -102v-448q0 -59 -19.5 -105.5 t-52 -80t-73.5 -51t-84 -17.5h-127v88z" />
<glyph unicode="~" horiz-adv-x="1021" d="M57 887q8 92 25.5 178t48.5 152.5t79 105.5t120 39q63 0 102 -29.5t65.5 -75t44 -97.5t37 -97t45 -75t68.5 -30q82 0 125 108t62 300l88 -10q-10 -92 -26.5 -179t-47.5 -154t-80 -106.5t-121 -39.5q-63 0 -102 29.5t-64.5 74.5t-43 96t-37 96.5t-46 75t-69.5 29.5 q-82 0 -125 -107.5t-60 -298.5z" />
<glyph unicode="&#xa1;" horiz-adv-x="360" d="M92 1055q0 37 25.5 63.5t62.5 26.5t63.5 -26.5t26.5 -63.5q0 -35 -26.5 -61.5t-63.5 -26.5t-62.5 26.5t-25.5 61.5zM115 0l26 821h80l27 -821h-133z" />
<glyph unicode="&#xa2;" horiz-adv-x="1189" d="M111 565q0 123 42 226.5t114.5 180.5t173 123t216.5 54v115h88v-115q125 -8 222.5 -62.5t169.5 -144.5l-88 -55q-53 70 -132 110.5t-172 51.5v-971q94 8 175 51t129 111l90 -56q-74 -92 -171.5 -145t-222.5 -62v-174h-88v174q-117 8 -217 54.5t-172.5 123t-114.5 181 t-42 229.5zM227 565q0 -100 33 -186t90.5 -149.5t136 -103.5t170.5 -48v971q-92 -8 -170.5 -47t-136 -102.5t-90.5 -149t-33 -185.5z" />
<glyph unicode="&#xa3;" horiz-adv-x="849" d="M29 457v80h170q-43 59 -81 126.5t-38 159.5q0 68 27.5 127.5t75.5 103.5t115 69.5t144 25.5q102 0 190.5 -48t129.5 -130l-84 -49q-33 66 -92.5 103.5t-136.5 37.5q-51 0 -98.5 -17.5t-83.5 -48t-57.5 -74.5t-21.5 -100q0 -84 43 -152.5t91 -133.5h280v-80h-229 q14 -29 23.5 -58.5t9.5 -62.5q0 -66 -33 -120t-86 -87q18 6 45 6q45 0 81 -10t68.5 -21.5t63 -21.5t65.5 -10q51 0 98.5 19.5t69.5 45.5l56 -82q-33 -31 -92.5 -55.5t-135.5 -24.5q-55 0 -89 11.5t-61.5 25t-59 24.5t-85.5 11q-41 0 -93 -19.5t-103 -45.5l-43 90 q123 51 178 115.5t55 134.5q0 37 -13 69.5t-34 65.5h-229z" />
<glyph unicode="&#xa5;" horiz-adv-x="1103" d="M25 1126h135l397 -544l389 544h133l-411 -567h387v-80h-443v-164h443v-77h-443v-238h-112v238h-453v77h453v164h-453v80h395z" />
<glyph unicode="&#xa6;" horiz-adv-x="425" d="M170 -41v647h88v-647h-88zM170 760v647h88v-647h-88z" />
<glyph unicode="&#xa7;" horiz-adv-x="944" d="M80 -8l63 74q45 -55 123 -101.5t195 -46.5t191.5 54.5t74.5 150.5q0 70 -46 107.5t-115.5 61t-150.5 42t-150.5 48.5t-116 81t-46.5 139q0 55 20.5 99t54.5 76t80 54.5t97 34.5q-113 35 -182.5 90.5t-69.5 159.5q0 55 22.5 104.5t68 86t111 58t151.5 21.5q133 0 219 -45 t133 -102l-57 -68q-53 68 -132 100t-161 32q-109 0 -178.5 -51.5t-69.5 -137.5q0 -63 46 -97t115.5 -54.5t149.5 -38t149.5 -50t115.5 -88t46 -151.5q0 -86 -49 -152.5t-147 -107.5q92 -35 144 -91.5t52 -156.5q0 -70 -26.5 -124t-75.5 -92t-117.5 -57.5t-150.5 -19.5 q-74 0 -132.5 13.5t-103.5 35t-79.5 50t-65.5 59.5zM209 608q0 -47 27.5 -78.5t72.5 -54t103.5 -39t122.5 -30.5q90 39 140 91t50 132q0 49 -22.5 82.5t-59.5 57.5t-83 38t-91 27q-152 -39 -206 -95.5t-54 -130.5z" />
<glyph unicode="&#xa8;" horiz-adv-x="536" d="M-16 1231q0 31 22.5 53.5t52.5 22.5q31 0 53.5 -22.5t22.5 -53.5t-22.5 -53.5t-53.5 -22.5t-53 22.5t-22 53.5zM401 1231q0 31 22.5 53.5t53.5 22.5t53.5 -22.5t22.5 -53.5t-22.5 -53.5t-53.5 -22.5t-53.5 22.5t-22.5 53.5z" />
<glyph unicode="&#xa9;" horiz-adv-x="1593" d="M90 684q0 147 55.5 275t151.5 224.5t225 152t275 55.5q147 0 275 -55.5t224.5 -152t151.5 -224.5t55 -275q0 -145 -55 -274t-151.5 -225.5t-224.5 -152t-275 -55.5q-145 0 -274.5 55.5t-225.5 152t-151.5 225.5t-55.5 274zM147 684q0 -133 51.5 -252t139.5 -207t207 -139 t252 -51q135 0 252.5 51t205.5 139t139.5 207t51.5 252q0 135 -51.5 253t-139.5 206t-205.5 139t-252.5 51q-133 0 -252 -51t-207 -139t-139.5 -206t-51.5 -253zM373 688q0 94 33.5 174t91 138.5t135.5 91t166 32.5q96 0 169.5 -34.5t127.5 -98.5l-45 -45q-41 53 -111 85 t-141 32q-72 0 -136.5 -26.5t-113.5 -76t-79 -119t-30 -155.5q0 -82 30 -151.5t79 -119.5t113.5 -79t136.5 -29q74 0 142.5 33t109.5 86l45 -45q-55 -66 -128 -100.5t-169 -34.5q-88 0 -166 33.5t-135.5 93t-91 140.5t-33.5 175z" />
<glyph unicode="&#xaa;" horiz-adv-x="768" d="M94 866q0 51 19.5 91t52.5 67t74 40t84 13q139 0 225 -90v125q0 72 -53.5 107.5t-120.5 35.5q-53 0 -108.5 -22.5t-96.5 -75.5l-45 57q53 57 115.5 85t144.5 28q51 0 97 -12t80 -38t53.5 -67t19.5 -98v-444h-86v75q-86 -92 -225 -92q-43 0 -84 14.5t-74 42t-52.5 67.5 t-19.5 91zM182 866q0 -68 48 -110.5t126 -42.5q57 0 108.5 22.5t84.5 63.5v133q-33 41 -84 62.5t-109 21.5q-78 0 -126 -42t-48 -108z" />
<glyph unicode="&#xab;" horiz-adv-x="823" d="M61 498l328 362h117l-328 -362l328 -369h-117zM317 498l328 362h117l-328 -362l328 -369h-117z" />
<glyph unicode="&#xac;" horiz-adv-x="1021" d="M59 842v86h897v-486h-88v400h-809z" />
<glyph unicode="&#xad;" horiz-adv-x="614" d="M61 446v99h492v-99h-492z" />
<glyph unicode="&#xae;" horiz-adv-x="1011" d="M72 952q0 90 33.5 170t93 138.5t138.5 92t169 33.5t170 -33.5t138 -92t92 -138.5t34 -170t-34 -168.5t-92 -138t-138 -93.5t-170 -34t-169 34t-138.5 93.5t-93 138t-33.5 168.5zM127 952q0 -78 29.5 -146.5t81 -120.5t121 -82t147.5 -30t147.5 30t120.5 82t81 120.5 t30 146.5q0 80 -30 148.5t-81 120t-120.5 81t-147.5 29.5t-147.5 -29.5t-121 -81t-81 -120t-29.5 -148.5zM342 702v498h203q63 0 108 -41t45 -110q0 -41 -15 -70t-36.5 -46.5t-43 -24.5t-32.5 -7l134 -199h-78l-129 197h-95v-197h-61zM403 958h142q33 0 61.5 26t28.5 65 q0 41 -28.5 67.5t-61.5 26.5h-142v-185z" />
<glyph unicode="&#xaf;" horiz-adv-x="743" d="M0 1210v78h743v-78h-743z" />
<glyph unicode="&#xb0;" horiz-adv-x="577" d="M51 1147q0 49 18.5 93t50.5 76t75 51t92 19t93 -19t76.5 -51t51 -76t18.5 -93t-18.5 -92t-51 -75t-76.5 -50.5t-93 -18.5t-92 18.5t-75 50.5t-50.5 75t-18.5 92zM131 1147q0 -66 45 -111t111 -45t112.5 45t46.5 111t-47 113t-112 47q-66 0 -111 -47.5t-45 -112.5z" />
<glyph unicode="&#xb1;" horiz-adv-x="1015" d="M59 0v84h897v-84h-897zM59 662v83h404v435h92v-435h401v-83h-401v-447h-92v447h-404z" />
<glyph unicode="&#xb2;" horiz-adv-x="786" d="M106 862v72q111 80 200 149.5t151.5 133t96.5 122t34 115.5q0 43 -16.5 74t-43 50t-61.5 28.5t-70 9.5q-78 0 -138 -30t-93 -77l-55 58q47 61 124.5 94t163.5 33q49 0 99.5 -13.5t90.5 -42t64.5 -72.5t24.5 -108q0 -68 -34 -132t-93 -127.5t-138 -128t-171 -130.5h440 v-78h-576z" />
<glyph unicode="&#xb3;" horiz-adv-x="786" d="M94 981l53 57q39 -51 100.5 -81.5t139.5 -30.5q96 0 150.5 43t54.5 116q0 88 -66.5 125t-158.5 37h-47.5t-30.5 -2v78q10 -2 29.5 -2h48.5q88 0 150.5 34t62.5 115q0 72 -58.5 109t-138.5 37q-72 0 -126 -24.5t-101 -78.5l-52 56q45 53 116 89t169 36q59 0 110.5 -14.5 t90.5 -42t60.5 -68.5t21.5 -92q0 -47 -18.5 -81t-45 -57.5t-59.5 -36t-60 -16.5q27 -2 62 -15.5t64.5 -38t50 -61.5t20.5 -88q0 -104 -79 -169.5t-218 -65.5q-106 0 -182 39t-113 94z" />
<glyph unicode="&#xb4;" horiz-adv-x="442" d="M0 1139l315 295h127l-352 -295h-90z" />
<glyph unicode="&#xb5;" horiz-adv-x="1105" d="M166 -377v1366h106v-672q0 -72 17.5 -119.5t49.5 -76.5t76 -41t97 -12q47 0 94 14t89 36.5t78 53.5t61 64v753h106v-989h-106v145q-31 -35 -70 -65.5t-85 -53t-97.5 -37t-104.5 -14.5q-129 0 -205 52v-404h-106z" />
<glyph unicode="&#xb6;" horiz-adv-x="919" d="M55 1014q0 74 28 137t76 111.5t111.5 76t137.5 27.5h346v-1571h-78v1493h-191v-1493h-77v867q-74 0 -137.5 27.5t-111.5 75.5t-76 111.5t-28 137.5z" />
<glyph unicode="&#xb7;" horiz-adv-x="448" d="M135 502q0 35 26.5 61.5t63.5 26.5t63.5 -26.5t26.5 -61.5q0 -37 -26.5 -63.5t-63.5 -26.5t-63.5 26.5t-26.5 63.5z" />
<glyph unicode="&#xb8;" horiz-adv-x="405" d="M0 -328l35 66q37 -31 79 -44t83 -13q53 0 93 24.5t40 67.5q0 37 -20.5 59.5t-61.5 22.5q-51 0 -84 -37l-55 32l61 173h78l-53 -138q33 23 75 23q59 0 97.5 -37t38.5 -98q0 -72 -60.5 -116t-146.5 -44q-61 0 -115.5 17.5t-83.5 41.5z" />
<glyph unicode="&#xb9;" horiz-adv-x="438" d="M35 1479l198 202h82v-819h-94v699l-131 -142z" />
<glyph unicode="&#xba;" horiz-adv-x="829" d="M90 989q0 70 23.5 132.5t65.5 107.5t101.5 71.5t133.5 26.5t134 -26.5t103 -71.5t65.5 -107.5t22.5 -132.5t-22.5 -131t-65.5 -107t-103 -73t-134 -27t-133.5 27t-101.5 73t-65.5 107.5t-23.5 130.5zM182 989q0 -53 15.5 -101t45 -84t73 -56.5t98.5 -20.5t99 20.5 t74.5 56.5t46 84t15.5 101t-15.5 100.5t-46 83t-74.5 56t-99 20.5t-98.5 -20.5t-73 -56t-45 -83t-15.5 -100.5z" />
<glyph unicode="&#xbb;" horiz-adv-x="823" d="M61 129l328 369l-328 362h117l328 -362l-328 -369h-117zM317 129l328 369l-328 362h117l328 -362l-328 -369h-117z" />
<glyph unicode="&#xbc;" horiz-adv-x="1519" d="M35 1163l198 203h82v-819h-94v698l-131 -141zM197 0l872 1366h94l-874 -1366h-92zM821 219v72l367 528h125v-524h123v-76h-123v-219h-90v219h-402zM915 295h308v440z" />
<glyph unicode="&#xbd;" horiz-adv-x="1599" d="M35 1163l198 203h82v-819h-94v698l-131 -141zM197 0l872 1366h94l-874 -1366h-92zM920 0v72q111 80 199.5 149.5t151 133t96.5 122t34 115.5q0 43 -16.5 73.5t-43 50t-61.5 29t-70 9.5q-78 0 -138 -30t-93 -77l-55 58q47 61 124.5 93.5t163.5 32.5q49 0 99.5 -13 t90.5 -41.5t64.5 -73t24.5 -107.5q0 -68 -34 -132.5t-93 -128t-138 -128t-171 -129.5h440v-78h-575z" />
<glyph unicode="&#xbe;" horiz-adv-x="1759" d="M94 666l53 57q39 -51 100.5 -82t139.5 -31q96 0 150.5 43t54.5 117q0 88 -66.5 125t-158.5 37h-47.5t-30.5 -2v78q10 -2 29.5 -2h48.5q88 0 150.5 33.5t62.5 115.5q0 72 -58.5 108.5t-138.5 36.5q-72 0 -126 -24.5t-101 -77.5l-52 55q45 53 116 89t169 36q59 0 110.5 -14 t90.5 -42t60.5 -69t21.5 -92q0 -47 -18.5 -80.5t-45 -57.5t-59.5 -36t-60 -16q27 -2 62 -15.5t64.5 -38t50 -61.5t20.5 -88q0 -104 -79 -170t-218 -66q-106 0 -182 39t-113 95zM436 0l873 1366h94l-875 -1366h-92zM1061 219v72l366 528h125v-524h123v-76h-123v-219h-90v219 h-401zM1155 295h307v440z" />
<glyph unicode="&#xbf;" horiz-adv-x="813" d="M57 240q0 63 27 110t68 83t87 64.5t87 57.5t67.5 60.5t26.5 72.5q0 18 -11.5 42t-48.5 46l80 47q45 -35 62.5 -68.5t17.5 -68.5q0 -55 -26.5 -94t-65.5 -71t-85 -59.5t-85 -57t-65.5 -65.5t-26.5 -85q0 -78 64.5 -129t177.5 -51q117 0 190.5 43t126.5 112l63 -67 q-63 -84 -159.5 -134.5t-227.5 -50.5q-80 0 -144 21.5t-108.5 57.5t-68 83.5t-23.5 100.5zM336 1055q0 37 26.5 63.5t63.5 26.5t63.5 -26.5t26.5 -63.5q0 -35 -26.5 -61.5t-63.5 -26.5t-63.5 26.5t-26.5 61.5z" />
<glyph unicode="&#xc0;" d="M31 0l559 1366h145l559 -1366h-135l-135 336h-723l-135 -336h-135zM340 442h645l-321 799zM344 1786h127l315 -295h-90z" />
<glyph unicode="&#xc1;" d="M31 0l559 1366h145l559 -1366h-135l-135 336h-723l-135 -336h-135zM340 442h645l-321 799zM543 1491l315 295h127l-352 -295h-90z" />
<glyph unicode="&#xc2;" d="M31 0l559 1366h145l559 -1366h-135l-135 336h-723l-135 -336h-135zM340 442h645l-321 799zM410 1491l198 295h111l203 -295h-82l-176 231l-172 -231h-82z" />
<glyph unicode="&#xc3;" d="M31 0l559 1366h145l559 -1366h-135l-135 336h-723l-135 -336h-135zM340 442h645l-321 799zM350 1499q0 57 12.5 107.5t37 87.5t59.5 58.5t82 21.5q57 0 89 -33t55.5 -72t47 -71.5t64.5 -32.5q47 0 78.5 46t31.5 150h72q0 -57 -12.5 -107t-36 -87t-59.5 -58.5t-83 -21.5 q-57 0 -88.5 32.5t-55 71.5t-47.5 72t-65 33q-47 0 -78.5 -46t-31.5 -151h-72z" />
<glyph unicode="&#xc4;" d="M31 0l559 1366h145l559 -1366h-135l-135 336h-723l-135 -336h-135zM340 442h645l-321 799zM379 1575q0 31 22.5 53.5t53.5 22.5t53 -22.5t22 -53.5t-22.5 -53.5t-52.5 -22.5q-31 0 -53.5 22.5t-22.5 53.5zM797 1575q0 31 22.5 53.5t52.5 22.5q31 0 53.5 -22.5t22.5 -53.5 t-22.5 -53.5t-53.5 -22.5t-53 22.5t-22 53.5z" />
<glyph unicode="&#xc5;" d="M31 0l559 1366h145l559 -1366h-135l-135 336h-723l-135 -336h-135zM340 442h645l-321 799zM469 1614q0 82 57.5 139t139.5 57q39 0 74.5 -15t62 -42t42 -62.5t15.5 -76.5t-15.5 -76t-42 -62.5t-62 -43t-74.5 -15.5q-41 0 -77 15.5t-62.5 43t-42 62.5t-15.5 76zM535 1614 q0 -53 39 -92t92 -39t91 39t38 92t-38 92t-91 39t-92 -39t-39 -92z" />
<glyph unicode="&#xc6;" horiz-adv-x="1923" d="M29 0l862 1366h909v-106h-747v-506h733v-107h-733v-541h747v-106h-866v336h-561l-209 -336h-135zM432 442h502v799z" />
<glyph unicode="&#xc7;" horiz-adv-x="1374" d="M119 682q0 158 53 288t147.5 223t220.5 144.5t271 51.5q164 0 288 -66t210 -176l-99 -64q-66 90 -171 144.5t-228 54.5q-121 0 -224.5 -44t-180 -123t-120.5 -189.5t-44 -243.5t44 -242.5t120.5 -189.5t180 -124t224.5 -44q123 0 228.5 54t170.5 145l101 -62 q-92 -111 -210 -175t-276 -69l-30 -81q33 23 75 22q59 0 97.5 -37t38.5 -98q0 -72 -60.5 -116t-146.5 -44q-61 0 -115.5 17.5t-83.5 42.5l35 65q37 -31 79 -44t83 -13q53 0 93 24.5t40 67.5q0 37 -20.5 59.5t-61.5 22.5q-51 0 -84 -37l-55 33l43 118q-135 10 -251 65.5 t-201 148t-133 217t-48 274.5z" />
<glyph unicode="&#xc8;" horiz-adv-x="1155" d="M170 0v1366h866v-106h-749v-506h735v-107h-735v-541h749v-106h-866zM283 1786h127l315 -295h-90z" />
<glyph unicode="&#xc9;" horiz-adv-x="1155" d="M170 0v1366h866v-106h-749v-506h735v-107h-735v-541h749v-106h-866zM481 1491l316 295h127l-353 -295h-90z" />
<glyph unicode="&#xca;" horiz-adv-x="1155" d="M170 0v1366h866v-106h-749v-506h735v-107h-735v-541h749v-106h-866zM344 1491l199 295h110l203 -295h-82l-176 231l-172 -231h-82z" />
<glyph unicode="&#xcb;" horiz-adv-x="1155" d="M170 0v1366h866v-106h-749v-506h735v-107h-735v-541h749v-106h-866zM315 1575q0 31 22.5 53.5t53.5 22.5t53.5 -22.5t22.5 -53.5t-22.5 -53.5t-53.5 -22.5t-53.5 22.5t-22.5 53.5zM733 1575q0 31 22.5 53.5t53.5 22.5t53.5 -22.5t22.5 -53.5t-22.5 -53.5t-53.5 -22.5 t-53.5 22.5t-22.5 53.5z" />
<glyph unicode="&#xcc;" horiz-adv-x="456" d="M-90 1786h127l315 -295h-90zM170 0v1366h117v-1366h-117z" />
<glyph unicode="&#xcd;" horiz-adv-x="456" d="M109 1491l315 295h127l-352 -295h-90zM170 0v1366h117v-1366h-117z" />
<glyph unicode="&#xce;" horiz-adv-x="456" d="M-25 1491l199 295h111l202 -295h-81l-177 231l-172 -231h-82zM170 0v1366h117v-1366h-117z" />
<glyph unicode="&#xcf;" horiz-adv-x="456" d="M-55 1575q0 31 22.5 53.5t52.5 22.5q31 0 53.5 -22.5t22.5 -53.5t-22.5 -53.5t-53.5 -22.5t-53 22.5t-22 53.5zM170 0v1366h117v-1366h-117zM362 1575q0 31 23 53.5t53 22.5q31 0 53.5 -22.5t22.5 -53.5t-22.5 -53.5t-53.5 -22.5t-53.5 22.5t-22.5 53.5z" />
<glyph unicode="&#xd0;" horiz-adv-x="1476" d="M23 631v94h206v641h437q160 0 286.5 -54.5t217 -147.5t138.5 -217t48 -265t-48 -266t-138.5 -217.5t-217.5 -145.5t-286 -53h-437v631h-206zM346 106h320q135 0 240.5 45.5t178 123t110.5 182t38 225.5q0 119 -38 224.5t-109.5 184t-178 124t-241.5 45.5h-320v-535h369 v-94h-369v-525z" />
<glyph unicode="&#xd1;" horiz-adv-x="1431" d="M170 0v1366h119l856 -1157v1157h117v-1366h-115l-860 1174v-1174h-117zM397 1499q0 57 12.5 107.5t37 87.5t59.5 58.5t82 21.5q57 0 89 -33t55.5 -72t47 -71.5t64.5 -32.5q47 0 78.5 46t31.5 150h72q0 -57 -12.5 -107t-36 -87t-59 -58.5t-82.5 -21.5q-57 0 -89 32.5 t-55.5 71.5t-47 72t-64.5 33q-47 0 -79 -46t-32 -151h-72z" />
<glyph unicode="&#xd2;" horiz-adv-x="1564" d="M119 682q0 150 47 279t134 224t209 149.5t273 54.5q150 0 273 -54.5t210 -149.5t134 -224.5t47 -278.5q0 -150 -47 -279t-134 -224t-210 -149.5t-273 -54.5q-152 0 -273.5 54.5t-208.5 149.5t-134 224t-47 279zM242 682q0 -129 37.5 -238.5t108.5 -190.5t171 -126 t223 -45t222.5 45t170 126t109.5 190.5t39 238.5t-39 239.5t-109.5 190.5t-170 125t-222.5 45t-223 -45t-171 -125t-108.5 -190.5t-37.5 -239.5zM471 1786h127l315 -295h-90z" />
<glyph unicode="&#xd3;" horiz-adv-x="1564" d="M119 682q0 150 47 279t134 224t209 149.5t273 54.5q150 0 273 -54.5t210 -149.5t134 -224.5t47 -278.5q0 -150 -47 -279t-134 -224t-210 -149.5t-273 -54.5q-152 0 -273.5 54.5t-208.5 149.5t-134 224t-47 279zM242 682q0 -129 37.5 -238.5t108.5 -190.5t171 -126 t223 -45t222.5 45t170 126t109.5 190.5t39 238.5t-39 239.5t-109.5 190.5t-170 125t-222.5 45t-223 -45t-171 -125t-108.5 -190.5t-37.5 -239.5zM664 1491l315 295h127l-352 -295h-90z" />
<glyph unicode="&#xd4;" horiz-adv-x="1564" d="M119 682q0 150 47 279t134 224t209 149.5t273 54.5q150 0 273 -54.5t210 -149.5t134 -224.5t47 -278.5q0 -150 -47 -279t-134 -224t-210 -149.5t-273 -54.5q-152 0 -273.5 54.5t-208.5 149.5t-134 224t-47 279zM242 682q0 -129 37.5 -238.5t108.5 -190.5t171 -126 t223 -45t222.5 45t170 126t109.5 190.5t39 238.5t-39 239.5t-109.5 190.5t-170 125t-222.5 45t-223 -45t-171 -125t-108.5 -190.5t-37.5 -239.5zM530 1491l199 295h111l202 -295h-81l-177 231l-172 -231h-82z" />
<glyph unicode="&#xd5;" horiz-adv-x="1564" d="M119 682q0 150 47 279t134 224t209 149.5t273 54.5q150 0 273 -54.5t210 -149.5t134 -224.5t47 -278.5q0 -150 -47 -279t-134 -224t-210 -149.5t-273 -54.5q-152 0 -273.5 54.5t-208.5 149.5t-134 224t-47 279zM242 682q0 -129 37.5 -238.5t108.5 -190.5t171 -126 t223 -45t222.5 45t170 126t109.5 190.5t39 238.5t-39 239.5t-109.5 190.5t-170 125t-222.5 45t-223 -45t-171 -125t-108.5 -190.5t-37.5 -239.5zM469 1499q0 57 12.5 107.5t37 87.5t59 58.5t81.5 21.5q57 0 89 -33t55.5 -72t47 -71.5t64.5 -32.5q47 0 79 46t32 150h72 q0 -57 -12.5 -107t-36 -87t-59.5 -58.5t-83 -21.5q-57 0 -89 32.5t-55.5 71.5t-47 72t-64.5 33q-47 0 -78.5 -46t-31.5 -151h-72z" />
<glyph unicode="&#xd6;" horiz-adv-x="1564" d="M119 682q0 150 47 279t134 224t209 149.5t273 54.5q150 0 273 -54.5t210 -149.5t134 -224.5t47 -278.5q0 -150 -47 -279t-134 -224t-210 -149.5t-273 -54.5q-152 0 -273.5 54.5t-208.5 149.5t-134 224t-47 279zM242 682q0 -129 37.5 -238.5t108.5 -190.5t171 -126 t223 -45t222.5 45t170 126t109.5 190.5t39 238.5t-39 239.5t-109.5 190.5t-170 125t-222.5 45t-223 -45t-171 -125t-108.5 -190.5t-37.5 -239.5zM496 1575q0 31 22.5 53.5t52.5 22.5q31 0 53.5 -22.5t22.5 -53.5t-22.5 -53.5t-53.5 -22.5t-53 22.5t-22 53.5zM913 1575 q0 31 22.5 53.5t53.5 22.5t53.5 -22.5t22.5 -53.5t-22.5 -53.5t-53.5 -22.5t-53.5 22.5t-22.5 53.5z" />
<glyph unicode="&#xd7;" horiz-adv-x="1015" d="M137 373l312 311l-312 311l62 60l309 -312l311 312l60 -60l-312 -311l312 -311l-60 -60l-311 312l-309 -312z" />
<glyph unicode="&#xd8;" horiz-adv-x="1564" d="M119 682q0 150 47 279t134 224t209 149.5t273 54.5q96 0 180.5 -24t155.5 -65l41 66h107l-74 -115q121 -96 187.5 -242.5t66.5 -326.5q0 -150 -47 -279t-134 -224t-210 -149.5t-273 -54.5q-98 0 -184 24t-160 67l-41 -66h-104l74 115q-119 96 -183.5 242.5t-64.5 324.5z M242 682q0 -147 48 -268t138 -201l631 995q-121 74 -277 74q-123 0 -223 -45t-171 -125t-108.5 -190.5t-37.5 -239.5zM498 160q59 -37 130.5 -57.5t153.5 -20.5q123 0 222.5 45t170 126t109.5 190.5t39 238.5q0 150 -50 271.5t-143 201.5z" />
<glyph unicode="&#xd9;" horiz-adv-x="1404" d="M170 524v842h119v-840q0 -209 105.5 -326.5t307.5 -117.5q203 0 308.5 117.5t105.5 326.5v840h119v-842q0 -254 -134.5 -401.5t-398.5 -147.5q-131 0 -230 39t-166.5 110t-101.5 172t-34 228zM387 1786h127l315 -295h-90z" />
<glyph unicode="&#xda;" horiz-adv-x="1404" d="M170 524v842h119v-840q0 -209 105.5 -326.5t307.5 -117.5q203 0 308.5 117.5t105.5 326.5v840h119v-842q0 -254 -134.5 -401.5t-398.5 -147.5q-131 0 -230 39t-166.5 110t-101.5 172t-34 228zM580 1491l315 295h127l-352 -295h-90z" />
<glyph unicode="&#xdb;" horiz-adv-x="1404" d="M170 524v842h119v-840q0 -209 105.5 -326.5t307.5 -117.5q203 0 308.5 117.5t105.5 326.5v840h119v-842q0 -254 -134.5 -401.5t-398.5 -147.5q-131 0 -230 39t-166.5 110t-101.5 172t-34 228zM455 1491l198 295h111l203 -295h-82l-176 231l-172 -231h-82z" />
<glyph unicode="&#xdc;" horiz-adv-x="1404" d="M170 524v842h119v-840q0 -209 105.5 -326.5t307.5 -117.5q203 0 308.5 117.5t105.5 326.5v840h119v-842q0 -254 -134.5 -401.5t-398.5 -147.5q-131 0 -230 39t-166.5 110t-101.5 172t-34 228zM420 1575q0 31 22.5 53.5t53.5 22.5t53 -22.5t22 -53.5t-22.5 -53.5 t-52.5 -22.5q-31 0 -53.5 22.5t-22.5 53.5zM838 1575q0 31 22.5 53.5t52.5 22.5q31 0 53.5 -22.5t22.5 -53.5t-22.5 -53.5t-53.5 -22.5t-53 22.5t-22 53.5z" />
<glyph unicode="&#xdd;" horiz-adv-x="1265" d="M31 1366h141l461 -672l461 672h141l-543 -782v-584h-119v584zM520 1491l316 295h127l-353 -295h-90z" />
<glyph unicode="&#xde;" horiz-adv-x="1169" d="M170 0v1366h117v-254h395q98 0 175 -32.5t129 -88t80 -128t28 -152.5t-28 -153t-81 -127t-129 -86t-174 -32h-395v-313h-117zM287 420h383q68 0 124 21.5t95 60.5t60.5 92t21.5 117q0 63 -21.5 117.5t-60.5 94.5t-95.5 61.5t-123.5 21.5h-383v-586z" />
<glyph unicode="&#xdf;" horiz-adv-x="2043" d="M80 156l70 80q53 -61 148 -111.5t216 -50.5q84 0 142.5 19.5t94 50t52 71.5t16.5 84q0 82 -52 126t-130 71.5t-170 47t-170 53.5t-130 90t-52 157q0 70 30.5 126t83 96t124 62.5t151.5 22.5q135 0 234.5 -44t168.5 -118l-65 -78q-63 74 -151.5 108t-186.5 34 q-57 0 -107.5 -15.5t-87.5 -43t-57.5 -65.5t-20.5 -83q0 -70 52.5 -108t131.5 -63.5t170 -47t170 -58.5t131 -99t52 -169q0 -66 -24.5 -125t-77 -104t-133 -71t-191.5 -26q-145 0 -256 51.5t-176 129.5zM1102 156l70 80q53 -61 148 -111.5t216 -50.5q84 0 142.5 19.5t94 50 t52 71.5t16.5 84q0 82 -52 126t-130 71.5t-170 47t-170 53.5t-130 90t-52 157q0 70 30.5 126t83 96t124 62.5t151.5 22.5q135 0 234.5 -44t168.5 -118l-65 -78q-63 74 -151.5 108t-186.5 34q-57 0 -107.5 -15.5t-87.5 -43t-57.5 -65.5t-20.5 -83q0 -70 52.5 -108 t131.5 -63.5t170 -47t170 -58.5t131 -99t52 -169q0 -66 -24.5 -125t-77 -104t-133 -71t-191.5 -26q-145 0 -256 51.5t-176 129.5z" />
<glyph unicode="&#xe0;" horiz-adv-x="1150" d="M25 0l485 1126h131l485 -1126h-127l-118 272h-613l-114 -272h-129zM256 1536h127l315 -295h-90zM305 373h539l-269 631z" />
<glyph unicode="&#xe1;" horiz-adv-x="1150" d="M25 0l485 1126h131l485 -1126h-127l-118 272h-613l-114 -272h-129zM305 373h539l-269 631zM457 1241l315 295h127l-352 -295h-90z" />
<glyph unicode="&#xe2;" horiz-adv-x="1150" d="M25 0l485 1126h131l485 -1126h-127l-118 272h-613l-114 -272h-129zM305 373h539l-269 631zM324 1241l198 295h111l203 -295h-82l-176 232l-172 -232h-82z" />
<glyph unicode="&#xe3;" horiz-adv-x="1150" d="M25 0l485 1126h131l485 -1126h-127l-118 272h-613l-114 -272h-129zM262 1249q0 57 12.5 107.5t37 87.5t59.5 58.5t82 21.5q57 0 88.5 -33t55.5 -72t47.5 -71.5t64.5 -32.5q47 0 78.5 46t31.5 150h72q0 -57 -12.5 -107t-36 -87t-59.5 -58.5t-83 -21.5q-57 0 -88.5 33 t-55.5 71.5t-47.5 71.5t-64.5 33q-47 0 -78.5 -46t-31.5 -151h-72zM305 373h539l-269 631z" />
<glyph unicode="&#xe4;" horiz-adv-x="1150" d="M25 0l485 1126h131l485 -1126h-127l-118 272h-613l-114 -272h-129zM291 1339q0 31 22.5 53.5t53.5 22.5t53 -22.5t22 -53.5t-22.5 -53t-52.5 -22q-31 0 -53.5 22.5t-22.5 52.5zM305 373h539l-269 631zM709 1339q0 31 22.5 53.5t52.5 22.5q31 0 53.5 -22.5t22.5 -53.5 t-22.5 -53t-53.5 -22t-53 22.5t-22 52.5z" />
<glyph unicode="&#xe5;" horiz-adv-x="1150" d="M25 0l485 1126h131l485 -1126h-127l-118 272h-613l-114 -272h-129zM305 373h539l-269 631zM381 1440q0 82 57.5 139t139.5 57q39 0 74.5 -15t62 -42t42 -62.5t15.5 -76.5t-15.5 -76t-42 -62.5t-62 -43t-74.5 -15.5q-41 0 -77 15.5t-62.5 43t-42 62.5t-15.5 76zM446 1440 q0 -53 39.5 -92t92.5 -39t91 38.5t38 92.5q0 53 -38 92t-91 39t-92.5 -39t-39.5 -92z" />
<glyph unicode="&#xe6;" horiz-adv-x="1660" d="M25 0l727 1126h794v-100h-641v-397h629v-101h-629v-428h641v-100h-755v272h-465l-172 -272h-129zM385 373h406v631z" />
<glyph unicode="&#xe7;" horiz-adv-x="1189" d="M111 565q0 129 46 237.5t125.5 185.5t188.5 120t234 43q141 0 247.5 -55.5t184.5 -153.5l-88 -55q-57 78 -148.5 121t-195.5 43q-100 0 -187.5 -36t-152 -100.5t-101.5 -153.5t-37 -196q0 -106 37 -196t101.5 -154.5t151.5 -101.5t188 -37q104 0 197 44t147 120l90 -56 q-76 -92 -174.5 -146t-227.5 -61l-35 -92q33 23 76 23q59 0 97 -37t38 -98q0 -72 -60 -116t-146 -44q-61 0 -115.5 17.5t-83.5 41.5l35 66q37 -31 79 -44t83 -13q53 0 93 24.5t40 67.5q0 37 -20.5 59.5t-61.5 22.5q-51 0 -84 -37l-56 32l46 127q-117 6 -218.5 52.5t-175 123 t-115.5 182t-42 230.5z" />
<glyph unicode="&#xe8;" horiz-adv-x="1034" d="M166 0v1126h754v-100h-641v-397h630v-101h-630v-428h641v-100h-754zM229 1536h127l316 -295h-90z" />
<glyph unicode="&#xe9;" horiz-adv-x="1034" d="M166 0v1126h754v-100h-641v-397h630v-101h-630v-428h641v-100h-754zM428 1241l315 295h127l-352 -295h-90z" />
<glyph unicode="&#xea;" horiz-adv-x="1034" d="M166 0v1126h754v-100h-641v-397h630v-101h-630v-428h641v-100h-754zM295 1241l199 295h110l203 -295h-82l-176 232l-172 -232h-82z" />
<glyph unicode="&#xeb;" horiz-adv-x="1034" d="M166 0v1126h754v-100h-641v-397h630v-101h-630v-428h641v-100h-754zM256 1339q0 31 22.5 53.5t53.5 22.5t53.5 -22.5t22.5 -53.5t-23 -53t-53 -22q-31 0 -53.5 22.5t-22.5 52.5zM674 1339q0 31 22.5 53.5t53.5 22.5t53 -22.5t22 -53.5t-22.5 -53t-52.5 -22 q-31 0 -53.5 22.5t-22.5 52.5z" />
<glyph unicode="&#xec;" horiz-adv-x="440" d="M-98 1536h127l315 -295h-90zM166 0v1126h113v-1126h-113z" />
<glyph unicode="&#xed;" horiz-adv-x="440" d="M102 1241l316 295h127l-352 -295h-91zM166 0v1126h113v-1126h-113z" />
<glyph unicode="&#xee;" horiz-adv-x="440" d="M-33 1241l199 295h110l203 -295h-82l-176 232l-172 -232h-82zM166 0v1126h113v-1126h-113z" />
<glyph unicode="&#xef;" horiz-adv-x="440" d="M-61 1339q0 31 22.5 53.5t52.5 22.5q31 0 53.5 -22.5t22.5 -53.5t-22.5 -53t-53.5 -22t-53 22.5t-22 52.5zM166 0v1126h113v-1126h-113zM356 1339q0 31 22.5 53.5t53.5 22.5t53.5 -22.5t22.5 -53.5t-22.5 -53t-53.5 -22t-53.5 22.5t-22.5 52.5z" />
<glyph unicode="&#xf0;" horiz-adv-x="1273" d="M23 532v80h139v514h379q137 0 247.5 -45t188.5 -121.5t119 -179t41 -219.5t-41 -219t-119 -178t-188.5 -120t-247.5 -44h-379v532h-139zM274 100h267q115 0 204 36t149 98.5t92 146.5t32 180t-31 181t-91 147.5t-149.5 99.5t-205.5 37h-267v-414h291v-80h-291v-432z" />
<glyph unicode="&#xf1;" horiz-adv-x="1280" d="M166 0v1126h115l720 -936v936h113v-1126h-110l-725 950v-950h-113zM324 1249q0 57 12 107.5t36.5 87.5t59.5 58.5t82 21.5q57 0 89 -33t55.5 -72t47 -71.5t64.5 -32.5q47 0 79 46t32 150h71q0 -57 -12 -107t-35.5 -87t-59.5 -58.5t-83 -21.5q-57 0 -89 33t-55.5 71.5 t-47 71.5t-64.5 33q-47 0 -79 -46t-32 -151h-71z" />
<glyph unicode="&#xf2;" horiz-adv-x="1363" d="M111 563q0 123 39.5 230.5t114.5 187.5t180.5 125t236.5 45q129 0 234.5 -45t180 -125t115.5 -187.5t41 -230.5t-41 -230.5t-115.5 -186t-180 -125t-234.5 -46.5q-131 0 -236.5 46.5t-180.5 125t-114.5 186t-39.5 230.5zM227 563q0 -104 32 -193t91.5 -154.5 t143.5 -102.5t188 -37q102 0 186 37t143.5 102.5t92.5 154.5t33 193t-33 194.5t-92.5 155t-143.5 101.5t-186 37q-104 0 -188 -37t-143.5 -101.5t-91.5 -154.5t-32 -195zM362 1536h127l316 -295h-90z" />
<glyph unicode="&#xf3;" horiz-adv-x="1363" d="M111 563q0 123 39.5 230.5t114.5 187.5t180.5 125t236.5 45q129 0 234.5 -45t180 -125t115.5 -187.5t41 -230.5t-41 -230.5t-115.5 -186t-180 -125t-234.5 -46.5q-131 0 -236.5 46.5t-180.5 125t-114.5 186t-39.5 230.5zM227 563q0 -104 32 -193t91.5 -154.5 t143.5 -102.5t188 -37q102 0 186 37t143.5 102.5t92.5 154.5t33 193t-33 194.5t-92.5 155t-143.5 101.5t-186 37q-104 0 -188 -37t-143.5 -101.5t-91.5 -154.5t-32 -195zM565 1241l316 295h127l-353 -295h-90z" />
<glyph unicode="&#xf4;" horiz-adv-x="1363" d="M111 563q0 123 39.5 230.5t114.5 187.5t180.5 125t236.5 45q129 0 234.5 -45t180 -125t115.5 -187.5t41 -230.5t-41 -230.5t-115.5 -186t-180 -125t-234.5 -46.5q-131 0 -236.5 46.5t-180.5 125t-114.5 186t-39.5 230.5zM227 563q0 -104 32 -193t91.5 -154.5 t143.5 -102.5t188 -37q102 0 186 37t143.5 102.5t92.5 154.5t33 193t-33 194.5t-92.5 155t-143.5 101.5t-186 37q-104 0 -188 -37t-143.5 -101.5t-91.5 -154.5t-32 -195zM430 1241l199 295h110l203 -295h-82l-176 232l-172 -232h-82z" />
<glyph unicode="&#xf5;" horiz-adv-x="1363" d="M111 563q0 123 39.5 230.5t114.5 187.5t180.5 125t236.5 45q129 0 234.5 -45t180 -125t115.5 -187.5t41 -230.5t-41 -230.5t-115.5 -186t-180 -125t-234.5 -46.5q-131 0 -236.5 46.5t-180.5 125t-114.5 186t-39.5 230.5zM227 563q0 -104 32 -193t91.5 -154.5 t143.5 -102.5t188 -37q102 0 186 37t143.5 102.5t92.5 154.5t33 193t-33 194.5t-92.5 155t-143.5 101.5t-186 37q-104 0 -188 -37t-143.5 -101.5t-91.5 -154.5t-32 -195zM373 1249q0 57 12 107.5t36.5 87.5t59.5 58.5t82 21.5q57 0 89 -33t55.5 -72t47 -71.5t64.5 -32.5 q47 0 79 46t32 150h71q0 -57 -12 -107t-35.5 -87t-59.5 -58.5t-83 -21.5q-57 0 -89 33t-55.5 71.5t-47 71.5t-64.5 33q-47 0 -79 -46t-32 -151h-71z" />
<glyph unicode="&#xf6;" horiz-adv-x="1363" d="M111 563q0 123 39.5 230.5t114.5 187.5t180.5 125t236.5 45q129 0 234.5 -45t180 -125t115.5 -187.5t41 -230.5t-41 -230.5t-115.5 -186t-180 -125t-234.5 -46.5q-131 0 -236.5 46.5t-180.5 125t-114.5 186t-39.5 230.5zM227 563q0 -104 32 -193t91.5 -154.5 t143.5 -102.5t188 -37q102 0 186 37t143.5 102.5t92.5 154.5t33 193t-33 194.5t-92.5 155t-143.5 101.5t-186 37q-104 0 -188 -37t-143.5 -101.5t-91.5 -154.5t-32 -195zM401 1339q0 31 22.5 53.5t53.5 22.5t53.5 -22.5t22.5 -53.5t-22.5 -53t-53.5 -22t-53.5 22.5 t-22.5 52.5zM819 1339q0 31 22.5 53.5t53.5 22.5t53.5 -22.5t22.5 -53.5t-22.5 -53t-53.5 -22t-53.5 22.5t-22.5 52.5z" />
<glyph unicode="&#xf7;" horiz-adv-x="1046" d="M59 647v86h928v-86h-928zM442 285q0 33 23.5 56.5t58.5 23.5q33 0 56.5 -23.5t23.5 -56.5q0 -35 -23.5 -58.5t-56.5 -23.5q-35 0 -58.5 23.5t-23.5 58.5zM442 1087q0 35 23.5 57.5t58.5 22.5q33 0 56.5 -22.5t23.5 -57.5q0 -33 -23.5 -57t-56.5 -24q-35 0 -58.5 24.5 t-23.5 56.5z" />
<glyph unicode="&#xf8;" horiz-adv-x="1363" d="M111 563q0 123 39.5 230.5t114.5 187.5t180.5 125t236.5 45q88 0 164 -21.5t141 -60.5l41 57h105l-78 -106q94 -80 146 -197.5t52 -259.5q0 -123 -41 -230.5t-115.5 -186t-180 -125t-234.5 -46.5q-92 0 -170 21.5t-143 62.5l-43 -59h-105l80 111q-92 82 -141 198.5 t-49 253.5zM227 563q0 -111 36 -204t102 -158l561 782q-109 68 -244 68q-104 0 -188 -37t-143.5 -101.5t-91.5 -155t-32 -194.5zM430 145q109 -69 252 -69q102 0 186 37t143.5 102.5t92.5 154.5t33 193q0 115 -38 209t-106 160z" />
<glyph unicode="&#xf9;" horiz-adv-x="1255" d="M166 430v696h113v-692q0 -168 89 -263t259 -95t260 95t90 263v692h113v-696q0 -211 -117 -333t-346 -122t-345 122t-116 333zM307 1536h127l316 -295h-91z" />
<glyph unicode="&#xfa;" horiz-adv-x="1255" d="M166 430v696h113v-692q0 -168 89 -263t259 -95t260 95t90 263v692h113v-696q0 -211 -117 -333t-346 -122t-345 122t-116 333zM512 1241l315 295h127l-352 -295h-90z" />
<glyph unicode="&#xfb;" horiz-adv-x="1255" d="M166 430v696h113v-692q0 -168 89 -263t259 -95t260 95t90 263v692h113v-696q0 -211 -117 -333t-346 -122t-345 122t-116 333zM373 1241l198 295h111l203 -295h-82l-176 232l-172 -232h-82z" />
<glyph unicode="&#xfc;" horiz-adv-x="1255" d="M166 430v696h113v-692q0 -168 89 -263t259 -95t260 95t90 263v692h113v-696q0 -211 -117 -333t-346 -122t-345 122t-116 333zM342 1339q0 31 22.5 53.5t53.5 22.5t53.5 -22.5t22.5 -53.5t-22.5 -53t-53.5 -22t-53.5 22.5t-22.5 52.5zM760 1339q0 31 22.5 53.5t53.5 22.5 t53 -22.5t22 -53.5t-22.5 -53t-52.5 -22q-31 0 -53.5 22.5t-22.5 52.5z" />
<glyph unicode="&#xfd;" horiz-adv-x="1103" d="M25 1126h135l397 -544l389 544h133l-467 -645v-481h-112v481zM436 1241l316 295h127l-353 -295h-90z" />
<glyph unicode="&#xfe;" horiz-adv-x="1042" d="M166 0v1126h113v-198h333q90 0 158 -27t112 -73t66.5 -106t22.5 -128t-22.5 -128t-66.5 -106.5t-112 -73t-158 -26.5h-333v-260h-113zM279 360h325q127 0 188.5 67t61.5 167t-61.5 166.5t-188.5 66.5h-325v-467z" />
<glyph unicode="&#xff;" horiz-adv-x="1103" d="M25 1126h135l397 -544l389 544h133l-467 -645v-481h-112v481zM272 1339q0 31 22.5 53.5t53.5 22.5t53.5 -22.5t22.5 -53.5t-22.5 -53t-53.5 -22t-53.5 22.5t-22.5 52.5zM690 1339q0 31 22.5 53.5t53.5 22.5t53.5 -22.5t22.5 -53.5t-22.5 -53t-53.5 -22t-53.5 22.5 t-22.5 52.5z" />
<glyph unicode="&#x152;" horiz-adv-x="2283" d="M119 682q0 150 47 279t133 223t207 148t270 54q78 0 155 -19t144.5 -58t123.5 -95.5t95 -132.5v285h867v-106h-748v-506h733v-107h-733v-541h748v-106h-867v285q-39 -76 -95 -134.5t-123.5 -97.5t-144.5 -58.5t-155 -19.5q-150 0 -270.5 54.5t-206.5 149.5t-133 224 t-47 279zM242 682q0 -129 37.5 -239.5t108.5 -190.5t171 -125t225 -45q172 0 308.5 92t201.5 279v460q-66 186 -202 276.5t-308 90.5q-125 0 -225 -45t-171 -125t-108.5 -189.5t-37.5 -238.5z" />
<glyph unicode="&#x153;" horiz-adv-x="1974" d="M111 563q0 123 39.5 230.5t112.5 187.5t176.5 125t232.5 45q141 0 252.5 -62.5t179.5 -191.5v229h756v-100h-643v-397h630v-101h-630v-428h643v-100h-756v231q-68 -129 -179.5 -192.5t-252.5 -63.5q-129 0 -232.5 45.5t-176.5 125t-112.5 187t-39.5 230.5zM227 563 q0 -104 32 -193t91.5 -154.5t144.5 -102.5t189 -37q139 0 253 74.5t167 240.5v346q-27 84 -71 143.5t-100 97.5t-119.5 55.5t-129.5 17.5q-104 0 -189 -37t-144.5 -101.5t-91.5 -154.5t-32 -195z" />
<glyph unicode="&#x178;" horiz-adv-x="1265" d="M31 1366h141l461 -672l461 672h141l-543 -782v-584h-119v584zM356 1575q0 31 22.5 53.5t53.5 22.5t53.5 -22.5t22.5 -53.5t-22.5 -53.5t-53.5 -22.5t-53.5 22.5t-22.5 53.5zM774 1575q0 31 22.5 53.5t53.5 22.5t53.5 -22.5t22.5 -53.5t-22.5 -53.5t-53.5 -22.5 t-53.5 22.5t-22.5 53.5z" />
<glyph unicode="&#x2c6;" horiz-adv-x="512" d="M0 1139l199 295h110l203 -295h-82l-176 231l-172 -231h-82z" />
<glyph unicode="&#x2dc;" horiz-adv-x="628" d="M0 1147q0 57 12.5 107.5t37 87t59 58t81.5 21.5q57 0 89 -32.5t55.5 -71.5t47.5 -72t64 -33q47 0 79 46.5t32 150.5h72q0 -57 -12.5 -107.5t-36 -87t-59.5 -58t-83 -21.5q-57 0 -89 32.5t-55.5 71.5t-47 71.5t-64.5 32.5q-47 0 -78.5 -46t-31.5 -150h-72z" />
<glyph unicode="&#x2000;" horiz-adv-x="905" />
<glyph unicode="&#x2001;" horiz-adv-x="1810" />
<glyph unicode="&#x2002;" horiz-adv-x="905" />
<glyph unicode="&#x2003;" horiz-adv-x="1810" />
<glyph unicode="&#x2004;" horiz-adv-x="603" />
<glyph unicode="&#x2005;" horiz-adv-x="452" />
<glyph unicode="&#x2006;" horiz-adv-x="301" />
<glyph unicode="&#x2007;" horiz-adv-x="301" />
<glyph unicode="&#x2008;" horiz-adv-x="226" />
<glyph unicode="&#x2009;" horiz-adv-x="362" />
<glyph unicode="&#x200a;" horiz-adv-x="100" />
<glyph unicode="&#x2010;" horiz-adv-x="614" d="M61 446v99h492v-99h-492z" />
<glyph unicode="&#x2011;" horiz-adv-x="614" d="M61 446v99h492v-99h-492z" />
<glyph unicode="&#x2012;" horiz-adv-x="614" d="M61 446v99h492v-99h-492z" />
<glyph unicode="&#x2013;" horiz-adv-x="1214" d="M61 446v99h1092v-99h-1092z" />
<glyph unicode="&#x2014;" horiz-adv-x="1705" d="M61 446v99h1584v-99h-1584z" />
<glyph unicode="&#x2018;" horiz-adv-x="448" d="M104 1108q0 86 44.5 160.5t103.5 117.5l59 -49q-49 -35 -81.5 -88t-36.5 -102q0 2 8 3t12 1q37 0 60.5 -24.5t23.5 -61.5q0 -35 -25.5 -61.5t-62.5 -26.5q-41 0 -73 34t-32 97z" />
<glyph unicode="&#x2019;" horiz-adv-x="448" d="M119 1026q49 35 81.5 88t37.5 103q0 -2 -8.5 -3.5t-12.5 -1.5q-37 0 -60.5 25t-23.5 61q0 35 25.5 61.5t62.5 26.5q41 0 73 -34t32 -97q0 -86 -44 -160.5t-104 -117.5z" />
<glyph unicode="&#x201a;" horiz-adv-x="448" d="M119 -201q49 35 81.5 88.5t37.5 100.5q-4 -2 -9 -2h-12q-37 0 -60.5 24.5t-23.5 61.5q0 35 25.5 61.5t62.5 26.5q41 0 73 -34t32 -97q0 -86 -44 -162t-104 -117z" />
<glyph unicode="&#x201c;" horiz-adv-x="739" d="M123 1108q0 86 43 160.5t102 117.5l62 -49q-49 -35 -83 -88t-38 -102q2 2 10 3t12 1q35 0 58.5 -24.5t23.5 -61.5q0 -35 -24.5 -61.5t-61.5 -26.5q-41 0 -72.5 34t-31.5 97zM414 1108q0 86 43 160.5t102 117.5l62 -49q-49 -35 -83 -88t-38 -102q2 2 9 3t13 1 q35 0 58.5 -24.5t23.5 -61.5q0 -35 -24.5 -61.5t-63.5 -26.5q-41 0 -71.5 34t-30.5 97z" />
<glyph unicode="&#x201d;" horiz-adv-x="739" d="M119 1026q49 35 81.5 88t37.5 103q0 -2 -8.5 -3.5t-12.5 -1.5q-37 0 -60.5 25t-23.5 61q0 35 25.5 61.5t62.5 26.5q41 0 73 -34t32 -97q0 -86 -44 -160.5t-104 -117.5zM408 1026q49 35 82.5 88t37.5 103q-2 -2 -9 -3.5t-13 -1.5q-35 0 -58.5 25t-23.5 61q0 35 24.5 61.5 t63.5 26.5q41 0 71.5 -34t30.5 -97q0 -86 -43 -160.5t-102 -117.5z" />
<glyph unicode="&#x201e;" horiz-adv-x="739" d="M119 -201q49 35 81.5 88.5t37.5 100.5q-4 -2 -9 -2h-12q-37 0 -60.5 24.5t-23.5 61.5q0 35 25.5 61.5t62.5 26.5q41 0 73 -34t32 -97q0 -86 -44 -162t-104 -117zM408 -201q49 35 82.5 88.5t37.5 100.5q-2 0 -9 -1t-13 -1q-35 0 -58.5 24.5t-23.5 61.5q0 35 24.5 61.5 t63.5 26.5q41 0 71.5 -34t30.5 -97q0 -86 -43 -162t-102 -117z" />
<glyph unicode="&#x2022;" horiz-adv-x="733" d="M158 496q0 43 16 81.5t45 67.5t68 45.5t82 16.5t81.5 -16.5t67.5 -45.5t45.5 -67.5t16.5 -81.5t-16.5 -81t-45.5 -67t-67.5 -45t-81.5 -16t-82 16t-68 45t-45 67t-16 81z" />
<glyph unicode="&#x2026;" horiz-adv-x="1345" d="M135 72q0 35 26.5 61.5t63.5 26.5t63.5 -26.5t26.5 -61.5q0 -37 -26.5 -63.5t-63.5 -26.5t-63.5 26.5t-26.5 63.5zM584 72q0 35 26.5 61.5t63.5 26.5t63.5 -26.5t26.5 -61.5q0 -37 -26.5 -63.5t-63.5 -26.5t-63.5 26.5t-26.5 63.5zM1032 72q0 35 26.5 61.5t63.5 26.5 t63.5 -26.5t26.5 -61.5q0 -37 -26.5 -63.5t-63.5 -26.5t-63.5 26.5t-26.5 63.5z" />
<glyph unicode="&#x202f;" horiz-adv-x="362" />
<glyph unicode="&#x2039;" horiz-adv-x="567" d="M61 498l328 362h117l-328 -362l328 -369h-117z" />
<glyph unicode="&#x203a;" horiz-adv-x="567" d="M61 129l328 369l-328 362h117l328 -362l-328 -369h-117z" />
<glyph unicode="&#x205f;" horiz-adv-x="452" />
<glyph unicode="&#x20ac;" horiz-adv-x="1249" d="M72 397v76h104q-6 43 -6 92v43.5t4 42.5h-102v78h118q25 96 79.5 174t129 133.5t167.5 85t198 29.5q141 0 247.5 -55.5t184.5 -153.5l-88 -55q-57 78 -148.5 121t-195.5 43q-80 0 -151.5 -22.5t-131 -64.5t-102.5 -101.5t-68 -133.5h539v-78h-557q-6 -43 -6 -86 q0 -49 6 -92h557v-76h-537q25 -74 68 -133t101.5 -101t130 -64.5t151.5 -22.5q104 0 197.5 44t146.5 120l90 -56q-80 -98 -186.5 -153.5t-247.5 -55.5q-104 0 -196.5 30t-168 85t-129 133t-80.5 174h-118z" />
<glyph unicode="&#x2122;" horiz-adv-x="929" d="M35 1313v53h311v-53h-127v-398h-57v398h-127zM420 915v451h88l131 -328l131 328h88v-451h-57v373l-154 -373h-16l-154 373v-373h-57z" />
<glyph unicode="&#x25fc;" horiz-adv-x="1126" d="M0 0v1126h1126v-1126h-1126z" />
</font>
</defs>
</svg>
