<?xml version="1.0" standalone="no"?>
<!DOCTYPE svg PUBLIC "-//W3C//DTD SVG 1.1//EN" "http://www.w3.org/Graphics/SVG/1.1/DTD/svg11.dtd" >
<svg xmlns="http://www.w3.org/2000/svg" xmlns:xlink="http://www.w3.org/1999/xlink" version="1.1">
<metadata></metadata>
<defs>
<font id="proxima_nova_scosfregular" horiz-adv-x="1347" >
<font-face units-per-em="2048" ascent="1618" descent="-430" />
<missing-glyph horiz-adv-x="530" />
<glyph unicode="&#xfb01;" horiz-adv-x="1474" d="M154 0v1126h782v-141h-621v-338h611v-141h-611v-506h-161zM1160 0v1126h161v-1126h-161z" />
<glyph unicode="&#xfb02;" horiz-adv-x="1943" d="M154 0v1126h782v-141h-621v-338h611v-141h-611v-506h-161zM1160 0v1126h161v-985h545v-141h-706z" />
<glyph horiz-adv-x="0" />
<glyph unicode="&#xd;" horiz-adv-x="0" />
<glyph horiz-adv-x="0" />
<glyph horiz-adv-x="0" />
<glyph unicode=" "  horiz-adv-x="530" />
<glyph unicode="&#x09;" horiz-adv-x="530" />
<glyph unicode="&#xa0;" horiz-adv-x="530" />
<glyph unicode="!" horiz-adv-x="376" d="M76 92q0 45 32.5 79t79.5 34t80 -34t33 -79q0 -47 -32.5 -79.5t-80.5 -32.5q-47 0 -79.5 32.5t-32.5 79.5zM100 1126h176l-28 -786h-119z" />
<glyph unicode="&#x22;" horiz-adv-x="704" d="M111 1292q0 39 26.5 66.5t65.5 27.5q41 0 67.5 -27.5t26.5 -66.5q0 -6 -2 -27.5t-6 -54t-9.5 -72.5t-11.5 -81q-12 -96 -26 -213h-76q-16 117 -29 213q-6 41 -10 81t-8 72.5t-6 54t-2 27.5zM408 1292q0 39 26.5 66.5t67.5 27.5q39 0 65.5 -27.5t26.5 -66.5q0 -6 -2 -27.5 t-6 -54t-9.5 -72.5t-11.5 -81q-12 -96 -26 -213h-76q-16 117 -29 213q-6 41 -10 81t-8 72.5t-6 54t-2 27.5z" />
<glyph unicode="#" horiz-adv-x="1015" d="M45 326l31 96h176l96 289h-178l29 96h180l108 319h117l-108 -319h182l110 319h117l-110 -319h178l-29 -96h-180l-96 -289h182l-31 -96h-184l-109 -326h-116l108 326h-184l-109 -326h-116l108 326h-172zM367 422h184l94 289h-180z" />
<glyph unicode="$" horiz-adv-x="1032" d="M66 152l86 120q49 -53 128.5 -98t180.5 -57v403q-68 16 -131.5 38t-114.5 56.5t-82 87t-31 129.5q0 63 27 119t75 98t113.5 68.5t143.5 32.5v137h121v-139q113 -10 198.5 -51t151.5 -107l-84 -112q-53 55 -123 86.5t-143 42.5v-357q68 -18 135 -40.5t121.5 -60.5 t87 -94.5t32.5 -140.5q0 -133 -92 -226t-284 -110v-129h-121v129q-131 10 -232.5 57.5t-162.5 117.5zM268 834q0 -33 14.5 -56.5t41 -41t61.5 -31t76 -25.5v328q-86 -10 -139.5 -57t-53.5 -117zM582 117q115 14 164 68t49 122q0 78 -61.5 117t-151.5 65v-372z" />
<glyph unicode="%" horiz-adv-x="1212" d="M53 870q0 59 19.5 110.5t54.5 89.5t84 59.5t108 21.5q61 0 110.5 -21.5t85.5 -59.5t55.5 -89.5t19.5 -110.5t-19.5 -110t-55.5 -88t-85 -58.5t-111 -21.5q-59 0 -108 21.5t-84 58.5t-54.5 88t-19.5 110zM158 870q0 -80 45 -134t116 -54q74 0 119 54t45 134t-45 135.5 t-119 55.5q-72 0 -116.5 -55.5t-44.5 -135.5zM160 0l782 1126h111l-787 -1126h-106zM623 256q0 59 19.5 110.5t55 89.5t84.5 59.5t109 21.5q59 0 108.5 -21.5t85 -59.5t55 -89.5t19.5 -110.5t-19.5 -110.5t-55 -88.5t-85 -58.5t-108.5 -21.5t-108.5 21.5t-85 58.5t-55 88.5 t-19.5 110.5zM727 256q0 -80 45 -134t119 -54t119 55t45 133q0 82 -45 136t-119 54t-119 -54t-45 -136z" />
<glyph unicode="&#x26;" horiz-adv-x="1138" d="M55 297q0 66 21.5 117t56.5 91t82 70.5t98 57.5q-41 66 -64.5 128t-23.5 122q0 57 23.5 107t64.5 85t96.5 55.5t118.5 20.5q55 0 104.5 -14.5t87.5 -43t59.5 -70.5t21.5 -99q0 -66 -25.5 -113t-68.5 -84t-97.5 -66.5t-109.5 -56.5q31 -39 65.5 -77t69.5 -74 q37 -41 70.5 -77t68.5 -71q82 123 123 256l121 -49q-35 -82 -73 -155.5t-85 -137.5q53 -51 110.5 -103.5t127.5 -115.5h-195q-33 29 -64.5 58.5t-66.5 60.5q-72 -66 -156 -104t-188 -38q-80 0 -148.5 21.5t-117.5 62.5t-78 100.5t-29 135.5zM205 307q0 -94 66.5 -155.5 t170.5 -61.5q70 0 130.5 30t113.5 81q-47 47 -88 89t-70 77q-88 94 -151 176q-72 -41 -122 -95.5t-50 -140.5zM367 881q0 -43 19.5 -91.5t51.5 -97.5q47 20 89 43t74 49.5t50.5 59.5t18.5 74q0 61 -39 92.5t-99 31.5q-74 0 -119.5 -46.5t-45.5 -114.5z" />
<glyph unicode="'" horiz-adv-x="407" d="M111 1292q0 39 26.5 66.5t65.5 27.5q41 0 67.5 -27.5t26.5 -66.5q0 -6 -2 -27.5t-6 -54t-9.5 -72.5t-11.5 -81q-12 -96 -26 -213h-76q-16 117 -29 213q-6 41 -10 81t-8 72.5t-6 54t-2 27.5z" />
<glyph unicode="(" horiz-adv-x="507" d="M90 498q0 248 75 480t214 425l94 -70q-49 -98 -89 -192t-67.5 -194.5t-43 -210t-15.5 -238.5q0 -127 15.5 -237.5t43 -210t67.5 -195t89 -191.5l-94 -72q-139 193 -214 425.5t-75 480.5z" />
<glyph unicode=")" horiz-adv-x="507" d="M35 -336q49 96 89 191.5t67.5 195t43 210t15.5 237.5q0 129 -15.5 238.5t-43 210t-67.5 194.5t-89 192l94 70q139 -193 214 -425.5t75 -479.5q0 -248 -75 -480.5t-214 -425.5z" />
<glyph unicode="*" horiz-adv-x="696" d="M70 985l209 107l-209 106l45 82l198 -129l-12 235h94l-12 -235l197 129l47 -82l-209 -106l209 -107l-47 -80l-197 127l12 -235h-94l12 235l-198 -127z" />
<glyph unicode="+" horiz-adv-x="1021" d="M59 637v106h394v424h116v-424h394v-106h-394v-436h-116v436h-394z" />
<glyph unicode="," horiz-adv-x="471" d="M117 -197q49 33 88 86.5t45 104.5q-8 -4 -29 -4q-41 0 -69.5 29.5t-28.5 74.5t30.5 78t77.5 33q53 0 91 -41t38 -115q0 -94 -47 -176t-118 -133z" />
<glyph unicode="-" horiz-adv-x="614" d="M61 428v135h492v-135h-492z" />
<glyph unicode="." horiz-adv-x="473" d="M123 92q0 47 32.5 80t80.5 33q47 0 79.5 -33t32.5 -80t-32.5 -79.5t-79.5 -32.5t-80 32.5t-33 79.5z" />
<glyph unicode="/" horiz-adv-x="606" d="M0 -41l485 1448h121l-485 -1448h-121z" />
<glyph unicode="0" horiz-adv-x="1253" d="M104 563q0 111 31 216.5t94.5 188.5t161.5 133t236 50q137 0 235.5 -50t161.5 -133t94 -188.5t31 -216.5t-31 -216t-94 -188t-161.5 -133.5t-235.5 -50.5t-235.5 50.5t-162 133.5t-94.5 188.5t-31 215.5zM279 563q0 -82 19 -160.5t62 -140t109 -98.5t158 -37t157.5 37 t108.5 98.5t62.5 140t19.5 160.5t-19.5 161t-61.5 140.5t-108.5 98t-158.5 36.5t-158 -36.5t-109 -98t-62 -140.5t-19 -161z" />
<glyph unicode="1" horiz-adv-x="694" d="M43 774l342 352h150v-1126h-170v903l-220 -233z" />
<glyph unicode="2" horiz-adv-x="1183" d="M92 936q80 104 212 159.5t278 55.5q94 0 176 -25.5t142.5 -73.5t94 -117t33.5 -153q0 -92 -46 -182t-126 -172t-187.5 -152.5t-232.5 -123.5h570v-152h-883v137q381 156 557 315.5t176 307.5q0 53 -21.5 97t-59.5 76t-89 49t-108 17q-121 0 -220.5 -46t-160.5 -126z" />
<glyph unicode="3" horiz-adv-x="1132" d="M51 -39l101 107q59 -80 158.5 -130.5t221.5 -50.5q150 0 235 70t85 186q0 63 -24.5 109.5t-69.5 75t-107.5 43t-138.5 14.5h-84t-57 -2v156q16 -2 58 -2h83q63 0 121.5 13t101.5 40.5t68.5 69.5t25.5 102q0 57 -24.5 100t-65.5 73t-97 45t-118 15q-113 0 -198.5 -42 t-161.5 -124l-94 107q74 92 191.5 151.5t277.5 59.5q98 0 182 -24.5t146.5 -70.5t97 -114t34.5 -154q0 -74 -27.5 -130t-70.5 -95t-95 -61.5t-99 -30.5q45 -4 100 -26.5t103 -64.5t80 -103.5t32 -143.5q0 -86 -34 -157.5t-96.5 -124t-152 -82t-202.5 -29.5q-174 0 -298 66.5 t-188 158.5z" />
<glyph unicode="4" horiz-adv-x="1142" d="M66 113v141l585 872h234v-864h192v-149h-192v-353h-170v353h-649zM236 262h479v707z" />
<glyph unicode="5" horiz-adv-x="1208" d="M135 -45l105 115q68 -88 160 -135.5t216 -47.5q70 0 128.5 22.5t99.5 61.5t64.5 93.5t23.5 115.5q0 68 -23.5 122t-64.5 93t-98.5 59.5t-127.5 20.5q-90 0 -167.5 -30.5t-147.5 -96.5l-125 43v735h836v-151h-666v-475q51 49 133 86t187 37q86 0 164.5 -29t139 -84 t96.5 -136t36 -188q0 -104 -38 -187t-103.5 -141.5t-155 -90t-191.5 -31.5q-174 0 -288.5 58.5t-192.5 160.5z" />
<glyph unicode="6" horiz-adv-x="1210" d="M104 682q0 137 33 265t101.5 225.5t173 155.5t250.5 58q131 0 222 -45t154 -118l-86 -127q-53 61 -118.5 100t-171.5 39q-100 0 -173 -46t-120 -122t-70 -172t-23 -197v-53q23 35 61 73t89 68.5t111.5 51t126.5 20.5q92 0 173 -27.5t142 -82t96 -136.5t35 -190 q0 -88 -33 -169t-94 -142.5t-150 -98.5t-200 -37q-143 0 -243.5 58.5t-164 156t-92.5 225.5t-29 267zM283 508q6 -63 26.5 -131t60.5 -123t102.5 -91t152.5 -36q80 0 138 26.5t97 68.5t58.5 93.5t19.5 100.5q0 76 -24.5 131t-66.5 92t-99.5 54.5t-122.5 17.5 q-104 0 -195.5 -56.5t-146.5 -146.5z" />
<glyph unicode="7" horiz-adv-x="1054" d="M63 975v151h932v-116l-559 -1250h-188l551 1215h-736z" />
<glyph unicode="8" horiz-adv-x="1191" d="M106 346q0 68 27 125t72 103.5t104.5 79t122.5 51.5q-59 16 -113.5 44.5t-96.5 68.5t-67.5 93.5t-25.5 120.5q0 92 41 158.5t107.5 111t149.5 64.5t169 20q84 0 168 -20t150.5 -64.5t108.5 -111t42 -158.5q0 -68 -25.5 -121t-67.5 -93t-97.5 -68.5t-114.5 -44.5 q63 -18 122.5 -51t104.5 -79.5t71.5 -103.5t26.5 -125q0 -86 -38.5 -155.5t-105.5 -116.5t-156 -73t-189 -26q-102 0 -191.5 25t-155 73t-104.5 116.5t-39 156.5zM279 365q0 -55 25.5 -99.5t69.5 -75t101.5 -47t120.5 -16.5t120.5 16.5t101.5 47t69.5 74.5t25.5 100 q0 68 -37.5 115.5t-89 79.5t-105.5 48.5t-85 20.5q-31 -4 -85 -20.5t-105.5 -48.5t-89 -80t-37.5 -115zM301 1010q0 -61 35 -104.5t82 -71t97 -41t81 -19.5q31 6 82 19.5t98 41t82 70.5t35 105q0 53 -23.5 95t-63.5 70.5t-94.5 44t-115.5 15.5t-115.5 -15.5t-94.5 -44 t-62.5 -70.5t-22.5 -95z" />
<glyph unicode="9" horiz-adv-x="1210" d="M100 702q0 88 33 169t94.5 142.5t150.5 98.5t202 37q143 0 243.5 -58.5t164 -155.5t92 -225t28.5 -268q0 -139 -33 -266t-101.5 -224t-174 -155.5t-248.5 -58.5q-131 0 -222 46t-157 118l86 127q53 -61 119.5 -100.5t173.5 -39.5q104 0 177 47.5t119 124t67.5 172 t21.5 193.5v25.5t-2 27.5q-23 -35 -60.5 -72.5t-89 -68.5t-111 -51.5t-124.5 -20.5q-92 0 -174 28t-142.5 82t-96.5 136t-36 190zM272 709q0 -76 25 -131.5t68 -92t100 -54t123 -17.5q102 0 194 56t148 148q-6 63 -27.5 130t-61.5 122.5t-103.5 91t-151.5 35.5 q-78 0 -137.5 -26.5t-98.5 -68.5t-58.5 -93t-19.5 -100z" />
<glyph unicode=":" horiz-adv-x="460" d="M123 92q0 47 32.5 80t80.5 33q47 0 79.5 -33t32.5 -80t-32.5 -79.5t-79.5 -32.5t-80 32.5t-33 79.5zM123 891q0 47 32.5 80t80.5 33q47 0 79.5 -33t32.5 -80q0 -45 -32.5 -79t-79.5 -34t-80 34t-33 79z" />
<glyph unicode=";" horiz-adv-x="471" d="M117 -195q49 33 88 87.5t45 105.5q-8 -4 -29 -4q-41 0 -69.5 28.5t-28.5 75.5q0 45 30.5 78t77.5 33q53 0 91 -41t38 -115q0 -96 -47 -177t-118 -132zM123 891q0 47 32.5 80t80.5 33q47 0 79.5 -33t32.5 -80q0 -45 -32.5 -79t-79.5 -34t-80 34t-33 79z" />
<glyph unicode="&#x3c;" horiz-adv-x="1021" d="M59 631v108l904 449v-129l-773 -375l773 -371v-129z" />
<glyph unicode="=" horiz-adv-x="1021" d="M59 432v109h904v-109h-904zM59 827v109h904v-109h-904z" />
<glyph unicode="&#x3e;" horiz-adv-x="1021" d="M59 184v129l772 371l-772 375v129l904 -449v-108z" />
<glyph unicode="?" horiz-adv-x="811" d="M20 969q66 84 164.5 132t225.5 48q82 0 148.5 -20.5t111.5 -56.5t69.5 -83t24.5 -100q0 -63 -25.5 -108.5t-63.5 -80t-83 -62.5t-83 -54.5t-63.5 -56t-25.5 -66.5q0 -18 11 -39t42 -43l-117 -49q-41 33 -57 67.5t-16 67.5q0 51 23.5 89t60 67.5t77.5 55t78 52.5 t60.5 58.5t23.5 74.5q0 66 -54 109t-155 43q-104 0 -173.5 -39t-121.5 -103zM279 92q0 47 32.5 80t79.5 33t80 -33t33 -80t-33 -79.5t-80 -32.5t-79.5 32.5t-32.5 79.5z" />
<glyph unicode="@" horiz-adv-x="1603" d="M72 500q0 166 67.5 312t179 257t259 174.5t307.5 63.5q145 0 264 -51.5t204 -139.5t131 -205.5t46 -253.5q0 -121 -31 -211t-82 -150t-114.5 -91t-126.5 -31q-86 0 -134.5 50t-52.5 116v14q-53 -78 -140 -129t-185 -51q-143 0 -228.5 92t-85.5 242q0 106 41 200.5 t108.5 164t154.5 109.5t177 40q100 0 167 -47t96 -113l26 127h140l-117 -555q-2 -10 -3 -21.5t-1 -21.5q0 -51 27.5 -78.5t68.5 -27.5q31 0 68.5 18.5t72.5 61.5t58.5 114.5t23.5 177.5q0 125 -42 231.5t-117.5 184.5t-182 121t-237.5 43q-150 0 -283 -60.5t-233.5 -162 t-160 -234.5t-59.5 -276q0 -123 44 -228.5t122 -184.5t185.5 -123t234.5 -44q111 0 204 31t177 84l37 -53q-96 -61 -203.5 -95t-222.5 -34q-139 0 -258 49t-206 136t-136 205t-49 253zM498 516q0 -98 54.5 -162.5t154.5 -64.5q51 0 97 16.5t84 43t68.5 59t53.5 65.5l59 285 q-8 25 -25.5 50.5t-43 48t-61.5 36.5t-81 14q-78 0 -143.5 -32.5t-113.5 -88t-75.5 -126t-27.5 -144.5z" />
<glyph unicode="A" d="M18 0l551 1366h211l549 -1366h-194l-121 305h-680l-121 -305h-195zM385 455h580l-291 737z" />
<glyph unicode="B" horiz-adv-x="1288" d="M160 0v1366h608q88 0 159.5 -25.5t121 -71.5t76 -110.5t26.5 -140.5q0 -66 -19.5 -119t-53.5 -93t-77 -65.5t-90 -35.5q55 -8 103.5 -39t84.5 -76t57.5 -102.5t21.5 -118.5q0 -82 -27 -149.5t-78 -117t-123.5 -76t-167.5 -26.5h-622zM330 152h420q119 0 185 62t66 173 q0 47 -16 90t-48 75t-79 51.5t-108 19.5h-420v-471zM330 774h409q117 0 176.5 62.5t59.5 156.5q0 92 -59.5 156.5t-176.5 64.5h-409v-440z" />
<glyph unicode="C" horiz-adv-x="1384" d="M104 682q0 158 54.5 288t149.5 223t223 144.5t276 51.5q182 0 309 -77t209 -194l-141 -80q-59 88 -159.5 143.5t-217.5 55.5q-113 0 -209 -41t-167 -113.5t-110.5 -175t-39.5 -225.5q0 -121 39.5 -223.5t110.5 -176t167 -114.5t209 -41q117 0 217 56.5t160 142.5l143 -78 q-86 -119 -212 -196t-308 -77q-147 0 -275.5 51.5t-223.5 144.5t-149.5 223t-54.5 288z" />
<glyph unicode="D" horiz-adv-x="1433" d="M160 0v1366h467q160 0 288.5 -52t221 -144.5t141.5 -217.5t49 -270t-49 -270t-141.5 -216.5t-221.5 -143.5t-288 -52h-467zM330 152h297q125 0 222 42t164.5 113.5t102.5 167.5t35 207t-35 208t-101.5 168.5t-163.5 113.5t-224 42h-297v-1062z" />
<glyph unicode="E" horiz-adv-x="1165" d="M160 0v1366h895v-152h-725v-440h710v-151h-710v-471h725v-152h-895z" />
<glyph unicode="F" horiz-adv-x="1128" d="M160 0v1366h895v-152h-725v-440h710v-151h-710v-623h-170z" />
<glyph unicode="G" horiz-adv-x="1460" d="M104 682q0 160 55.5 290t151 223t223.5 143.5t273 50.5q184 0 312 -72t218 -182l-135 -86q-66 84 -169 136t-226 52q-113 0 -209 -41t-167 -113.5t-110.5 -175t-39.5 -225.5q0 -121 39.5 -223.5t110.5 -176t167 -114.5t209 -41q61 0 116.5 13.5t102.5 35t85 47t65 51.5 v277h-471v151h638v-491q-96 -109 -232 -173.5t-304 -64.5q-145 0 -273 51.5t-223.5 144.5t-151 223t-55.5 290z" />
<glyph unicode="H" horiz-adv-x="1458" d="M160 0v1366h170v-588h798v588h170v-1366h-170v627h-798v-627h-170z" />
<glyph unicode="I" horiz-adv-x="489" d="M160 0v1366h170v-1366h-170z" />
<glyph unicode="J" horiz-adv-x="972" d="M23 133l90 129q43 -53 104.5 -94t151.5 -41q127 0 200.5 79t73.5 208v952h170v-954q0 -111 -34 -193t-92 -136t-137 -81t-171 -27q-109 0 -197 37t-159 121z" />
<glyph unicode="K" horiz-adv-x="1230" d="M160 0v1366h170v-704l604 704h213l-569 -647l620 -719h-213l-518 614l-137 -155v-459h-170z" />
<glyph unicode="L" horiz-adv-x="1009" d="M137 0v1366h170v-1214h635v-152h-805z" />
<glyph unicode="M" horiz-adv-x="1656" d="M160 0v1366h243l426 -1053l424 1053h244v-1366h-170v1149l-463 -1149h-69l-465 1149v-1149h-170z" />
<glyph unicode="N" horiz-adv-x="1449" d="M160 0v1366h174l786 -1067v1067h170v-1366h-164l-796 1090v-1090h-170z" />
<glyph unicode="O" horiz-adv-x="1566" d="M104 682q0 152 49.5 281t138.5 224t214 148.5t276 53.5q152 0 277 -53.5t215 -148.5t139 -224t49 -281t-49 -281t-139 -224t-215 -148.5t-277 -53.5t-276.5 53.5t-213.5 148.5t-138.5 224t-49.5 281zM281 682q0 -119 34.5 -220.5t100 -176t158.5 -116.5t208 -42t208 42 t158.5 116.5t101.5 176t36 220.5t-36 221.5t-101.5 176t-158.5 115.5t-208 42t-208 -42t-158.5 -115.5t-100 -176t-34.5 -221.5z" />
<glyph unicode="P" horiz-adv-x="1202" d="M160 0v1366h549q102 0 182 -33t134 -89t83 -131t29 -159t-29 -158.5t-83 -131t-134 -89t-182 -32.5h-379v-543h-170zM330 694h358q123 0 198 72t75 188q0 117 -75 188.5t-198 71.5h-358v-520z" />
<glyph unicode="Q" horiz-adv-x="1566" d="M104 682q0 152 49.5 281t138.5 224t214 148.5t276 53.5q152 0 277 -53.5t215 -148.5t139 -224t49 -281q0 -154 -49 -282t-139 -224l129 -137l-117 -102l-133 141q-78 -49 -171.5 -76t-199.5 -27q-152 0 -276.5 53.5t-213.5 148.5t-138.5 224t-49.5 281zM281 682 q0 -119 34.5 -220.5t100 -176t158.5 -116.5t208 -42q145 0 260 70l-194 211l119 100l192 -209q59 74 93 171t34 212q0 119 -36 221.5t-101.5 176t-158.5 115.5t-208 42t-208 -42t-158.5 -115.5t-100 -176t-34.5 -221.5z" />
<glyph unicode="R" horiz-adv-x="1247" d="M160 0v1366h549q94 0 173 -28.5t136 -83t89 -130t32 -170.5q0 -92 -30 -163.5t-79 -120.5t-113.5 -78t-134.5 -35l369 -557h-201l-346 543h-274v-543h-170zM330 692h358q123 0 199 73t76 189q0 117 -76 188.5t-199 71.5h-358v-522z" />
<glyph unicode="S" horiz-adv-x="1200" d="M78 193l102 131q33 -39 77 -74t98.5 -62.5t118 -44t134.5 -16.5q92 0 153.5 22.5t98.5 56.5t53.5 76t16.5 83q0 66 -35 108.5t-91 71t-129 49t-149.5 41t-149.5 47.5t-129.5 69t-91 103t-34.5 154q0 84 36 154.5t98 120.5t148 78t189 28q156 0 276.5 -50.5t206.5 -142.5 l-102 -125q-78 86 -180.5 125t-214.5 39q-123 0 -202 -59.5t-79 -157.5q0 -57 35 -94t91 -63.5t129 -46t149.5 -41t149.5 -50.5t129 -74t91 -110.5t35 -161.5q0 -74 -26.5 -145.5t-87 -129t-157 -92.5t-233.5 -35q-178 0 -308 60.5t-216 157.5z" />
<glyph unicode="T" horiz-adv-x="1167" d="M66 1214v152h1036v-152h-434v-1214h-170v1214h-432z" />
<glyph unicode="U" horiz-adv-x="1435" d="M160 530v836h172v-831q0 -188 97 -298t288 -110q190 0 288.5 109.5t98.5 298.5v831h172v-834q0 -127 -35 -230t-105.5 -176t-175 -112t-243.5 -39t-242.5 40t-174.5 112t-105.5 174t-34.5 229z" />
<glyph unicode="V" d="M18 1366h195l461 -1180l461 1180h194l-549 -1366h-211z" />
<glyph unicode="W" horiz-adv-x="1808" d="M29 1366h188l303 -1139l314 1139h141l313 -1139l301 1139h191l-391 -1366h-185l-301 1102l-301 -1102h-184z" />
<glyph unicode="X" horiz-adv-x="1335" d="M25 0l532 700l-502 666h207l406 -545l403 545h209l-502 -664l533 -702h-207l-436 582l-437 -582h-206z" />
<glyph unicode="Y" horiz-adv-x="1282" d="M18 1366h199l424 -635l424 635h199l-537 -788v-578h-170v578z" />
<glyph unicode="Z" horiz-adv-x="1198" d="M98 0v141l768 1073h-768v152h987v-141l-770 -1073h785v-152h-1002z" />
<glyph unicode="[" horiz-adv-x="497" d="M82 -389v1778h381v-113h-260v-1552h260v-113h-381z" />
<glyph unicode="\" horiz-adv-x="606" d="M0 1407h121l485 -1448h-121z" />
<glyph unicode="]" horiz-adv-x="497" d="M35 -276h262v1552h-262v113h383v-1778h-383v113z" />
<glyph unicode="^" horiz-adv-x="884" d="M39 682l346 684h117l344 -684h-127l-277 571l-276 -571h-127z" />
<glyph unicode="_" horiz-adv-x="1155" d="M-6 -82h1167v-113h-1167v113z" />
<glyph unicode="`" horiz-adv-x="462" d="M0 1434h160l303 -295h-117z" />
<glyph unicode="a" horiz-adv-x="1171" d="M14 0l478 1126h190l475 -1126h-178l-105 246h-575l-104 -246h-181zM348 387h477l-237 571z" />
<glyph unicode="b" horiz-adv-x="1134" d="M154 0v1126h530q158 0 247 -79.5t89 -208.5q0 -102 -57.5 -168t-135.5 -88q45 -10 85 -37t69 -64t46 -82t17 -94q0 -137 -91 -221t-257 -84h-542zM315 141h359q96 0 149.5 48.5t53.5 132.5q0 37 -13.5 69.5t-39 58t-63.5 41t-87 15.5h-359v-365zM315 647h351q92 0 140 48 t48 120q0 78 -48 124t-140 46h-351v-338z" />
<glyph unicode="c" horiz-adv-x="1191" d="M96 565q0 129 46 237.5t127 185.5t190.5 120t238.5 43q152 0 263.5 -63.5t183.5 -167.5l-129 -72q-51 74 -135 118t-183 44q-92 0 -173 -33t-139 -92.5t-92 -140t-34 -179.5q0 -98 34 -180t92 -141.5t139 -93t173 -33.5q98 0 184.5 45t133.5 117l131 -72 q-76 -104 -186.5 -168t-262.5 -64q-129 0 -238.5 43t-190.5 121t-127 186.5t-46 239.5z" />
<glyph unicode="d" horiz-adv-x="1259" d="M154 0v1126h409q137 0 249 -43t189.5 -119.5t119.5 -180t42 -222.5q0 -121 -42 -223t-119.5 -177t-189.5 -118t-249 -43h-409zM315 141h248q104 0 185 33t136.5 90.5t84 134t28.5 162.5q0 88 -27.5 166t-83 135.5t-136 90t-187.5 32.5h-248v-844z" />
<glyph unicode="e" horiz-adv-x="1042" d="M154 0v1126h782v-141h-621v-338h611v-141h-611v-365h621v-141h-782z" />
<glyph unicode="f" horiz-adv-x="1005" d="M154 0v1126h782v-141h-621v-338h611v-141h-611v-506h-161z" />
<glyph unicode="g" horiz-adv-x="1282" d="M96 563q0 131 47 239.5t128 185.5t190.5 120t236.5 43q150 0 262.5 -57.5t190.5 -149.5l-125 -84q-55 66 -140 107t-188 41q-92 0 -172 -33t-138 -92.5t-92 -140t-34 -179.5q0 -96 34 -178t92 -141.5t138 -93t172 -33.5q104 0 181 38t120 78v220h-348v135h508v-416 q-84 -90 -202 -143.5t-259 -53.5q-127 0 -236.5 43t-190.5 120t-128 185.5t-47 239.5z" />
<glyph unicode="h" horiz-adv-x="1300" d="M154 0v1126h161v-477h674v477h158v-1126h-158v508h-674v-508h-161z" />
<glyph unicode="i" horiz-adv-x="468" d="M154 0v1126h161v-1126h-161z" />
<glyph unicode="j" horiz-adv-x="864" d="M16 115l78 116q37 -47 91.5 -80.5t127.5 -33.5q111 0 173.5 63.5t62.5 167.5v778h160v-790q0 -92 -30 -159.5t-81 -113t-121.5 -67t-152.5 -21.5q-193 0 -308 140z" />
<glyph unicode="k" horiz-adv-x="1093" d="M154 0v1126h161v-563l508 563h201l-496 -534l537 -592h-199l-442 498l-109 -119v-379h-161z" />
<glyph unicode="l" horiz-adv-x="937" d="M154 0v1126h161v-985h545v-141h-706z" />
<glyph unicode="m" horiz-adv-x="1472" d="M154 0v1126h219l362 -858l365 858h219v-1126h-160v909l-387 -909h-70l-387 909v-909h-161z" />
<glyph unicode="n" horiz-adv-x="1294" d="M154 0v1126h168l659 -860v860h160v-1126h-162l-666 877v-877h-159z" />
<glyph unicode="o" horiz-adv-x="1355" d="M96 563q0 125 42 232.5t118 186.5t183.5 124t238.5 45t238.5 -45t183.5 -124t118 -186.5t42 -232.5t-42 -232.5t-118 -186t-183.5 -124t-238.5 -45.5t-238.5 45.5t-183.5 124t-118 186t-42 232.5zM260 563q0 -96 29.5 -177t84 -141.5t131.5 -94t173 -33.5q94 0 172 33.5 t132 94t84 141.5t30 177t-30 178t-84 141.5t-132 93.5t-172 34q-96 0 -173 -34t-131.5 -93.5t-84 -141.5t-29.5 -178z" />
<glyph unicode="p" horiz-adv-x="1071" d="M154 0v1126h483q92 0 160.5 -27.5t116 -74.5t71 -109.5t23.5 -132.5t-23.5 -132t-70 -109t-116 -75t-161.5 -28h-322v-438h-161zM315 578h308q111 0 166 58t55 146q0 90 -56.5 146.5t-164.5 56.5h-308v-407z" />
<glyph unicode="q" horiz-adv-x="1355" d="M96 563q0 125 42 232.5t118 186.5t183.5 124t238.5 45t238.5 -45t183.5 -124t118 -186.5t42 -232.5q0 -127 -43 -235.5t-121 -188.5l104 -114l-100 -84l-109 116q-135 -82 -313 -82q-131 0 -238.5 45.5t-183.5 124t-118 186t-42 232.5zM260 563q0 -96 29.5 -177 t84 -141.5t131.5 -94t173 -33.5q119 0 213 53l-156 172l101 86l155 -172q49 59 77 137t28 170q0 96 -30 178t-84 141.5t-132 93.5t-172 34q-96 0 -173 -34t-131.5 -93.5t-84 -141.5t-29.5 -178z" />
<glyph unicode="r" horiz-adv-x="1116" d="M154 0v1126h483q88 0 157.5 -26.5t118 -72.5t73 -109.5t24.5 -135.5q0 -147 -85 -234t-220 -97l319 -451h-188l-295 438h-226v-438h-161zM315 578h308q111 0 166 57t55 147t-56.5 146.5t-164.5 56.5h-308v-407z" />
<glyph unicode="s" horiz-adv-x="1032" d="M66 152l86 120q57 -61 152 -109t216 -48q74 0 126 16t85 43t48.5 61.5t15.5 71.5q0 72 -51.5 111t-128 62.5t-167 44t-167 54t-128 92t-51.5 160.5q0 70 31 128.5t86 101.5t130 66.5t161 23.5q139 0 243.5 -43t178.5 -119l-84 -112q-66 70 -156 102.5t-182 32.5 q-106 0 -174 -50.5t-68 -127.5q0 -61 51.5 -94t128 -54.5t165.5 -43t166 -58.5t128 -100.5t51 -170.5q0 -72 -26.5 -133t-81.5 -107t-138 -72t-196 -26q-150 0 -265.5 50.5t-184.5 126.5z" />
<glyph unicode="t" horiz-adv-x="966" d="M53 985v141h858v-141h-348v-985h-160v985h-350z" />
<glyph unicode="u" horiz-adv-x="1275" d="M154 434v692h161v-682q0 -152 82 -239.5t240 -87.5t241 88t83 239v682h161v-692q0 -209 -121.5 -334t-363.5 -125q-121 0 -211 33t-150.5 93.5t-91 144.5t-30.5 188z" />
<glyph unicode="v" horiz-adv-x="1171" d="M14 1126h183l391 -948l391 948h178l-475 -1126h-190z" />
<glyph unicode="w" horiz-adv-x="1564" d="M20 1126h179l252 -907l264 907h135l262 -909l254 909h176l-338 -1126h-168l-256 883l-252 -883h-170z" />
<glyph unicode="x" horiz-adv-x="1161" d="M18 0l461 578l-434 548h193l342 -440l344 440h192l-432 -546l461 -580h-193l-372 469l-369 -469h-193z" />
<glyph unicode="y" horiz-adv-x="1120" d="M14 1126h187l364 -512l357 512h184l-463 -649v-477h-160v477z" />
<glyph unicode="z" horiz-adv-x="1056" d="M82 0v121l666 864h-666v141h881v-120l-666 -865h680v-141h-895z" />
<glyph unicode="{" horiz-adv-x="534" d="M10 449v102q55 0 82 42t27 99v420q0 63 21.5 114.5t57 87.5t81 55.5t94.5 19.5h127v-113h-127q-53 0 -94 -45t-41 -117v-434q0 -66 -20.5 -112t-72.5 -68q51 -23 72 -69t21 -112v-432q0 -72 40.5 -117.5t94.5 -45.5h127v-113h-127q-49 0 -94.5 19.5t-81 55t-57 86 t-21.5 113.5v422q0 57 -26.5 99.5t-82.5 42.5z" />
<glyph unicode="|" horiz-adv-x="432" d="M160 -41v1448h112v-1448h-112z" />
<glyph unicode="}" horiz-adv-x="534" d="M35 -276h125q55 0 96 46t41 117v432q0 66 20.5 112t71.5 69q-51 23 -71.5 68.5t-20.5 111.5v434q0 72 -41 117t-96 45h-125v113h125q49 0 95 -19.5t82 -55.5t57.5 -87t21.5 -115v-420q0 -57 26.5 -99t79.5 -42v-102q-53 0 -79.5 -42t-26.5 -100v-422q0 -63 -21.5 -113.5 t-57.5 -86t-82 -55t-95 -19.5h-125v113z" />
<glyph unicode="~" horiz-adv-x="1030" d="M55 879q8 92 25.5 180t49.5 155.5t82 108.5t126 41q63 0 104 -28.5t67 -72.5t43 -94.5t34.5 -94.5t41 -72.5t64.5 -28.5q37 0 64.5 28.5t48 81t34 124t21.5 159.5l113 -12q-8 -92 -24.5 -180.5t-48.5 -157t-82 -109.5t-126 -41q-63 0 -104 29t-66.5 72t-43 94t-35 94 t-42 71.5t-63.5 28.5q-37 0 -65.5 -28.5t-48 -80.5t-33 -124t-21.5 -158z" />
<glyph unicode="&#xa1;" horiz-adv-x="376" d="M76 1034q0 47 32.5 80t79.5 33t80 -33t33 -80q0 -45 -32.5 -78.5t-80.5 -33.5q-47 0 -79.5 33.5t-32.5 78.5zM100 0l29 786h119l28 -786h-176z" />
<glyph unicode="&#xa2;" horiz-adv-x="1191" d="M96 565q0 121 40 223.5t111.5 178t170 123t215.5 57.5v121h121v-121q129 -10 227 -72.5t164 -154.5l-129 -72q-45 63 -112.5 104t-149.5 54v-885q82 10 151.5 52t110.5 106l131 -72q-70 -94 -167 -155.5t-226 -71.5v-168h-121v168q-117 10 -215.5 57t-170 124t-111.5 179 t-40 225zM260 565q0 -90 27.5 -165.5t78 -134t119 -96.5t148.5 -48v885q-80 -12 -148.5 -49t-119 -94.5t-78 -133.5t-27.5 -164z" />
<glyph unicode="&#xa3;" horiz-adv-x="870" d="M29 459v98h145q-39 53 -68.5 115.5t-29.5 140.5q0 72 29.5 133.5t81 106.5t120 70.5t146.5 25.5q113 0 204 -48t138 -136l-121 -66q-29 63 -84 97t-125 34q-47 0 -89 -15.5t-74 -43t-50.5 -68.5t-18.5 -90q0 -76 35 -136.5t76 -119.5h277v-98h-220q10 -25 17.5 -50.5 t7.5 -54.5q0 -61 -30.5 -113.5t-78.5 -80.5q18 6 45 6q41 0 75 -9.5t64.5 -19.5t59.5 -19t64 -9q49 0 93 17t66 46l70 -115q-35 -35 -97.5 -57.5t-140.5 -22.5q-55 0 -89.5 11.5t-63.5 24t-61.5 23.5t-82.5 11q-41 0 -92 -19.5t-100 -43.5l-55 110q111 47 164 106.5 t53 125.5q0 35 -12.5 67.5t-32.5 65.5h-215z" />
<glyph unicode="&#xa5;" horiz-adv-x="1120" d="M14 1126h187l364 -512l357 512h184l-395 -555h358v-96h-426v-145h426v-99h-426v-231h-160v231h-434v99h434v145h-434v96h367z" />
<glyph unicode="&#xa6;" horiz-adv-x="432" d="M160 -41v647h112v-647h-112zM160 760v647h112v-647h-112z" />
<glyph unicode="&#xa7;" horiz-adv-x="958" d="M70 -6l77 100q47 -55 129 -100t193 -45q104 0 172 46t68 130q0 63 -45.5 97t-114 55.5t-147 40t-147.5 50t-114 84t-45 144.5q0 53 19.5 96t51.5 75t74 54.5t89 34.5q-106 35 -170 92.5t-64 161.5q0 55 24.5 105.5t72 88t116 60t154.5 22.5q139 0 227 -44t139 -101 l-71 -92q-53 63 -131 93t-158 30q-100 0 -162.5 -44t-62.5 -120q0 -57 45 -87t113.5 -49.5t147.5 -36.5t147.5 -50t113.5 -88.5t45 -151.5q0 -86 -47 -152.5t-141 -107.5q86 -35 137 -92t51 -158q0 -72 -28.5 -128t-80 -94t-122 -58.5t-156.5 -20.5q-76 0 -136.5 13.5 t-107.5 35t-85 51t-70 60.5zM244 610q0 -45 24.5 -74.5t65.5 -50t93 -34t108 -27.5q82 35 126 83t44 120q0 43 -20.5 73.5t-53.5 52t-74 36t-84 24.5q-133 -35 -181 -86t-48 -117z" />
<glyph unicode="&#xa8;" horiz-adv-x="557" d="M-29 1237q0 41 28 67.5t69 26.5q39 0 66.5 -26.5t27.5 -67.5q0 -39 -28 -66.5t-66 -27.5q-41 0 -69 27.5t-28 66.5zM395 1237q0 41 28 67.5t66 26.5q41 0 69 -26.5t28 -67.5q0 -39 -28 -66.5t-69 -27.5q-39 0 -66.5 27.5t-27.5 66.5z" />
<glyph unicode="&#xa9;" horiz-adv-x="1593" d="M90 684q0 147 55.5 275t151.5 224.5t225 152t275 55.5q147 0 275 -55.5t224.5 -152t151.5 -224.5t55 -275q0 -145 -55 -274t-151.5 -225.5t-224.5 -152t-275 -55.5q-145 0 -274.5 55.5t-225.5 152t-151.5 225.5t-55.5 274zM154 684q0 -133 51 -250t138 -204t204 -138 t250 -51t249.5 51t204.5 138t138.5 204t50.5 250t-50.5 250t-138.5 205t-204.5 138t-249.5 50t-250 -50t-204 -138t-138 -205t-51 -250zM375 688q0 94 33.5 173t91 137.5t135.5 91t166 32.5q96 0 171 -34.5t128 -98.5l-51 -51q-41 53 -109 85t-139 32q-70 0 -133.5 -27 t-111.5 -75t-76.5 -116.5t-28.5 -150.5q0 -80 28.5 -148.5t76.5 -117.5t111.5 -77t133.5 -28q74 0 140.5 33t107.5 86l53 -51q-55 -66 -130 -100.5t-171 -34.5q-88 0 -166 33.5t-135.5 93t-91 139.5t-33.5 174z" />
<glyph unicode="&#xaa;" horiz-adv-x="774" d="M84 864q0 53 20.5 93t52 66t72.5 39t84 13q74 0 128.5 -22.5t93.5 -63.5v113q0 63 -49.5 98t-114.5 35q-53 0 -106.5 -22.5t-94.5 -71.5l-53 78q106 109 268 108q53 0 101.5 -12t85 -39t58 -71t21.5 -105v-432h-116v71q-39 -41 -93.5 -64.5t-128.5 -23.5q-43 0 -84 14.5 t-72.5 41t-52 66.5t-20.5 91zM203 864q0 -61 43.5 -98t111.5 -37q53 0 100.5 20.5t76.5 57.5v115q-29 37 -76 57t-101 20q-68 0 -111.5 -37.5t-43.5 -97.5z" />
<glyph unicode="&#xab;" horiz-adv-x="899" d="M61 498l328 362h154l-328 -362l328 -369h-154zM356 498l328 362h154l-328 -362l328 -369h-154z" />
<glyph unicode="&#xac;" horiz-adv-x="1032" d="M59 827v109h904v-504h-113v395h-791z" />
<glyph unicode="&#xad;" horiz-adv-x="614" d="M61 428v135h492v-135h-492z" />
<glyph unicode="&#xae;" horiz-adv-x="1011" d="M72 952q0 90 33.5 170t93 138.5t138.5 92t169 33.5t170 -33.5t138 -92t92 -138.5t34 -170t-34 -168.5t-92 -138t-138 -93.5t-170 -34t-169 34t-138.5 93.5t-93 138t-33.5 168.5zM131 952q0 -78 29.5 -145.5t80 -118.5t119 -80.5t146.5 -29.5t146.5 29.5t118.5 80.5 t80 118.5t30 145.5q0 80 -30 147.5t-80 119t-118.5 80t-146.5 28.5t-146.5 -28.5t-119 -80t-80 -119t-29.5 -147.5zM340 702v498h203q63 0 110 -41t47 -110q0 -41 -15 -70t-36.5 -46.5t-43 -24.5t-32.5 -7l134 -199h-82l-129 197h-90v-197h-66zM406 958h137q33 0 61.5 26 t28.5 65q0 41 -29 67.5t-61 26.5h-137v-185z" />
<glyph unicode="&#xaf;" horiz-adv-x="743" d="M0 1210v99h743v-99h-743z" />
<glyph unicode="&#xb0;" horiz-adv-x="593" d="M47 1137q0 51 19.5 97t53.5 80t79 53t98 19q51 0 97 -19t80 -53t53.5 -80t19.5 -97q0 -53 -19.5 -98.5t-53.5 -79t-80 -53t-97 -19.5q-53 0 -98 19.5t-79 53t-53.5 78.5t-19.5 99zM147 1137q0 -63 43 -106.5t107 -43.5q61 0 106.5 43.5t45.5 106.5q0 61 -45.5 106 t-106.5 45q-63 0 -106.5 -45t-43.5 -106z" />
<glyph unicode="&#xb1;" horiz-adv-x="1021" d="M59 0v109h904v-109h-904zM59 664v106h394v424h116v-424h394v-106h-394v-437h-116v437h-394z" />
<glyph unicode="&#xb2;" horiz-adv-x="794" d="M100 1565q51 66 133 97.5t168 31.5q55 0 108.5 -14.5t94.5 -44t65.5 -74.5t24.5 -109q0 -61 -30.5 -120.5t-85 -120t-130 -122t-165.5 -126.5h415v-101h-596v92q117 84 205 153t146.5 127t88 109.5t29.5 100.5q0 39 -14 67.5t-38.5 47t-56.5 26.5t-65 8q-76 0 -136 -31.5 t-93 -74.5z" />
<glyph unicode="&#xb3;" horiz-adv-x="794" d="M86 981l68 78q41 -51 103 -81t134 -30q88 0 138.5 39t50.5 105q0 78 -61.5 109.5t-151.5 31.5h-49.5t-32.5 -2v102q10 -2 32.5 -2h49.5q86 0 143 30t57 101q0 66 -54 98.5t-130 32.5q-131 0 -223 -98l-64 72q47 53 121 90t178 37q129 0 211 -58.5t82 -160.5 q0 -45 -17.5 -78t-44 -56.5t-58 -37t-62.5 -17.5q29 -4 63.5 -17.5t64.5 -38t49 -60.5t19 -85q0 -104 -81.5 -170.5t-227.5 -66.5q-111 0 -188.5 39t-118.5 94z" />
<glyph unicode="&#xb4;" horiz-adv-x="462" d="M0 1139l303 295h160l-346 -295h-117z" />
<glyph unicode="&#xb5;" horiz-adv-x="1128" d="M154 -377v1366h153v-651q0 -131 60.5 -180t162.5 -49q45 0 88.5 12t81 33.5t68.5 49t53 58.5v727h154v-989h-154v139q-57 -66 -149 -115t-203 -49q-94 0 -162 29v-381h-153z" />
<glyph unicode="&#xb6;" horiz-adv-x="919" d="M55 1014q0 74 28 137t76 111.5t111.5 76t137.5 27.5h366v-1571h-92v1479h-182v-1479h-92v867q-74 0 -137.5 27.5t-111.5 75.5t-76 111.5t-28 137.5z" />
<glyph unicode="&#xb7;" horiz-adv-x="473" d="M123 502q0 45 32.5 77.5t80.5 32.5q47 0 79.5 -32.5t32.5 -77.5q0 -47 -32.5 -80t-79.5 -33t-80 33t-33 80z" />
<glyph unicode="&#xb8;" horiz-adv-x="419" d="M0 -330l39 78q39 -31 81 -45t83 -14q51 0 88 22.5t37 63.5q0 33 -18.5 52t-57.5 19q-23 0 -43.5 -9t-34.5 -25l-68 38l64 173h92l-53 -136q16 12 35.5 17.5t40.5 5.5q59 0 97 -37t38 -100q0 -76 -61.5 -120t-151.5 -44q-66 0 -121 18.5t-86 42.5z" />
<glyph unicode="&#xb9;" horiz-adv-x="481" d="M29 1456l221 225h108v-819h-122v660l-136 -142z" />
<glyph unicode="&#xba;" horiz-adv-x="829" d="M82 989q0 70 23.5 131.5t66.5 107.5t104.5 72.5t137.5 26.5q78 0 139 -26.5t104 -72.5t67 -107.5t24 -131.5t-24 -131t-67 -107t-104 -73t-139 -27q-76 0 -137.5 27t-104.5 73t-66.5 107.5t-23.5 130.5zM205 989q0 -100 54.5 -169.5t154.5 -69.5q102 0 157.5 69.5 t55.5 169.5t-55.5 169t-157.5 69q-100 0 -154.5 -68.5t-54.5 -169.5z" />
<glyph unicode="&#xbb;" horiz-adv-x="899" d="M61 129l328 369l-328 362h154l328 -362l-328 -369h-154zM356 129l328 369l-328 362h154l328 -362l-328 -369h-154z" />
<glyph unicode="&#xbc;" horiz-adv-x="1576" d="M29 1141l221 225h108v-819h-122v659l-136 -141zM223 0l873 1366h112l-874 -1366h-111zM860 205v92l354 522h170v-514h117v-100h-117v-205h-122v205h-402zM983 305h279v406z" />
<glyph unicode="&#xbd;" horiz-adv-x="1652" d="M29 1141l221 225h108v-819h-122v659l-136 -141zM223 0l873 1366h112l-874 -1366h-111zM958 702q51 66 133.5 97.5t168.5 31.5q55 0 108 -14t94 -44t65.5 -75t24.5 -108q0 -61 -30.5 -120.5t-85 -120t-130 -122t-165.5 -127.5h415v-100h-595v92q117 84 204.5 152.5 t146 127t88.5 109.5t30 101q0 39 -14.5 67.5t-39 47t-56.5 26.5t-65 8q-76 0 -136 -31.5t-93 -74.5z" />
<glyph unicode="&#xbe;" horiz-adv-x="1798" d="M86 666l68 77q41 -51 103 -80.5t134 -29.5q88 0 138.5 39t50.5 104q0 78 -61.5 110t-151.5 32h-49.5t-32.5 -3v103q10 -2 32.5 -2h49.5q86 0 143 29.5t57 101.5q0 66 -54 98.5t-130 32.5q-131 0 -223 -98l-64 71q47 53 121 90t178 37q129 0 211 -58t82 -161 q0 -45 -17.5 -77.5t-44 -56.5t-58 -37t-62.5 -17q29 -4 63.5 -17.5t64.5 -38t49 -60.5t19 -85q0 -104 -81.5 -171t-227.5 -67q-111 0 -188.5 39t-118.5 95zM444 0l873 1366h113l-875 -1366h-111zM1083 205v92l355 522h170v-514h116v-100h-116v-205h-123v205h-402zM1206 305 h279v406z" />
<glyph unicode="&#xbf;" horiz-adv-x="811" d="M47 238q0 61 25.5 107t63.5 81t83 62.5t83 54t63.5 55.5t25.5 68q0 18 -11 38.5t-42 43.5l117 49q41 -33 57 -68t16 -67q0 -51 -23.5 -89t-60 -68t-77.5 -55.5t-78 -52t-60.5 -58.5t-23.5 -75q0 -66 54 -108.5t155 -42.5q104 0 173.5 38.5t121.5 102.5l82 -96 q-66 -84 -164.5 -132.5t-225.5 -48.5q-84 0 -149.5 20.5t-110.5 56.5t-69.5 83.5t-24.5 100.5zM307 1034q0 47 33 80t80 33t79.5 -33t32.5 -80t-32.5 -79.5t-79.5 -32.5t-80 32.5t-33 79.5z" />
<glyph unicode="&#xc0;" d="M18 0l551 1366h211l549 -1366h-194l-121 305h-680l-121 -305h-195zM348 1786h160l303 -295h-117zM385 455h580l-291 737z" />
<glyph unicode="&#xc1;" d="M18 0l551 1366h211l549 -1366h-194l-121 305h-680l-121 -305h-195zM385 455h580l-291 737zM541 1491l303 295h160l-347 -295h-116z" />
<glyph unicode="&#xc2;" d="M18 0l551 1366h211l549 -1366h-194l-121 305h-680l-121 -305h-195zM385 455h580l-291 737zM406 1491l194 295h148l200 -295h-104l-170 217l-164 -217h-104z" />
<glyph unicode="&#xc3;" d="M18 0l551 1366h211l549 -1366h-194l-121 305h-680l-121 -305h-195zM354 1499q0 121 50.5 198t148.5 77q55 0 88 -30t56.5 -64.5t47 -64.5t60.5 -30q41 0 69.5 42t28.5 134h92q0 -121 -50 -197.5t-148 -76.5q-55 0 -88 29.5t-56.5 64.5t-47 64.5t-60.5 29.5q-41 0 -70 -42 t-29 -134h-92zM385 455h580l-291 737z" />
<glyph unicode="&#xc4;" d="M18 0l551 1366h211l549 -1366h-194l-121 305h-680l-121 -305h-195zM369 1583q0 41 27.5 67.5t68.5 26.5q39 0 66.5 -26.5t27.5 -67.5q0 -39 -27.5 -66.5t-66.5 -27.5q-41 0 -68.5 27.5t-27.5 66.5zM385 455h580l-291 737zM793 1583q0 41 27.5 67.5t66.5 26.5 q41 0 68.5 -26.5t27.5 -67.5q0 -39 -27.5 -66.5t-68.5 -27.5q-39 0 -66.5 27.5t-27.5 66.5z" />
<glyph unicode="&#xc5;" d="M18 0l551 1366h211l549 -1366h-194l-121 305h-680l-121 -305h-195zM385 455h580l-291 737zM473 1620q0 41 16.5 78t44 64.5t64.5 44t78 16.5q84 0 141 -59.5t57 -143.5t-57 -143.5t-141 -59.5q-41 0 -78 16.5t-64.5 44t-44 64.5t-16.5 78zM555 1620q0 -49 35 -85t86 -36 q49 0 84 36t35 85t-35 85t-84 36q-51 0 -86 -36t-35 -85z" />
<glyph unicode="&#xc6;" horiz-adv-x="1941" d="M14 0l852 1366h963v-152h-725v-440h711v-151h-711v-471h725v-152h-895v305h-537l-188 -305h-195zM479 455h455v737z" />
<glyph unicode="&#xc7;" horiz-adv-x="1384" d="M104 682q0 158 54.5 288t149.5 223t223 144.5t276 51.5q182 0 309 -77t209 -194l-141 -80q-59 88 -159.5 143.5t-217.5 55.5q-113 0 -209 -41t-167 -113.5t-110.5 -175t-39.5 -225.5q0 -121 39.5 -223.5t110.5 -176t167 -114.5t209 -41q117 0 217 56.5t160 142.5l143 -78 q-84 -115 -205 -191.5t-295 -81.5l-30 -79q16 12 35.5 17t39.5 5q59 0 97.5 -37t38.5 -100q0 -76 -61.5 -120t-151.5 -44q-66 0 -121.5 18.5t-85.5 42.5l39 78q39 -31 81 -45t83 -14q51 0 87.5 22.5t36.5 63.5q0 33 -18 52.5t-57 19.5q-23 0 -43.5 -9.5t-34.5 -25.5l-68 39 l43 121q-135 12 -250.5 67t-200.5 147.5t-133.5 216.5t-48.5 271z" />
<glyph unicode="&#xc8;" horiz-adv-x="1165" d="M160 0v1366h895v-152h-725v-440h710v-151h-710v-471h725v-152h-895zM281 1786h159l303 -295h-116z" />
<glyph unicode="&#xc9;" horiz-adv-x="1165" d="M160 0v1366h895v-152h-725v-440h710v-151h-710v-471h725v-152h-895zM471 1491l303 295h160l-346 -295h-117z" />
<glyph unicode="&#xca;" horiz-adv-x="1165" d="M160 0v1366h895v-152h-725v-440h710v-151h-710v-471h725v-152h-895zM334 1491l194 295h148l201 -295h-105l-170 217l-164 -217h-104z" />
<glyph unicode="&#xcb;" horiz-adv-x="1165" d="M160 0v1366h895v-152h-725v-440h710v-151h-710v-471h725v-152h-895zM299 1583q0 41 27.5 67.5t68.5 26.5q39 0 66.5 -26.5t27.5 -67.5q0 -39 -27.5 -66.5t-66.5 -27.5q-41 0 -68.5 27.5t-27.5 66.5zM723 1583q0 41 27.5 67.5t66.5 26.5q41 0 68.5 -26.5t27.5 -67.5 q0 -39 -27.5 -66.5t-68.5 -27.5q-39 0 -66.5 27.5t-27.5 66.5z" />
<glyph unicode="&#xcc;" horiz-adv-x="489" d="M-84 1786h160l303 -295h-117zM160 0v1366h170v-1366h-170z" />
<glyph unicode="&#xcd;" horiz-adv-x="489" d="M113 1491l303 295h159l-346 -295h-116zM160 0v1366h170v-1366h-170z" />
<glyph unicode="&#xce;" horiz-adv-x="489" d="M-27 1491l195 295h147l201 -295h-104l-170 217l-164 -217h-105zM160 0v1366h170v-1366h-170z" />
<glyph unicode="&#xcf;" horiz-adv-x="489" d="M-63 1583q0 41 27.5 67.5t68.5 26.5q39 0 66.5 -26.5t27.5 -67.5q0 -39 -27.5 -66.5t-66.5 -27.5q-41 0 -68.5 27.5t-27.5 66.5zM160 0v1366h170v-1366h-170zM360 1583q0 41 28 67.5t67 26.5q41 0 68.5 -26.5t27.5 -67.5q0 -39 -27.5 -66.5t-68.5 -27.5q-39 0 -67 27.5 t-28 66.5z" />
<glyph unicode="&#xd0;" horiz-adv-x="1490" d="M20 612v125h197v629h467q160 0 289 -52t221 -144.5t141 -217.5t49 -270t-49 -270t-141 -216.5t-221 -143.5t-289 -52h-467v612h-197zM387 152h297q125 0 222.5 42t165 113.5t102 167.5t34.5 207t-34.5 208t-101 168.5t-164 113.5t-224.5 42h-297v-477h346v-125h-346v-460 z" />
<glyph unicode="&#xd1;" horiz-adv-x="1449" d="M160 0v1366h174l786 -1067v1067h170v-1366h-164l-796 1090v-1090h-170zM401 1499q0 121 50.5 198t148.5 77q55 0 88 -30t56.5 -64.5t47 -64.5t60.5 -30q41 0 69.5 42t28.5 134h92q0 -121 -50 -197.5t-148 -76.5q-55 0 -88 29.5t-56.5 64.5t-47 64.5t-60.5 29.5 q-41 0 -69.5 -42t-28.5 -134h-93z" />
<glyph unicode="&#xd2;" horiz-adv-x="1566" d="M104 682q0 152 49.5 281t138.5 224t214 148.5t276 53.5q152 0 277 -53.5t215 -148.5t139 -224t49 -281t-49 -281t-139 -224t-215 -148.5t-277 -53.5t-276.5 53.5t-213.5 148.5t-138.5 224t-49.5 281zM281 682q0 -119 34.5 -220.5t100 -176t158.5 -116.5t208 -42t208 42 t158.5 116.5t101.5 176t36 220.5t-36 221.5t-101.5 176t-158.5 115.5t-208 42t-208 -42t-158.5 -115.5t-100 -176t-34.5 -221.5zM463 1786h160l303 -295h-117z" />
<glyph unicode="&#xd3;" horiz-adv-x="1566" d="M104 682q0 152 49.5 281t138.5 224t214 148.5t276 53.5q152 0 277 -53.5t215 -148.5t139 -224t49 -281t-49 -281t-139 -224t-215 -148.5t-277 -53.5t-276.5 53.5t-213.5 148.5t-138.5 224t-49.5 281zM281 682q0 -119 34.5 -220.5t100 -176t158.5 -116.5t208 -42t208 42 t158.5 116.5t101.5 176t36 220.5t-36 221.5t-101.5 176t-158.5 115.5t-208 42t-208 -42t-158.5 -115.5t-100 -176t-34.5 -221.5zM651 1491l303 295h160l-346 -295h-117z" />
<glyph unicode="&#xd4;" horiz-adv-x="1566" d="M104 682q0 152 49.5 281t138.5 224t214 148.5t276 53.5q152 0 277 -53.5t215 -148.5t139 -224t49 -281t-49 -281t-139 -224t-215 -148.5t-277 -53.5t-276.5 53.5t-213.5 148.5t-138.5 224t-49.5 281zM281 682q0 -119 34.5 -220.5t100 -176t158.5 -116.5t208 -42t208 42 t158.5 116.5t101.5 176t36 220.5t-36 221.5t-101.5 176t-158.5 115.5t-208 42t-208 -42t-158.5 -115.5t-100 -176t-34.5 -221.5zM516 1491l195 295h147l201 -295h-105l-170 217l-163 -217h-105z" />
<glyph unicode="&#xd5;" horiz-adv-x="1566" d="M104 682q0 152 49.5 281t138.5 224t214 148.5t276 53.5q152 0 277 -53.5t215 -148.5t139 -224t49 -281t-49 -281t-139 -224t-215 -148.5t-277 -53.5t-276.5 53.5t-213.5 148.5t-138.5 224t-49.5 281zM281 682q0 -119 34.5 -220.5t100 -176t158.5 -116.5t208 -42t208 42 t158.5 116.5t101.5 176t36 220.5t-36 221.5t-101.5 176t-158.5 115.5t-208 42t-208 -42t-158.5 -115.5t-100 -176t-34.5 -221.5zM463 1499q0 121 50 198t149 77q55 0 87.5 -30t56 -64.5t47.5 -64.5t60 -30q41 0 70 42t29 134h92q0 -121 -50.5 -197.5t-148.5 -76.5 q-55 0 -88 29.5t-56.5 64.5t-47 64.5t-60.5 29.5q-41 0 -69.5 -42t-28.5 -134h-92z" />
<glyph unicode="&#xd6;" horiz-adv-x="1566" d="M104 682q0 152 49.5 281t138.5 224t214 148.5t276 53.5q152 0 277 -53.5t215 -148.5t139 -224t49 -281t-49 -281t-139 -224t-215 -148.5t-277 -53.5t-276.5 53.5t-213.5 148.5t-138.5 224t-49.5 281zM281 682q0 -119 34.5 -220.5t100 -176t158.5 -116.5t208 -42t208 42 t158.5 116.5t101.5 176t36 220.5t-36 221.5t-101.5 176t-158.5 115.5t-208 42t-208 -42t-158.5 -115.5t-100 -176t-34.5 -221.5zM475 1583q0 41 27.5 67.5t68.5 26.5q39 0 67 -26.5t28 -67.5q0 -39 -28 -66.5t-67 -27.5q-41 0 -68.5 27.5t-27.5 66.5zM899 1583 q0 41 27.5 67.5t66.5 26.5q41 0 69 -26.5t28 -67.5q0 -39 -28 -66.5t-69 -27.5q-39 0 -66.5 27.5t-27.5 66.5z" />
<glyph unicode="&#xd7;" horiz-adv-x="1021" d="M131 379l305 305l-305 305l76 76l303 -305l305 305l76 -76l-303 -305l303 -305l-76 -76l-305 305l-303 -305z" />
<glyph unicode="&#xd8;" horiz-adv-x="1566" d="M104 682q0 152 49.5 281t138.5 224t214 148.5t276 53.5q98 0 183.5 -23t158.5 -63l43 63h138l-86 -129q115 -96 179 -238.5t64 -316.5q0 -152 -49 -281t-139 -224t-215 -148.5t-277 -53.5q-100 0 -188 24t-164 69l-45 -68h-137l90 133q-111 96 -172.5 236.5t-61.5 312.5z M281 682q0 -127 38.5 -231.5t110.5 -180.5l606 901q-53 31 -117.5 48.5t-136.5 17.5q-115 0 -208 -42t-158.5 -115.5t-100 -176t-34.5 -221.5zM518 199q112 -72 264 -72q115 0 208 42t158.5 116.5t101.5 176t36 220.5q0 129 -41 236.5t-119 183.5z" />
<glyph unicode="&#xd9;" horiz-adv-x="1435" d="M160 530v836h172v-831q0 -188 97 -298t288 -110q190 0 288.5 109.5t98.5 298.5v831h172v-834q0 -127 -35 -230t-105.5 -176t-175 -112t-243.5 -39t-242.5 40t-174.5 112t-105.5 174t-34.5 229zM393 1786h160l303 -295h-117z" />
<glyph unicode="&#xda;" horiz-adv-x="1435" d="M160 530v836h172v-831q0 -188 97 -298t288 -110q190 0 288.5 109.5t98.5 298.5v831h172v-834q0 -127 -35 -230t-105.5 -176t-175 -112t-243.5 -39t-242.5 40t-174.5 112t-105.5 174t-34.5 229zM582 1491l303 295h159l-346 -295h-116z" />
<glyph unicode="&#xdb;" horiz-adv-x="1435" d="M160 530v836h172v-831q0 -188 97 -298t288 -110q190 0 288.5 109.5t98.5 298.5v831h172v-834q0 -127 -35 -230t-105.5 -176t-175 -112t-243.5 -39t-242.5 40t-174.5 112t-105.5 174t-34.5 229zM457 1491l194 295h148l200 -295h-104l-170 217l-164 -217h-104z" />
<glyph unicode="&#xdc;" horiz-adv-x="1435" d="M160 530v836h172v-831q0 -188 97 -298t288 -110q190 0 288.5 109.5t98.5 298.5v831h172v-834q0 -127 -35 -230t-105.5 -176t-175 -112t-243.5 -39t-242.5 40t-174.5 112t-105.5 174t-34.5 229zM412 1583q0 41 27.5 67.5t68.5 26.5q39 0 66.5 -26.5t27.5 -67.5 q0 -39 -27.5 -66.5t-66.5 -27.5q-41 0 -68.5 27.5t-27.5 66.5zM836 1583q0 41 27.5 67.5t66.5 26.5q41 0 68.5 -26.5t27.5 -67.5q0 -39 -27.5 -66.5t-68.5 -27.5q-39 0 -66.5 27.5t-27.5 66.5z" />
<glyph unicode="&#xdd;" horiz-adv-x="1282" d="M18 1366h199l424 -635l424 635h199l-537 -788v-578h-170v578zM514 1491l303 295h160l-346 -295h-117z" />
<glyph unicode="&#xde;" horiz-adv-x="1202" d="M160 0v1366h170v-244h379q102 0 182 -32.5t134 -90t83 -132t29 -158.5t-29 -159t-83 -130t-134 -88t-182 -33h-379v-299h-170zM330 451h358q123 0 198 70.5t75 187.5t-75 189.5t-198 72.5h-358v-520z" />
<glyph unicode="&#xdf;" horiz-adv-x="2064" d="M66 152l86 120q57 -61 152 -109t216 -48q74 0 126 16t85 43t48.5 61.5t15.5 71.5q0 72 -51.5 111t-128 62.5t-167 44t-167 54t-128 92t-51.5 160.5q0 70 31 128.5t86 101.5t130 66.5t161 23.5q139 0 243.5 -43t178.5 -119l-84 -112q-66 70 -156 102.5t-182 32.5 q-106 0 -174 -50.5t-68 -127.5q0 -61 51.5 -94t128 -54.5t165.5 -43t166 -58.5t128 -100.5t51 -170.5q0 -72 -26.5 -133t-81.5 -107t-138 -72t-196 -26q-150 0 -265.5 50.5t-184.5 126.5zM1098 152l86 120q57 -61 152 -109t216 -48q74 0 126 16t85 43t48.5 61.5t15.5 71.5 q0 72 -51.5 111t-128 62.5t-167 44t-167 54t-128 92t-51.5 160.5q0 70 31 128.5t86 101.5t130 66.5t161 23.5q139 0 243.5 -43t178.5 -119l-84 -112q-66 70 -156 102.5t-182 32.5q-106 0 -174 -50.5t-68 -127.5q0 -61 51.5 -94t128 -54.5t165.5 -43t166 -58.5t128 -100.5 t51 -170.5q0 -72 -26.5 -133t-81.5 -107t-138 -72t-196 -26q-150 0 -265.5 50.5t-184.5 126.5z" />
<glyph unicode="&#xe0;" horiz-adv-x="1171" d="M14 0l478 1126h190l475 -1126h-178l-105 246h-575l-104 -246h-181zM260 1536h160l303 -295h-117zM348 387h477l-237 571z" />
<glyph unicode="&#xe1;" horiz-adv-x="1171" d="M14 0l478 1126h190l475 -1126h-178l-105 246h-575l-104 -246h-181zM348 387h477l-237 571zM455 1241l303 295h160l-347 -295h-116z" />
<glyph unicode="&#xe2;" horiz-adv-x="1171" d="M14 0l478 1126h190l475 -1126h-178l-105 246h-575l-104 -246h-181zM317 1241l195 295h147l201 -295h-104l-170 217l-164 -217h-105zM348 387h477l-237 571z" />
<glyph unicode="&#xe3;" horiz-adv-x="1171" d="M14 0l478 1126h190l475 -1126h-178l-105 246h-575l-104 -246h-181zM268 1249q0 121 50.5 198t148.5 77q55 0 88 -30t56.5 -64.5t47 -64.5t60.5 -30q41 0 69.5 42t28.5 134h92q0 -121 -50 -197.5t-148 -76.5q-55 0 -88 29.5t-56.5 64.5t-47 64.5t-60.5 29.5q-41 0 -70 -42 t-29 -134h-92zM348 387h477l-237 571z" />
<glyph unicode="&#xe4;" horiz-adv-x="1171" d="M14 0l478 1126h190l475 -1126h-178l-105 246h-575l-104 -246h-181zM281 1352q0 41 27.5 67.5t68.5 26.5q39 0 66.5 -26.5t27.5 -67.5q0 -39 -27.5 -67t-66.5 -28q-41 0 -68.5 28t-27.5 67zM348 387h477l-237 571zM705 1352q0 41 27.5 67.5t66.5 26.5q41 0 68.5 -26.5 t27.5 -67.5q0 -39 -27.5 -67t-68.5 -28q-39 0 -66.5 28t-27.5 67z" />
<glyph unicode="&#xe5;" horiz-adv-x="1171" d="M14 0l478 1126h190l475 -1126h-178l-105 246h-575l-104 -246h-181zM348 387h477l-237 571zM387 1440q0 41 16.5 77.5t44 64.5t64.5 44t78 16q84 0 141 -59t57 -143t-57 -143.5t-141 -59.5q-41 0 -78 16.5t-64.5 44t-44 64.5t-16.5 78zM469 1440q0 -49 35 -85t86 -36 q49 0 84 36t35 85t-35 85t-84 36q-51 0 -86 -36t-35 -85z" />
<glyph unicode="&#xe6;" horiz-adv-x="1681" d="M12 0l721 1126h844v-141h-625v-338h613v-141h-613v-365h625v-141h-784v246h-443l-155 -246h-183zM428 387h365v571z" />
<glyph unicode="&#xe7;" horiz-adv-x="1191" d="M96 565q0 129 46 237.5t127 185.5t190.5 120t238.5 43q152 0 263.5 -63.5t183.5 -167.5l-129 -72q-51 74 -135 118t-183 44q-92 0 -173 -33t-139 -92.5t-92 -140t-34 -179.5q0 -98 34 -180t92 -141.5t139 -93t173 -33.5q98 0 184.5 45t133.5 117l131 -72 q-72 -98 -174.5 -159.5t-239.5 -70.5l-35 -90q16 12 36 17.5t40 5.5q59 0 97 -37t38 -100q0 -76 -61.5 -120t-151.5 -44q-66 0 -121 18.5t-86 42.5l39 78q39 -31 81 -45t83 -14q51 0 88 22.5t37 63.5q0 33 -18.5 52t-57.5 19q-23 0 -43 -9t-34 -25l-68 38l47 127 q-119 8 -219 55.5t-173 124t-114 181t-41 227.5z" />
<glyph unicode="&#xe8;" horiz-adv-x="1042" d="M154 0v1126h782v-141h-621v-338h611v-141h-611v-365h621v-141h-782zM225 1536h160l303 -295h-117z" />
<glyph unicode="&#xe9;" horiz-adv-x="1042" d="M154 0v1126h782v-141h-621v-338h611v-141h-611v-365h621v-141h-782zM418 1241l303 295h160l-346 -295h-117z" />
<glyph unicode="&#xea;" horiz-adv-x="1042" d="M154 0v1126h782v-141h-621v-338h611v-141h-611v-365h621v-141h-782zM283 1241l194 295h148l200 -295h-104l-170 217l-164 -217h-104z" />
<glyph unicode="&#xeb;" horiz-adv-x="1042" d="M154 0v1126h782v-141h-621v-338h611v-141h-611v-365h621v-141h-782zM238 1352q0 41 27.5 67.5t68.5 26.5q39 0 66.5 -26.5t27.5 -67.5q0 -39 -27.5 -67t-66.5 -28q-41 0 -68.5 28t-27.5 67zM662 1352q0 41 27.5 67.5t66.5 26.5q41 0 68.5 -26.5t27.5 -67.5 q0 -39 -27.5 -67t-68.5 -28q-39 0 -66.5 28t-27.5 67z" />
<glyph unicode="&#xec;" horiz-adv-x="464" d="M-94 1536h160l303 -295h-117zM154 0v1126h161v-1126h-161z" />
<glyph unicode="&#xed;" horiz-adv-x="464" d="M100 1241l303 295h160l-346 -295h-117zM154 0v1126h161v-1126h-161z" />
<glyph unicode="&#xee;" horiz-adv-x="464" d="M-37 1241l195 295h147l201 -295h-105l-170 217l-163 -217h-105zM154 0v1126h161v-1126h-161z" />
<glyph unicode="&#xef;" horiz-adv-x="464" d="M-72 1352q0 41 28 67.5t69 26.5q39 0 66.5 -26.5t27.5 -67.5q0 -39 -28 -67t-66 -28q-41 0 -69 28t-28 67zM154 0v1126h161v-1126h-161zM352 1352q0 41 28 67.5t66 26.5q41 0 69 -26.5t28 -67.5q0 -39 -28 -67t-69 -28q-39 0 -66.5 28t-27.5 67z" />
<glyph unicode="&#xf0;" horiz-adv-x="1282" d="M20 514v107h130v505h409q137 0 249 -43t189.5 -119.5t119.5 -180t42 -222.5q0 -121 -42 -223t-119.5 -177t-189.5 -118t-249 -43h-409v514h-130zM311 141h248q104 0 185 33t136.5 90.5t84 134t28.5 162.5q0 88 -27.5 166t-83 135.5t-136 90t-187.5 32.5h-248v-364h273 v-107h-273v-373z" />
<glyph unicode="&#xf1;" horiz-adv-x="1294" d="M154 0v1126h168l659 -860v860h160v-1126h-162l-666 877v-877h-159zM326 1249q0 121 50 198t148 77q55 0 88 -30t56.5 -64.5t47 -64.5t60.5 -30q41 0 69.5 42t28.5 134h93q0 -121 -50.5 -197.5t-148.5 -76.5q-55 0 -88 29.5t-56.5 64.5t-47 64.5t-60.5 29.5 q-41 0 -69.5 -42t-28.5 -134h-92z" />
<glyph unicode="&#xf2;" horiz-adv-x="1355" d="M96 563q0 125 42 232.5t118 186.5t183.5 124t238.5 45t238.5 -45t183.5 -124t118 -186.5t42 -232.5t-42 -232.5t-118 -186t-183.5 -124t-238.5 -45.5t-238.5 45.5t-183.5 124t-118 186t-42 232.5zM260 563q0 -96 29.5 -177t84 -141.5t131.5 -94t173 -33.5q94 0 172 33.5 t132 94t84 141.5t30 177t-30 178t-84 141.5t-132 93.5t-172 34q-96 0 -173 -34t-131.5 -93.5t-84 -141.5t-29.5 -178zM350 1536h160l303 -295h-117z" />
<glyph unicode="&#xf3;" horiz-adv-x="1355" d="M96 563q0 125 42 232.5t118 186.5t183.5 124t238.5 45t238.5 -45t183.5 -124t118 -186.5t42 -232.5t-42 -232.5t-118 -186t-183.5 -124t-238.5 -45.5t-238.5 45.5t-183.5 124t-118 186t-42 232.5zM260 563q0 -96 29.5 -177t84 -141.5t131.5 -94t173 -33.5q94 0 172 33.5 t132 94t84 141.5t30 177t-30 178t-84 141.5t-132 93.5t-172 34q-96 0 -173 -34t-131.5 -93.5t-84 -141.5t-29.5 -178zM547 1241l303 295h160l-346 -295h-117z" />
<glyph unicode="&#xf4;" horiz-adv-x="1355" d="M96 563q0 125 42 232.5t118 186.5t183.5 124t238.5 45t238.5 -45t183.5 -124t118 -186.5t42 -232.5t-42 -232.5t-118 -186t-183.5 -124t-238.5 -45.5t-238.5 45.5t-183.5 124t-118 186t-42 232.5zM260 563q0 -96 29.5 -177t84 -141.5t131.5 -94t173 -33.5q94 0 172 33.5 t132 94t84 141.5t30 177t-30 178t-84 141.5t-132 93.5t-172 34q-96 0 -173 -34t-131.5 -93.5t-84 -141.5t-29.5 -178zM412 1241l194 295h148l200 -295h-104l-170 217l-164 -217h-104z" />
<glyph unicode="&#xf5;" horiz-adv-x="1355" d="M96 563q0 125 42 232.5t118 186.5t183.5 124t238.5 45t238.5 -45t183.5 -124t118 -186.5t42 -232.5t-42 -232.5t-118 -186t-183.5 -124t-238.5 -45.5t-238.5 45.5t-183.5 124t-118 186t-42 232.5zM260 563q0 -96 29.5 -177t84 -141.5t131.5 -94t173 -33.5q94 0 172 33.5 t132 94t84 141.5t30 177t-30 178t-84 141.5t-132 93.5t-172 34q-96 0 -173 -34t-131.5 -93.5t-84 -141.5t-29.5 -178zM365 1249q0 121 50 198t148 77q55 0 88 -30t56.5 -64.5t47 -64.5t60.5 -30q41 0 69.5 42t28.5 134h93q0 -121 -50.5 -197.5t-148.5 -76.5q-55 0 -88 29.5 t-56.5 64.5t-47 64.5t-60.5 29.5q-41 0 -69.5 -42t-28.5 -134h-92z" />
<glyph unicode="&#xf6;" horiz-adv-x="1355" d="M96 563q0 125 42 232.5t118 186.5t183.5 124t238.5 45t238.5 -45t183.5 -124t118 -186.5t42 -232.5t-42 -232.5t-118 -186t-183.5 -124t-238.5 -45.5t-238.5 45.5t-183.5 124t-118 186t-42 232.5zM260 563q0 -96 29.5 -177t84 -141.5t131.5 -94t173 -33.5q94 0 172 33.5 t132 94t84 141.5t30 177t-30 178t-84 141.5t-132 93.5t-172 34q-96 0 -173 -34t-131.5 -93.5t-84 -141.5t-29.5 -178zM375 1352q0 41 27.5 67.5t68.5 26.5q39 0 66.5 -26.5t27.5 -67.5q0 -39 -27.5 -67t-66.5 -28q-41 0 -68.5 28t-27.5 67zM799 1352q0 41 27.5 67.5 t66.5 26.5q41 0 68.5 -26.5t27.5 -67.5q0 -39 -27.5 -67t-68.5 -28q-39 0 -66.5 28t-27.5 67z" />
<glyph unicode="&#xf7;" horiz-adv-x="1046" d="M59 637v106h928v-106h-928zM430 295q0 39 27.5 66.5t66.5 27.5t66.5 -27.5t27.5 -66.5t-27.5 -66.5t-66.5 -27.5t-66.5 27.5t-27.5 66.5zM430 1079q0 39 27.5 65.5t66.5 26.5t66.5 -26.5t27.5 -65.5q0 -41 -27.5 -68.5t-66.5 -27.5t-66.5 27.5t-27.5 68.5z" />
<glyph unicode="&#xf8;" horiz-adv-x="1355" d="M96 563q0 125 42 232.5t118 186.5t183.5 124t238.5 45q86 0 161.5 -20.5t141.5 -57.5l39 53h137l-86 -118q90 -80 139.5 -195t49.5 -250q0 -125 -42 -232.5t-118 -186t-183.5 -124t-238.5 -45.5q-90 0 -167 20.5t-142 59.5l-41 -55h-138l89 121q-88 80 -135.5 193.5 t-47.5 248.5zM260 563q0 -195 111 -317l522 708q-47 27 -100.5 41.5t-114.5 14.5q-96 0 -173 -34t-131.5 -93.5t-84 -141.5t-29.5 -178zM457 176q94 -59 221 -59q94 0 172 33.5t132 94t84 141.5t30 177q0 98 -31 180t-86 142z" />
<glyph unicode="&#xf9;" horiz-adv-x="1275" d="M154 434v692h161v-682q0 -152 82 -239.5t240 -87.5t241 88t83 239v682h161v-692q0 -209 -121.5 -334t-363.5 -125q-121 0 -211 33t-150.5 93.5t-91 144.5t-30.5 188zM309 1536h160l303 -295h-117z" />
<glyph unicode="&#xfa;" horiz-adv-x="1275" d="M154 434v692h161v-682q0 -152 82 -239.5t240 -87.5t241 88t83 239v682h161v-692q0 -209 -121.5 -334t-363.5 -125q-121 0 -211 33t-150.5 93.5t-91 144.5t-30.5 188zM508 1241l303 295h160l-346 -295h-117z" />
<glyph unicode="&#xfb;" horiz-adv-x="1275" d="M154 434v692h161v-682q0 -152 82 -239.5t240 -87.5t241 88t83 239v682h161v-692q0 -209 -121.5 -334t-363.5 -125q-121 0 -211 33t-150.5 93.5t-91 144.5t-30.5 188zM367 1241l194 295h148l200 -295h-104l-170 217l-164 -217h-104z" />
<glyph unicode="&#xfc;" horiz-adv-x="1275" d="M154 434v692h161v-682q0 -152 82 -239.5t240 -87.5t241 88t83 239v682h161v-692q0 -209 -121.5 -334t-363.5 -125q-121 0 -211 33t-150.5 93.5t-91 144.5t-30.5 188zM332 1352q0 41 27.5 67.5t68.5 26.5q39 0 66.5 -26.5t27.5 -67.5q0 -39 -27.5 -67t-66.5 -28 q-41 0 -68.5 28t-27.5 67zM756 1352q0 41 27.5 67.5t66.5 26.5q41 0 68.5 -26.5t27.5 -67.5q0 -39 -27.5 -67t-68.5 -28q-39 0 -66.5 28t-27.5 67z" />
<glyph unicode="&#xfd;" horiz-adv-x="1120" d="M14 1126h187l364 -512l357 512h184l-463 -649v-477h-160v477zM430 1241l303 295h160l-346 -295h-117z" />
<glyph unicode="&#xfe;" horiz-adv-x="1071" d="M154 0v1126h161v-188h322q92 0 160.5 -27.5t116 -75t71 -109.5t23.5 -132t-23.5 -132.5t-70 -110.5t-116 -75.5t-161.5 -27.5h-322v-248h-161zM315 389h308q111 0 166 57.5t55 147.5q0 86 -55.5 144.5t-165.5 58.5h-308v-408z" />
<glyph unicode="&#xff;" horiz-adv-x="1120" d="M14 1126h187l364 -512l357 512h184l-463 -649v-477h-160v477zM258 1352q0 41 27.5 67.5t68.5 26.5q39 0 67 -26.5t28 -67.5q0 -39 -28 -67t-67 -28q-41 0 -68.5 28t-27.5 67zM682 1352q0 41 27.5 67.5t66.5 26.5q41 0 68.5 -26.5t27.5 -67.5q0 -39 -27.5 -67t-68.5 -28 q-39 0 -66.5 28t-27.5 67z" />
<glyph unicode="&#x152;" horiz-adv-x="2263" d="M104 682q0 152 48.5 281t135.5 223t208.5 147t271.5 53q145 0 278.5 -66.5t210.5 -201.5v248h895v-152h-725v-440h711v-151h-711v-471h725v-152h-895v248q-78 -135 -211 -204t-278 -69q-150 0 -271.5 53.5t-208.5 148.5t-135.5 224t-48.5 281zM281 682 q0 -119 34.5 -220.5t101 -176t161 -116.5t210.5 -42q158 0 283 83t186 249v448q-61 166 -186 247t-283 81q-117 0 -211 -42t-160.5 -115.5t-101 -175t-34.5 -220.5z" />
<glyph unicode="&#x153;" horiz-adv-x="1951" d="M96 563q0 125 40 232.5t113 186.5t176 124t230 45q131 0 236.5 -55.5t171.5 -169.5v200h784v-141h-624v-338h612v-141h-612v-365h624v-141h-784v203q-66 -117 -171.5 -172.5t-236.5 -55.5q-127 0 -230 45.5t-176 124t-113 186t-40 232.5zM260 563q0 -96 29.5 -177 t84 -141.5t132.5 -94t174 -33.5q127 0 230.5 66.5t152.5 213.5v336q-25 74 -65 126t-91 86t-108.5 49.5t-118.5 15.5q-96 0 -174 -34t-132.5 -93.5t-84 -141.5t-29.5 -178z" />
<glyph unicode="&#x178;" horiz-adv-x="1282" d="M18 1366h199l424 -635l424 635h199l-537 -788v-578h-170v578zM340 1583q0 41 27.5 67.5t68.5 26.5q39 0 66.5 -26.5t27.5 -67.5q0 -39 -27.5 -66.5t-66.5 -27.5q-41 0 -68.5 27.5t-27.5 66.5zM764 1583q0 41 27.5 67.5t66.5 26.5q41 0 68.5 -26.5t27.5 -67.5 q0 -39 -27.5 -66.5t-68.5 -27.5q-39 0 -66.5 27.5t-27.5 66.5z" />
<glyph unicode="&#x2c6;" horiz-adv-x="542" d="M0 1139l195 295h147l201 -295h-105l-170 217l-164 -217h-104z" />
<glyph unicode="&#x2dc;" horiz-adv-x="641" d="M0 1147q0 121 50 197.5t149 76.5q55 0 87.5 -29.5t56.5 -64.5t47.5 -64.5t60.5 -29.5q41 0 69.5 42t28.5 134h92q0 -121 -50.5 -197.5t-148.5 -76.5q-55 0 -87.5 29.5t-56.5 64.5t-47.5 64.5t-60.5 29.5q-41 0 -69.5 -42t-28.5 -134h-92z" />
<glyph unicode="&#x2000;" horiz-adv-x="911" />
<glyph unicode="&#x2001;" horiz-adv-x="1823" />
<glyph unicode="&#x2002;" horiz-adv-x="911" />
<glyph unicode="&#x2003;" horiz-adv-x="1823" />
<glyph unicode="&#x2004;" horiz-adv-x="607" />
<glyph unicode="&#x2005;" horiz-adv-x="455" />
<glyph unicode="&#x2006;" horiz-adv-x="303" />
<glyph unicode="&#x2007;" horiz-adv-x="303" />
<glyph unicode="&#x2008;" horiz-adv-x="227" />
<glyph unicode="&#x2009;" horiz-adv-x="364" />
<glyph unicode="&#x200a;" horiz-adv-x="101" />
<glyph unicode="&#x2010;" horiz-adv-x="614" d="M61 428v135h492v-135h-492z" />
<glyph unicode="&#x2011;" horiz-adv-x="614" d="M61 428v135h492v-135h-492z" />
<glyph unicode="&#x2012;" horiz-adv-x="614" d="M61 428v135h492v-135h-492z" />
<glyph unicode="&#x2013;" horiz-adv-x="1214" d="M61 428v135h1092v-135h-1092z" />
<glyph unicode="&#x2014;" horiz-adv-x="1705" d="M61 428v135h1584v-135h-1584z" />
<glyph unicode="&#x2018;" horiz-adv-x="471" d="M98 1079q0 94 47.5 176t116.5 131l78 -61q-49 -33 -88 -87t-45 -103q4 0 12 2t17 2q41 0 69.5 -30t28.5 -75q0 -47 -31 -78.5t-78 -31.5q-51 0 -89 39.5t-38 115.5z" />
<glyph unicode="&#x2019;" horiz-adv-x="471" d="M117 985q49 33 88 87t45 104q-8 -4 -29 -5q-41 0 -69.5 30t-28.5 75t30.5 77.5t77.5 32.5q53 0 91 -39.5t38 -115.5q0 -94 -47 -176t-118 -133z" />
<glyph unicode="&#x201a;" horiz-adv-x="471" d="M117 -197q49 33 88 86.5t45 104.5q-8 -4 -29 -4q-41 0 -69.5 29.5t-28.5 74.5t30.5 78t77.5 33q53 0 91 -41t38 -115q0 -94 -47 -176t-118 -133z" />
<glyph unicode="&#x201c;" horiz-adv-x="798" d="M111 1079q0 94 47 176t118 131l76 -61q-49 -33 -87 -87t-44 -103q2 0 10.5 2t16.5 2q43 0 71.5 -30t28.5 -75q0 -47 -31.5 -78.5t-78.5 -31.5q-51 0 -89 39.5t-38 115.5zM438 1079q0 94 47 176t119 131l76 -61q-49 -33 -87 -87t-44 -103q4 0 12 2t14 2q43 0 72 -30 t29 -75q0 -47 -32 -78.5t-79 -31.5q-51 0 -89 39.5t-38 115.5z" />
<glyph unicode="&#x201d;" horiz-adv-x="798" d="M117 985q49 33 88 87t45 104q-8 -4 -29 -5q-41 0 -69.5 30t-28.5 75t30.5 77.5t77.5 32.5q53 0 91 -39.5t38 -115.5q0 -94 -47 -176t-118 -133zM446 985q49 33 87 87t45 104q-2 -2 -11.5 -3.5t-15.5 -1.5q-43 0 -71.5 30t-28.5 75t31.5 77.5t78.5 32.5q51 0 89 -39.5 t38 -115.5q0 -94 -47 -176t-119 -133z" />
<glyph unicode="&#x201e;" horiz-adv-x="798" d="M117 -197q49 33 88 86.5t45 104.5q-8 -4 -29 -4q-41 0 -69.5 29.5t-28.5 74.5t30.5 78t77.5 33q53 0 91 -41t38 -115q0 -94 -47 -176t-118 -133zM446 -197q49 33 87 86.5t45 104.5q-2 -2 -11.5 -3t-15.5 -1q-43 0 -71.5 29.5t-28.5 74.5t31.5 78t78.5 33q51 0 89 -41 t38 -115q0 -94 -47 -176t-119 -133z" />
<glyph unicode="&#x2022;" horiz-adv-x="733" d="M147 496q0 45 17.5 85t48.5 70.5t71 48t85 17.5t85 -17.5t70.5 -48t48 -70.5t17.5 -85t-17.5 -85t-48 -70t-70.5 -47.5t-85 -17.5t-85 17.5t-71 47.5t-48.5 70t-17.5 85z" />
<glyph unicode="&#x2026;" horiz-adv-x="1415" d="M123 92q0 47 32.5 80t80.5 33q47 0 79.5 -33t32.5 -80q0 -45 -32.5 -78.5t-79.5 -33.5t-80 33.5t-33 78.5zM594 92q0 47 32.5 80t80.5 33q47 0 79.5 -33t32.5 -80q0 -45 -32.5 -78.5t-79.5 -33.5t-80 33.5t-33 78.5zM1067 92q0 47 33 80t80 33t78.5 -33t31.5 -80 q0 -45 -31.5 -78.5t-78.5 -33.5t-80 33.5t-33 78.5z" />
<glyph unicode="&#x202f;" horiz-adv-x="364" />
<glyph unicode="&#x2039;" horiz-adv-x="604" d="M61 498l328 362h154l-328 -362l328 -369h-154z" />
<glyph unicode="&#x203a;" horiz-adv-x="604" d="M61 129l328 369l-328 362h154l328 -362l-328 -369h-154z" />
<glyph unicode="&#x205f;" horiz-adv-x="455" />
<glyph unicode="&#x20ac;" horiz-adv-x="1249" d="M63 389v98h95q-4 18 -4 38v40q0 18 1 35.5t3 36.5h-95v98h113q27 94 81 171t129 131.5t169 84t201 29.5q152 0 263 -63.5t183 -167.5l-129 -72q-51 74 -135 118t-182 44q-143 0 -252 -75t-156 -200h492v-98h-518q-2 -18 -3.5 -35.5t-1.5 -36.5v-39.5t5 -38.5h518v-98 h-490q47 -125 155.5 -198.5t250.5 -73.5q98 0 184 45t133 117l131 -72q-76 -104 -186.5 -168t-261.5 -64q-104 0 -198.5 30t-170.5 83t-130 130t-81 171h-113z" />
<glyph unicode="&#x2122;" horiz-adv-x="929" d="M35 1313v53h311v-53h-127v-398h-57v398h-127zM420 915v451h88l131 -328l131 328h88v-451h-57v373l-154 -373h-16l-154 373v-373h-57z" />
<glyph unicode="&#x25fc;" horiz-adv-x="1126" d="M0 0v1126h1126v-1126h-1126z" />
</font>
</defs>
</svg>
