<?xml version="1.0" standalone="no"?>
<!DOCTYPE svg PUBLIC "-//W3C//DTD SVG 1.1//EN" "http://www.w3.org/Graphics/SVG/1.1/DTD/svg11.dtd" >
<svg xmlns="http://www.w3.org/2000/svg" xmlns:xlink="http://www.w3.org/1999/xlink" version="1.1">
<metadata></metadata>
<defs>
<font id="proxima_nova_scosfbold" horiz-adv-x="1222" >
<font-face units-per-em="2048" ascent="1618" descent="-430" />
<missing-glyph horiz-adv-x="526" />
<glyph unicode="&#xfb01;" horiz-adv-x="1570" d="M129 0v1126h850v-235h-580v-201h568v-235h-568v-455h-270zM1171 0v1126h270v-1126h-270z" />
<glyph unicode="&#xfb02;" horiz-adv-x="2002" d="M129 0v1126h850v-235h-580v-201h568v-235h-568v-455h-270zM1171 0v1126h270v-890h496v-236h-766z" />
<glyph horiz-adv-x="0" />
<glyph unicode="&#xd;" horiz-adv-x="0" />
<glyph horiz-adv-x="0" />
<glyph horiz-adv-x="0" />
<glyph unicode=" "  horiz-adv-x="526" />
<glyph unicode="&#x09;" horiz-adv-x="526" />
<glyph unicode="&#xa0;" horiz-adv-x="526" />
<glyph unicode="!" horiz-adv-x="417" d="M45 143q0 33 13.5 63t36 52.5t52 35.5t64.5 13q33 0 63.5 -13t52 -35.5t35 -52.5t13.5 -63q0 -68 -48 -117t-116 -49t-117 49.5t-49 116.5zM68 1126h284l-37 -706h-209z" />
<glyph unicode="&#x22;" horiz-adv-x="831" d="M90 1245q0 59 41 100t100 41q57 0 99.5 -40.5t42.5 -100.5q0 -8 -4 -32.5t-10.5 -59.5t-13.5 -77t-15 -85q-18 -100 -41 -223h-115q-25 123 -43 223q-8 43 -15 85t-13.5 77t-9.5 59.5t-3 32.5zM461 1245q0 59 41 100t100 41t100 -40.5t41 -100.5q0 -8 -4 -32.5t-10 -59.5 t-13 -77t-16 -85q-18 -100 -41 -223h-114q-25 123 -43 223q-8 43 -15.5 85t-13.5 77t-9 59.5t-3 32.5z" />
<glyph unicode="#" horiz-adv-x="1058" d="M35 307l43 144h162l77 233h-161l43 139h166l102 303h174l-104 -303h155l105 303h174l-105 -303h158l-43 -139h-162l-80 -233h166l-45 -144h-168l-102 -307h-174l102 307h-156l-100 -307h-174l102 307h-155zM412 451h153l78 233h-154z" />
<glyph unicode="$" horiz-adv-x="1056" d="M37 145l123 209q47 -47 121.5 -85t162.5 -54v250q-68 14 -133 36.5t-118.5 60.5t-86 95.5t-32.5 143.5q0 63 25.5 120.5t73.5 103.5t116.5 78t154.5 42v141h187v-141q109 -14 196.5 -54t157.5 -102l-127 -194q-45 41 -104.5 69.5t-122.5 42.5v-221q68 -16 135.5 -38.5 t121.5 -61.5t88 -99.5t34 -148.5q0 -145 -96.5 -239.5t-282.5 -116.5v-134h-187v132q-135 10 -238.5 56t-168.5 109zM350 809q0 -29 25.5 -48.5t68.5 -31.5v180q-94 -26 -94 -100zM631 217q53 14 77.5 43t24.5 68q0 35 -27.5 56.5t-74.5 35.5v-203z" />
<glyph unicode="%" horiz-adv-x="1255" d="M49 866q0 59 19.5 111.5t56.5 90.5t88 60.5t113 22.5q63 0 114.5 -22.5t88 -60.5t57 -90.5t20.5 -111.5t-20.5 -110t-57 -89t-88 -59.5t-114.5 -21.5q-61 0 -112.5 21.5t-88.5 59.5t-56.5 89t-19.5 110zM162 0l784 1126h148l-787 -1126h-145zM207 866q0 -66 33.5 -105.5 t85.5 -39.5q53 0 88 39.5t35 105.5q0 68 -35 109t-88 41q-51 0 -85 -41t-34 -109zM653 262q0 59 19.5 110.5t55.5 90.5t87 60.5t113 21.5q63 0 114.5 -21.5t88 -60.5t56 -90.5t19.5 -110.5t-19.5 -110.5t-56 -90t-88 -60t-114.5 -21.5q-61 0 -112.5 21.5t-87.5 60t-55.5 90 t-19.5 110.5zM807 262q0 -68 33.5 -106.5t87.5 -38.5q53 0 88 39.5t35 105.5t-35 107t-88 41t-87 -41t-34 -107z" />
<glyph unicode="&#x26;" horiz-adv-x="1161" d="M43 311q0 63 20.5 113.5t54.5 89.5t80 68.5t95 54.5q-35 61 -54.5 119.5t-19.5 117.5t25.5 109.5t71.5 87.5t107.5 58.5t135.5 21.5q63 0 120.5 -16.5t100.5 -48t68.5 -77.5t25.5 -104q0 -66 -24.5 -114t-64.5 -83.5t-91 -62.5t-104 -51q23 -29 47.5 -56.5t48.5 -54.5 q25 -31 49.5 -58.5t46.5 -51.5q70 106 105 217l190 -84q-35 -76 -74.5 -145.5t-87.5 -129.5q53 -53 108.5 -109t125.5 -122h-303q-23 18 -43.5 38.5t-42.5 43.5q-72 -49 -152 -77t-172 -28q-84 0 -155.5 21.5t-125 63.5t-83 104.5t-29.5 144.5zM291 330q0 -74 50 -123 t126 -49q43 0 83 14t79 41q-35 37 -67 71.5t-56 65.5q-33 37 -61.5 73t-55.5 71q-45 -31 -71.5 -70t-26.5 -94zM449 868q0 -33 13 -68.5t36 -74.5q72 33 122 72t50 98q0 41 -29 65.5t-72 24.5q-53 0 -86.5 -34t-33.5 -83z" />
<glyph unicode="'" horiz-adv-x="460" d="M90 1245q0 59 41 100t100 41q57 0 99.5 -40.5t42.5 -100.5q0 -8 -4 -32.5t-10.5 -59.5t-13.5 -77t-15 -85q-18 -100 -41 -223h-115q-25 123 -43 223q-8 43 -15 85t-13.5 77t-9.5 59.5t-3 32.5z" />
<glyph unicode="(" horiz-adv-x="608" d="M84 498q0 123 22.5 248.5t64.5 243.5t102.5 223.5t136.5 189.5l161 -123q-51 -94 -90 -184t-64.5 -185.5t-38.5 -197t-13 -215.5q0 -115 13 -216.5t38.5 -195.5t64.5 -184t90 -183l-161 -127q-76 84 -136.5 189.5t-102.5 223.5t-64.5 244t-22.5 249z" />
<glyph unicode=")" horiz-adv-x="610" d="M37 -281q51 92 90 182.5t65.5 184.5t39 195.5t12.5 216.5t-12.5 216t-39 196.5t-65.5 185.5t-90 184l162 123q76 -84 136 -189.5t103 -223.5t65.5 -243.5t22.5 -248.5t-22.5 -249t-65.5 -244t-103.5 -223.5t-135.5 -189.5z" />
<glyph unicode="*" horiz-adv-x="718" d="M51 965l199 104l-199 102l66 111l188 -121l-10 225h129l-10 -225l188 121l66 -111l-199 -102l199 -104l-66 -111l-188 121l10 -225h-129l10 225l-188 -121z" />
<glyph unicode="+" horiz-adv-x="1032" d="M59 610v162h369v402h178v-402h367v-162h-367v-415h-178v415h-369z" />
<glyph unicode="," horiz-adv-x="522" d="M96 145q0 68 48.5 116t113.5 48q72 0 127 -54.5t55 -154.5q0 -117 -57 -215t-154 -166l-112 93q25 12 50.5 33.5t47 48t37.5 55t22 55.5q-4 -2 -15 -4t-23 -2q-59 0 -99.5 41t-40.5 106z" />
<glyph unicode="-" horiz-adv-x="614" d="M61 385v221h492v-221h-492z" />
<glyph unicode="." horiz-adv-x="526" d="M96 143q0 68 49.5 117t116.5 49q68 0 117 -49t49 -117t-49 -117t-117 -49t-117 49.5t-49 116.5z" />
<glyph unicode="/" horiz-adv-x="673" d="M0 -41l485 1448h189l-486 -1448h-188z" />
<glyph unicode="0" horiz-adv-x="1269" d="M70 563q0 117 33.5 222.5t104.5 187.5t176 130t251 48q143 0 249.5 -48t177.5 -130t104.5 -187.5t33.5 -222.5q0 -115 -33.5 -221t-104.5 -188t-177.5 -130.5t-249.5 -48.5q-145 0 -250.5 48.5t-176.5 130.5t-104.5 188.5t-33.5 220.5zM367 563q0 -68 16 -128t50 -104 t84 -71t118 -27t118 27t83.5 71t50 104t16.5 128t-16.5 128.5t-50 104.5t-84 70.5t-117.5 26.5q-68 0 -118 -26.5t-84 -70.5t-50 -104.5t-16 -128.5z" />
<glyph unicode="1" horiz-adv-x="841" d="M23 694l430 432h254v-1126h-291v752l-228 -232z" />
<glyph unicode="2" horiz-adv-x="1191" d="M57 928q100 115 244.5 169t288.5 54q115 0 207 -26.5t156.5 -75t99 -118t34.5 -155.5q0 -80 -37.5 -157.5t-101 -145t-146.5 -124t-173 -93.5h436v-256h-963v229q195 66 327 133.5t213 131t116 123t35 110.5q0 76 -59.5 121t-147.5 45q-215 0 -363 -158z" />
<glyph unicode="3" horiz-adv-x="1185" d="M25 -45l153 195q70 -74 172.5 -115t202.5 -41q125 0 191.5 48t66.5 126q0 82 -65.5 120t-208.5 38h-48.5t-50 -1t-44 -2t-27.5 -1v262q8 0 29.5 -1t46 -1h50h44.5q115 0 184.5 34.5t69.5 110.5q0 82 -74 122t-180 40q-201 0 -349 -141l-145 182q84 94 213 155.5t309 61.5 q119 0 215.5 -25.5t163 -74t102 -117t35.5 -154.5q0 -66 -25.5 -118t-67.5 -92t-95 -65.5t-111 -35.5q51 -6 108.5 -28.5t103.5 -63.5t77 -100.5t31 -135.5q0 -88 -38 -161.5t-108.5 -127t-170 -83t-222.5 -29.5q-188 0 -325.5 63.5t-212.5 155.5z" />
<glyph unicode="4" d="M51 55v232l543 839h401v-815h176v-256h-176v-295h-290v295h-654zM336 311h369v557z" />
<glyph unicode="5" horiz-adv-x="1245" d="M100 -59l162 202q70 -72 162 -110.5t201 -38.5q123 0 188.5 59.5t65.5 143.5q0 92 -64.5 147t-181.5 55q-86 0 -155.5 -25.5t-131.5 -84.5l-203 55v782h938v-256h-647v-333q49 49 128 81.5t173 32.5q86 0 166 -30.5t140.5 -87t96.5 -138.5t36 -186q0 -109 -39 -196 t-111 -148.5t-173 -95t-224 -33.5q-180 0 -309.5 54t-217.5 151z" />
<glyph unicode="6" horiz-adv-x="1245" d="M70 680q0 156 43 285t123.5 223t199.5 146t271 52q125 0 227 -37.5t176 -103.5l-131 -223q-55 53 -117.5 79.5t-154.5 26.5q-76 0 -138.5 -29.5t-107.5 -81.5t-70.5 -123t-25.5 -153q0 -18 2 -28q25 35 60.5 66.5t81.5 56t99.5 39t108.5 14.5q92 0 176 -29t148.5 -85 t103.5 -139t39 -192q0 -100 -38 -186t-107.5 -148.5t-166 -98.5t-213.5 -36q-156 0 -267 56.5t-183 152t-105.5 223.5t-33.5 273zM367 510q4 -49 21.5 -98.5t50 -89t82.5 -64.5t122 -25q59 0 104.5 18.5t76 47.5t47 64.5t16.5 70.5q0 53 -21.5 92t-56.5 63.5t-80 37 t-94 12.5q-78 0 -148.5 -34t-119.5 -95z" />
<glyph unicode="7" horiz-adv-x="1116" d="M49 870v256h1026v-202l-508 -1164h-319l489 1110h-688z" />
<glyph unicode="8" horiz-adv-x="1241" d="M72 354q0 61 22.5 116.5t62.5 99.5t93 78t115 57q-57 20 -106.5 48.5t-86.5 67.5t-57.5 90.5t-20.5 114.5q0 96 46 165t122 112t169 63t190 20q94 0 188 -20t169 -63t122 -112t47 -165q0 -63 -21.5 -114.5t-58.5 -90.5t-86 -67.5t-104 -48.5q61 -23 114 -57t93 -78 t62.5 -99t22.5 -117q0 -96 -45 -166.5t-121.5 -117.5t-176 -71t-205.5 -24q-109 0 -207.5 24t-175 71t-121.5 117.5t-45 166.5zM367 395q0 -74 72.5 -118t181.5 -44q51 0 98 11.5t81 33t54 51t20 66.5q0 43 -27.5 74t-67.5 52.5t-84 34.5t-74 17q-33 -4 -76 -17t-83 -34.5 t-67.5 -52.5t-27.5 -74zM389 977q0 -37 24.5 -64.5t59.5 -46t76 -30t72 -17.5q31 6 70.5 17.5t75.5 30t59.5 46t23.5 64.5q0 72 -64.5 111.5t-164.5 39.5q-102 0 -167 -39.5t-65 -111.5z" />
<glyph unicode="9" horiz-adv-x="1245" d="M63 680q0 100 38 185t106.5 148.5t165 99.5t213.5 36q156 0 267.5 -56.5t183 -151.5t105.5 -224t34 -273q0 -156 -43 -285.5t-124 -223t-199.5 -145.5t-270.5 -52q-125 0 -227.5 38t-174.5 103l129 223q55 -53 117.5 -79.5t155.5 -26.5q84 0 148.5 32.5t107.5 87 t64.5 123t21.5 142.5v31q-25 -35 -62 -67t-83 -56.5t-99 -38.5t-109 -14q-92 0 -176 28.5t-148.5 85t-102.5 139t-38 191.5zM358 690q0 -53 21.5 -92t56.5 -63.5t81 -37t93 -12.5q78 0 148.5 34t120.5 95q-4 49 -21.5 98.5t-50.5 89.5t-83 64.5t-122 24.5q-59 0 -104 -18.5 t-76 -47t-47.5 -64.5t-16.5 -71z" />
<glyph unicode=":" horiz-adv-x="503" d="M96 143q0 68 49.5 117t116.5 49q68 0 117 -49t49 -117t-49 -117t-117 -49t-117 49.5t-49 116.5zM96 838q0 68 49.5 117t116.5 49q68 0 117 -49.5t49 -116.5q0 -68 -49 -117t-117 -49t-117 49t-49 117z" />
<glyph unicode=";" horiz-adv-x="522" d="M96 154q0 68 48.5 115.5t113.5 47.5q72 0 127 -54.5t55 -156.5q0 -115 -57 -213t-154 -165l-112 92q25 12 50.5 33.5t47 48t37.5 55.5t22 55q-4 -2 -15 -4t-23 -2q-59 0 -99.5 41t-40.5 107zM96 840q0 68 49.5 116t116.5 48q68 0 117 -48.5t49 -115.5q0 -68 -49 -118 t-117 -50t-117 50t-49 118z" />
<glyph unicode="&#x3c;" horiz-adv-x="1032" d="M59 592v188l914 408v-193l-727 -311l727 -307v-193z" />
<glyph unicode="=" horiz-adv-x="1032" d="M59 412v159h914v-159h-914zM59 797v161h914v-161h-914z" />
<glyph unicode="&#x3e;" horiz-adv-x="1032" d="M59 184v193l727 307l-727 311v193l914 -408v-188z" />
<glyph unicode="?" horiz-adv-x="811" d="M10 981q72 82 175.5 125t220.5 43q86 0 155.5 -19.5t118.5 -54.5t74.5 -81t25.5 -99q0 -59 -21.5 -102t-54 -76t-71.5 -57.5t-72 -47t-54.5 -46t-21.5 -52.5q0 -41 37 -70l-207 -57q-31 31 -43 68t-12 65q0 68 40 111t87 75.5t87 60.5t40 69q0 39 -34 64.5t-101 25.5 q-78 0 -138.5 -30t-103.5 -79zM236 143q0 68 49 117t116 49q68 0 117 -49t49 -117t-49 -117t-117 -49t-116.5 49.5t-48.5 116.5z" />
<glyph unicode="@" horiz-adv-x="1603" d="M72 500q0 164 67.5 310t179 257t259 175.5t307.5 64.5q147 0 266 -50.5t204 -135.5t130 -198.5t45 -242.5t-38 -224.5t-97.5 -157.5t-131 -93t-139.5 -31q-92 0 -140 46t-58 106l-2 12q-53 -76 -132 -120t-163 -44q-74 0 -133.5 25.5t-100.5 71.5t-62.5 109.5 t-21.5 137.5q0 102 39 193.5t103.5 160t147.5 108.5t173 40q94 0 158.5 -39t97.5 -98l23 108h231l-104 -499q-2 -8 -4 -23.5t-2 -26.5q0 -47 21.5 -69.5t53.5 -22.5q31 0 65 18.5t62.5 58.5t47 102.5t18.5 150.5q0 121 -40 221t-114 173t-178 113t-233 40 q-145 0 -276.5 -59.5t-231 -159t-157.5 -230.5t-58 -274q0 -121 43 -224.5t119.5 -180t183 -121t231.5 -44.5q104 0 196.5 30t176.5 83l43 -61q-96 -61 -203.5 -95t-222.5 -34q-139 0 -258 49t-206 136t-136 205t-49 253zM551 539q0 -80 45 -130.5t123 -50.5q41 0 74.5 12.5 t62.5 32t51.5 43t38.5 48.5l51 237q-16 35 -56 70t-110 35q-61 0 -112 -26t-89 -67t-58.5 -95t-20.5 -109z" />
<glyph unicode="A" horiz-adv-x="1400" d="M-8 0l526 1366h365l526 -1366h-330l-86 231h-585l-86 -231h-330zM487 487h426l-213 588z" />
<glyph unicode="B" horiz-adv-x="1357" d="M135 0v1366h719q98 0 172 -28.5t123 -77t73.5 -112t24.5 -130.5q0 -63 -18.5 -116.5t-51 -93.5t-74.5 -66.5t-91 -36.5q55 -8 103 -38t83 -74t55.5 -101.5t20.5 -120.5q0 -78 -25.5 -145.5t-75 -118t-124 -79t-172.5 -28.5h-742zM426 256h377q82 0 128 41t46 115 q0 66 -44 110.5t-130 44.5h-377v-311zM426 823h365q74 0 116.5 39t42.5 105q0 63 -43 103t-116 40h-365v-287z" />
<glyph unicode="C" horiz-adv-x="1406" d="M70 682q0 158 56 288t154.5 223t231.5 144.5t287 51.5q113 0 202 -28t158.5 -75t120.5 -107.5t88 -123.5l-250 -123q-43 84 -129 141t-190 57q-94 0 -173 -33.5t-136.5 -94t-89 -142.5t-31.5 -178t31.5 -179t89 -142.5t136.5 -93.5t173 -34q104 0 190 57.5t129 141.5 l250 -121q-37 -63 -88 -123.5t-120.5 -107.5t-158.5 -76t-202 -29q-154 0 -287 51.5t-231.5 144.5t-154.5 223t-56 288z" />
<glyph unicode="D" horiz-adv-x="1470" d="M135 0v1366h539q160 0 294 -49t229 -138t148.5 -215t53.5 -280q0 -156 -53.5 -282t-148.5 -215t-228 -138t-293 -49h-541zM426 256h248q100 0 180 34t135 92t84 136t29 166q0 90 -27.5 168t-81 135t-133.5 90t-184 33h-250v-854z" />
<glyph unicode="E" horiz-adv-x="1193" d="M135 0v1366h967v-256h-676v-287h661v-256h-661v-311h676v-256h-967z" />
<glyph unicode="F" horiz-adv-x="1169" d="M135 0v1366h967v-256h-676v-287h661v-256h-661v-567h-291z" />
<glyph unicode="G" horiz-adv-x="1474" d="M70 682q0 162 57 293t156.5 223t231.5 141.5t284 49.5q106 0 193 -25t156 -67t122 -97t92 -117l-240 -131q-47 72 -132 125t-191 53q-94 0 -173 -33.5t-136.5 -94t-89 -142.5t-31.5 -178t31.5 -179t89 -142.5t136.5 -93.5t173 -34q92 0 170 33t118 72v164h-360v254h651 v-525q-104 -117 -248.5 -186.5t-330.5 -69.5q-152 0 -284 50.5t-231.5 142.5t-156.5 222t-57 292z" />
<glyph unicode="H" horiz-adv-x="1497" d="M135 0v1366h291v-537h645v537h293v-1366h-293v575h-645v-575h-291z" />
<glyph unicode="I" horiz-adv-x="561" d="M135 0v1366h291v-1366h-291z" />
<glyph unicode="J" horiz-adv-x="995" d="M12 111l127 221q41 -39 93.5 -69t123.5 -30q98 0 155.5 60.5t57.5 159.5v913h293v-917q0 -121 -35.5 -210t-100 -147.5t-153 -87.5t-192.5 -29t-199.5 32t-169.5 104z" />
<glyph unicode="K" horiz-adv-x="1302" d="M135 0v1366h291v-608l483 608h359l-543 -641l580 -725h-359l-414 549l-106 -129v-420h-291z" />
<glyph unicode="L" horiz-adv-x="1054" d="M123 0v1366h293v-1110h577v-256h-870z" />
<glyph unicode="M" horiz-adv-x="1751" d="M135 0v1366h408l331 -854l332 854h410v-1366h-293v985l-385 -985h-127l-385 985v-985h-291z" />
<glyph unicode="N" horiz-adv-x="1492" d="M135 0v1366h299l633 -858v858h291v-1366h-281l-651 891v-891h-291z" />
<glyph unicode="O" horiz-adv-x="1566" d="M70 682q0 154 53 284t148.5 224t226.5 146.5t286 52.5q154 0 285 -52.5t226.5 -146.5t148.5 -224t53 -284t-53 -284t-148.5 -224t-226.5 -146.5t-285 -52.5q-156 0 -286.5 52.5t-226 146.5t-148.5 224t-53 284zM369 682q0 -96 29.5 -178t83 -141.5t130 -94.5t172.5 -35 q94 0 171 35t130.5 94.5t83 141.5t29.5 178t-29.5 178t-83 142.5t-130 94t-171.5 33.5q-96 0 -172.5 -33.5t-130 -94t-83 -142.5t-29.5 -178z" />
<glyph unicode="P" horiz-adv-x="1280" d="M135 0v1366h639q111 0 197 -35t144.5 -95t88 -140t29.5 -170t-31 -169t-89 -139.5t-143 -95.5t-196 -35h-348v-487h-291zM426 743h307q86 0 144.5 48.5t58.5 134.5t-58.5 135t-144.5 49h-307v-367z" />
<glyph unicode="Q" horiz-adv-x="1566" d="M70 682q0 154 53 284t148.5 224t226.5 146.5t286 52.5q154 0 285 -52.5t226.5 -146.5t148.5 -224t53 -284q0 -145 -47 -268t-131 -215l100 -117l-202 -166l-111 127q-72 -33 -153 -50.5t-169 -17.5q-156 0 -286.5 52.5t-226 146.5t-148.5 224t-53 284zM369 682 q0 -96 29.5 -178t83 -141.5t130 -94.5t172.5 -35q74 0 142 23l-150 176l203 166l149 -176q70 111 70 260q0 96 -29.5 178t-83 142.5t-130 94t-171.5 33.5q-96 0 -172.5 -33.5t-130 -94t-83 -142.5t-29.5 -178z" />
<glyph unicode="R" horiz-adv-x="1316" d="M135 0v1366h639q106 0 191.5 -33t145.5 -92t92 -140t32 -175q0 -90 -26.5 -160t-68.5 -120t-96.5 -82t-109.5 -44l309 -520h-336l-268 485h-213v-485h-291zM426 741h307q86 0 144.5 49.5t58.5 137.5q0 86 -58.5 134t-144.5 48h-307v-369z" />
<glyph unicode="S" horiz-adv-x="1228" d="M41 193l160 227q72 -76 182.5 -131.5t251.5 -55.5q123 0 180 46.5t57 105.5t-58 90t-145 53.5t-189.5 46t-189.5 68.5t-145.5 122t-58.5 206q0 86 36 160.5t102.5 132t162.5 90t217 32.5q326 0 533 -190l-162 -217q-84 78 -188.5 113.5t-208.5 35.5q-92 0 -142.5 -36.5 t-50.5 -98.5q0 -53 58.5 -81.5t145.5 -50t188.5 -47.5t188.5 -72t145 -123.5t58 -204.5q0 -94 -33.5 -174t-102 -138.5t-171 -92.5t-239.5 -34q-199 0 -341.5 59.5t-240.5 158.5z" />
<glyph unicode="T" horiz-adv-x="1191" d="M51 1110v256h1090v-256h-398v-1110h-292v1110h-400z" />
<glyph unicode="U" horiz-adv-x="1503" d="M135 547v819h295v-811q0 -143 81 -232.5t241 -89.5t239.5 89.5t79.5 232.5v811h297v-819q0 -127 -38 -232.5t-114.5 -180.5t-192 -117t-271.5 -42t-271.5 42t-192.5 117t-115 180.5t-38 232.5z" />
<glyph unicode="V" horiz-adv-x="1400" d="M-8 1366h330l378 -1049l379 1049h330l-526 -1366h-365z" />
<glyph unicode="W" horiz-adv-x="1880" d="M2 1366h326l239 -987l260 987h228l258 -987l239 987h326l-389 -1366h-309l-240 938l-238 -938h-309z" />
<glyph unicode="X" horiz-adv-x="1368" d="M-6 0l495 700l-464 666h346l313 -467l309 467h350l-464 -664l495 -702h-348l-342 500l-344 -500h-346z" />
<glyph unicode="Y" horiz-adv-x="1320" d="M-8 1366h332l338 -547l337 547h330l-522 -807v-559h-291v559z" />
<glyph unicode="Z" horiz-adv-x="1212" d="M86 0v236l645 874h-645v256h1026v-233l-645 -877h659v-256h-1040z" />
<glyph unicode="[" horiz-adv-x="573" d="M96 -389v1778h443v-175h-254v-1429h254v-174h-443z" />
<glyph unicode="\" horiz-adv-x="673" d="M0 1407h188l486 -1448h-189z" />
<glyph unicode="]" horiz-adv-x="573" d="M37 -215h254v1429h-254v175h440v-1778h-440v174z" />
<glyph unicode="^" horiz-adv-x="903" d="M39 682l319 684h191l315 -684h-192l-221 506l-220 -506h-192z" />
<glyph unicode="_" horiz-adv-x="1155" d="M-6 -82h1167v-174h-1167v174z" />
<glyph unicode="`" horiz-adv-x="514" d="M0 1434h240l274 -295h-182z" />
<glyph unicode="a" d="M-10 0l456 1126h330l457 -1126h-303l-74 186h-489l-72 -186h-305zM444 422h334l-166 430z" />
<glyph unicode="b" horiz-adv-x="1200" d="M129 0v1126h629q86 0 150.5 -23.5t108.5 -63.5t65.5 -92t21.5 -109q0 -100 -56.5 -167t-136.5 -89q94 -23 155.5 -97.5t61.5 -177.5q0 -63 -22.5 -119.5t-66.5 -97.5t-110.5 -65.5t-152.5 -24.5h-647zM399 236h326q57 0 92 28.5t35 79.5q0 47 -34 79t-93 32h-326v-219z M399 692h316q53 0 83.5 28t30.5 71q0 47 -30.5 73.5t-83.5 26.5h-316v-199z" />
<glyph unicode="c" horiz-adv-x="1198" d="M66 563q0 131 46 238.5t129 185.5t194.5 121t244.5 43q90 0 166 -22.5t136 -62.5t106.5 -92t76.5 -110l-225 -108q-35 70 -104.5 113.5t-155.5 43.5q-74 0 -136.5 -26.5t-107.5 -73.5t-70.5 -110.5t-25.5 -139.5q0 -74 25.5 -138.5t70.5 -111.5t107.5 -73.5t136.5 -26.5 q86 0 155.5 44t104.5 114l227 -107q-33 -59 -79 -111.5t-106 -92.5t-136 -62.5t-166 -22.5q-133 0 -244.5 43t-194.5 121t-129 186.5t-46 237.5z" />
<glyph unicode="d" horiz-adv-x="1282" d="M129 0v1126h473q139 0 253 -39.5t193.5 -113.5t124 -178.5t44.5 -231.5t-44.5 -231.5t-124 -178t-193.5 -113.5t-253 -40h-473zM399 236h203q84 0 147.5 26.5t106.5 70.5t64.5 103.5t21.5 126.5q0 68 -20.5 128.5t-61.5 104.5t-105.5 69.5t-152.5 25.5h-203v-655z" />
<glyph unicode="e" horiz-adv-x="1064" d="M129 0v1126h850v-235h-580v-201h568v-235h-568v-219h580v-236h-850z" />
<glyph unicode="f" horiz-adv-x="1042" d="M129 0v1126h850v-235h-580v-201h568v-235h-568v-455h-270z" />
<glyph unicode="g" horiz-adv-x="1261" d="M66 563q0 133 48 241.5t131 185.5t195.5 119t243.5 42q82 0 153.5 -19.5t131 -53.5t105.5 -77t79 -92l-219 -127q-41 55 -104.5 92t-145.5 37q-76 0 -138.5 -25.5t-107.5 -71.5t-70.5 -110.5t-25.5 -140.5t25.5 -139.5t70.5 -110.5t107.5 -73.5t138.5 -26.5t131 25.5 t90 54.5v119h-268v223h539v-445q-92 -98 -216 -156.5t-276 -58.5q-131 0 -243.5 42t-195.5 119t-131 185.5t-48 241.5z" />
<glyph unicode="h" horiz-adv-x="1333" d="M129 0v1126h270v-432h535v432h270v-1126h-270v459h-535v-459h-270z" />
<glyph unicode="i" horiz-adv-x="528" d="M129 0v1126h270v-1126h-270z" />
<glyph unicode="j" horiz-adv-x="886" d="M8 96l109 205q35 -37 80 -62.5t104 -25.5q86 0 135 48t49 130v735h273v-757q0 -102 -32 -176t-89 -122t-137 -72t-178 -24q-88 0 -169 30t-145 91z" />
<glyph unicode="k" horiz-adv-x="1159" d="M129 0v1126h270v-477l400 477h327l-471 -528l502 -598h-328l-348 440l-82 -94v-346h-270z" />
<glyph unicode="l" horiz-adv-x="960" d="M129 0v1126h270v-890h496v-236h-766z" />
<glyph unicode="m" horiz-adv-x="1550" d="M129 0v1126h360l285 -700l285 700h362v-1126h-270v762l-313 -762h-125l-314 762v-762h-270z" />
<glyph unicode="n" horiz-adv-x="1329" d="M129 0v1126h291l510 -680v680h270v-1126h-276l-525 707v-707h-270z" />
<glyph unicode="o" horiz-adv-x="1341" d="M66 563q0 127 44 234.5t123.5 186.5t190.5 123t246 44q133 0 244.5 -44t191.5 -123t125 -186.5t45 -234.5t-45 -234.5t-125 -186.5t-191.5 -123t-244.5 -44q-135 0 -246 44t-190.5 123t-123.5 186.5t-44 234.5zM340 563q0 -74 23.5 -137.5t66.5 -111.5t103.5 -74.5 t136.5 -26.5t136 26.5t103 74.5t66.5 111.5t23.5 137.5t-23.5 138.5t-66.5 111.5t-103.5 73.5t-135.5 26.5q-76 0 -136.5 -26.5t-103.5 -73.5t-66.5 -111.5t-23.5 -138.5z" />
<glyph unicode="p" horiz-adv-x="1134" d="M129 0v1126h569q94 0 168 -29.5t125 -79.5t77 -118t26 -141q0 -76 -25 -143.5t-74 -118t-123.5 -80t-173.5 -29.5h-299v-387h-270zM399 623h267q74 0 112.5 37.5t38.5 97.5q0 59 -40 96t-111 37h-267v-268z" />
<glyph unicode="q" horiz-adv-x="1341" d="M66 563q0 127 44 234.5t123.5 186.5t190.5 123t246 44q133 0 244.5 -44t191.5 -123t125 -186.5t45 -234.5q0 -123 -41 -225t-115 -180l84 -97l-162 -131l-90 105q-63 -29 -133.5 -44.5t-148.5 -15.5q-135 0 -246 44t-190.5 123t-123.5 186.5t-44 234.5zM340 563 q0 -74 23.5 -137.5t66.5 -111.5t103.5 -74.5t136.5 -26.5q61 0 114 18l-112 131l159 132l113 -134q55 90 55 203q0 74 -23.5 138.5t-66.5 111.5t-103.5 73.5t-135.5 26.5q-76 0 -136.5 -26.5t-103.5 -73.5t-66.5 -111.5t-23.5 -138.5z" />
<glyph unicode="r" horiz-adv-x="1175" d="M129 0v1126h569q94 0 167 -28.5t124 -78.5t78 -117.5t27 -143.5q0 -78 -22.5 -137.5t-58.5 -102.5t-82 -68.5t-95 -35.5l268 -414h-309l-224 387h-172v-387h-270zM399 623h267q74 0 113.5 37.5t39.5 97.5q0 59 -41 96t-112 37h-267v-268z" />
<glyph unicode="s" horiz-adv-x="1056" d="M37 145l123 209q29 -29 69.5 -55.5t90 -47t103.5 -32.5t109 -12q104 0 152.5 33.5t48.5 87.5q0 47 -49 70.5t-122 41t-159 36t-158.5 55t-121.5 100t-49 170.5q0 72 31.5 135t91 111.5t142.5 76t187 27.5q145 0 259 -43t200 -119l-127 -194q-66 59 -158 92t-178 33 q-80 0 -126 -31t-46 -80q0 -41 49.5 -62.5t122 -38t158.5 -36t158.5 -57t122 -103.5t49.5 -174q0 -164 -124 -263.5t-362 -99.5q-162 0 -287.5 49.5t-199.5 120.5z" />
<glyph unicode="t" horiz-adv-x="995" d="M43 891v235h911v-235h-321v-891h-271v891h-319z" />
<glyph unicode="u" horiz-adv-x="1323" d="M129 446v680h272v-655q0 -117 67 -187.5t194 -70.5q125 0 192.5 70.5t67.5 187.5v655h272v-677q0 -104 -33 -191.5t-98.5 -150t-165.5 -97.5t-235 -35t-234.5 35t-166 96.5t-99.5 148.5t-33 191z" />
<glyph unicode="v" d="M-10 1126h307l315 -833l318 833h303l-457 -1126h-330z" />
<glyph unicode="w" horiz-adv-x="1632" d="M-2 1126h303l195 -770l215 770h211l215 -772l196 772h301l-338 -1126h-282l-199 733l-194 -733h-283z" />
<glyph unicode="x" horiz-adv-x="1196" d="M-8 0l428 578l-402 548h318l262 -368l260 368h320l-402 -546l428 -580h-317l-289 397l-289 -397h-317z" />
<glyph unicode="y" horiz-adv-x="1157" d="M-10 1126h305l287 -434l280 434h305l-452 -663v-463h-269v463z" />
<glyph unicode="z" horiz-adv-x="1073" d="M74 0v197l538 692h-538v237h911v-196l-536 -692h550v-238h-925z" />
<glyph unicode="{" horiz-adv-x="589" d="M8 426v147q53 0 80 40t27 98v350q0 76 26.5 136t70.5 103t101.5 66t118.5 23h123v-175h-123q-53 0 -91 -40.5t-38 -110.5v-379q0 -66 -21.5 -114t-72.5 -70q51 -23 72.5 -71t21.5 -114v-376q0 -70 38 -112t91 -42h123v-174h-123q-61 0 -118.5 22.5t-101.5 64.5 t-70.5 102.5t-26.5 136.5v352q0 57 -27 97t-80 40z" />
<glyph unicode="|" horiz-adv-x="442" d="M135 -41v1448h174v-1448h-174z" />
<glyph unicode="}" horiz-adv-x="589" d="M35 -215h125q53 0 91 42t38 112v376q0 66 21.5 114t72.5 71q-51 23 -72.5 70.5t-21.5 113.5v379q0 70 -38 110.5t-91 40.5h-125v175h125q61 0 118.5 -23t101.5 -66t70.5 -103t26.5 -136v-350q0 -57 26.5 -97.5t80.5 -40.5v-147q-53 0 -80 -40t-27 -97v-352 q0 -76 -26.5 -136.5t-70.5 -102.5t-101.5 -64.5t-118.5 -22.5h-125v174z" />
<glyph unicode="~" horiz-adv-x="1044" d="M53 864q8 92 24.5 181.5t50.5 160t89 114.5t141 44q66 0 108 -26.5t68.5 -67.5t42 -87t31 -87t32.5 -68t48 -27t52.5 32t37 83t23.5 116.5t14 133.5l176 -20q-8 -92 -23.5 -182.5t-49 -161t-89 -114.5t-141.5 -44q-68 0 -108.5 26.5t-67.5 66.5t-42 87t-30.5 87t-33 66.5 t-48.5 26.5t-52 -31.5t-36.5 -83t-23.5 -116t-15 -129.5z" />
<glyph unicode="&#xa1;" horiz-adv-x="417" d="M43 983q0 68 48 117t116 49t117 -49t49 -117q0 -33 -13.5 -62.5t-36 -52t-53 -36t-63.5 -13.5q-35 0 -64.5 13.5t-51 36t-35 52t-13.5 62.5zM66 0l36 707h209l39 -707h-284z" />
<glyph unicode="&#xa2;" horiz-adv-x="1198" d="M66 563q0 117 37.5 217.5t106.5 175t163 122.5t207 65v133h184v-131q147 -20 246.5 -98t154.5 -183l-225 -108q-27 51 -73 89t-103 56v-678q59 16 104 55t72 93l227 -107q-57 -104 -156.5 -183t-246.5 -99v-152h-184v154q-113 14 -207 63t-163 124t-106.5 175t-37.5 217z M340 563q0 -123 65.5 -214t174.5 -122v672q-109 -31 -174.5 -122t-65.5 -214z" />
<glyph unicode="&#xa3;" horiz-adv-x="921" d="M33 459v141h94q-25 43 -41 90t-16 101q0 80 33.5 146.5t91 113.5t130 72.5t150.5 25.5q139 0 239.5 -49t153.5 -148l-200 -108q-23 57 -69 84.5t-97 27.5q-68 0 -116 -46t-48 -124q0 -53 18.5 -98t42.5 -88h260v-141h-192q4 -16 6 -29.5t2 -30.5q0 -57 -27.5 -102 t-60.5 -68q18 8 43 9q37 0 65.5 -7.5t53 -16.5t49.5 -16.5t55 -7.5q47 0 86 16.5t58 43.5l102 -187q-37 -39 -102.5 -61t-151.5 -22q-55 0 -94 10t-70.5 22.5t-64.5 22.5t-76 10q-39 0 -89 -17.5t-97 -41.5l-86 164q86 37 133 86t47 100q0 31 -11.5 60.5t-27.5 62.5h-176z " />
<glyph unicode="&#xa5;" horiz-adv-x="1157" d="M-10 1126h305l287 -434l280 434h305l-360 -526h295v-139h-387v-103h387v-137h-387v-221h-269v221h-395v137h395v103h-395v139h301z" />
<glyph unicode="&#xa6;" horiz-adv-x="442" d="M135 -41v647h174v-647h-174zM135 760v647h174v-647h-174z" />
<glyph unicode="&#xa7;" horiz-adv-x="991" d="M47 -4l109 164q53 -51 140 -97.5t189 -46.5q80 0 129.5 29t49.5 88q0 49 -43 73.5t-109 42t-141.5 36t-141 51.5t-108.5 89t-43 153q0 51 18.5 93t47 73.5t63.5 53t69 33.5q-199 76 -198 261q0 61 29.5 115.5t83 94t127 62t163.5 22.5q154 0 249 -43t149 -96l-103 -153 q-53 53 -129 81.5t-153 28.5q-78 0 -122 -28.5t-44 -79.5q0 -45 44 -66.5t108.5 -37t141 -32t141 -49t108.5 -90t44 -153.5q0 -84 -44 -153t-128 -109q74 -33 123 -91.5t49 -158.5q0 -78 -32.5 -137.5t-90 -100.5t-136 -62.5t-171.5 -21.5q-154 0 -260 48t-178 114zM328 616 q0 -37 18.5 -61.5t48 -41.5t67.5 -27.5t77 -18.5q59 27 88.5 62.5t29.5 88.5q0 66 -51 99t-119 49q-94 -23 -126.5 -60.5t-32.5 -89.5z" />
<glyph unicode="&#xa8;" horiz-adv-x="604" d="M-53 1251q0 59 40 99.5t99 40.5t99 -40.5t40 -99.5t-40 -99t-99 -40t-99 40t-40 99zM379 1251q0 59 41 99.5t98 40.5q59 0 99 -40.5t40 -99.5t-39.5 -99t-99.5 -40q-57 0 -98 40t-41 99z" />
<glyph unicode="&#xa9;" horiz-adv-x="1593" d="M90 684q0 147 55.5 275t151.5 224.5t225 152t275 55.5q147 0 275 -55.5t224.5 -152t151.5 -224.5t55 -275q0 -145 -55 -274t-151.5 -225.5t-224.5 -152t-275 -55.5q-145 0 -274.5 55.5t-225.5 152t-151.5 225.5t-55.5 274zM164 684q0 -129 50 -244.5t136 -201.5 t202 -136.5t245 -50.5q131 0 245.5 50.5t200.5 136.5t136.5 201.5t50.5 244.5q0 131 -50.5 245.5t-136.5 201t-200.5 136.5t-245.5 50q-129 0 -245 -50t-202 -136.5t-136 -201t-50 -245.5zM381 686q0 94 34 173t91 136.5t135 89t166 31.5q96 0 173 -36t130 -99l-63 -63 q-41 53 -104.5 84.5t-135.5 31.5q-68 0 -128.5 -25.5t-105.5 -71.5t-71.5 -109.5t-26.5 -141.5q0 -76 26.5 -140.5t71.5 -111.5t105.5 -73.5t128.5 -26.5q74 0 137.5 33.5t104.5 87.5l63 -64q-55 -66 -132 -102.5t-173 -36.5q-88 0 -166 32.5t-135 91t-91 137.5t-34 173z " />
<glyph unicode="&#xaa;" horiz-adv-x="788" d="M63 864q0 53 19.5 92t52.5 65t73 38t81 12q78 0 129 -23.5t80 -52.5v80q0 51 -39 81t-103 30q-47 0 -97 -21.5t-91 -62.5l-72 123q61 53 138 77.5t155 24.5q57 0 110.5 -12t94.5 -41t66.5 -79t25.5 -124v-403h-188v65q-29 -31 -80 -56.5t-129 -25.5q-41 0 -81 13.5 t-73 40t-52.5 66.5t-19.5 93zM250 864q0 -47 35 -70.5t82 -23.5q39 0 74.5 14.5t56.5 42.5v74q-20 27 -56 41t-75 14q-47 0 -82 -23.5t-35 -68.5z" />
<glyph unicode="&#xab;" horiz-adv-x="1079" d="M61 498l328 362h242l-328 -362l328 -369h-242zM451 498l327 362h240l-328 -362l328 -369h-240z" />
<glyph unicode="&#xac;" horiz-adv-x="1054" d="M59 797v161h914v-546h-166v385h-748z" />
<glyph unicode="&#xad;" horiz-adv-x="614" d="M61 385v221h492v-221h-492z" />
<glyph unicode="&#xae;" horiz-adv-x="1011" d="M72 952q0 90 33.5 170t93 138.5t138.5 92t169 33.5t170 -33.5t138 -92t92 -138.5t34 -170t-34 -168.5t-92 -138t-138 -93.5t-170 -34t-169 34t-138.5 93.5t-93 138t-33.5 168.5zM137 952q0 -76 29 -143.5t79 -117.5t116.5 -78.5t144.5 -28.5q76 0 143.5 28.5t117.5 78.5 t78.5 117.5t28.5 143.5q0 78 -28.5 145.5t-78.5 117t-117.5 78t-143.5 28.5q-78 0 -144.5 -28.5t-116.5 -78t-79 -117t-29 -145.5zM340 702v498h203q63 0 112.5 -41t49.5 -110q0 -41 -15.5 -70t-37 -46.5t-43 -24.5t-31.5 -7l133 -199h-86l-129 197h-86v-197h-70zM410 963 h133q33 0 61.5 23.5t28.5 62.5q0 41 -29 65.5t-61 24.5h-133v-176z" />
<glyph unicode="&#xaf;" horiz-adv-x="743" d="M0 1210v150h743v-150h-743z" />
<glyph unicode="&#xb0;" horiz-adv-x="636" d="M41 1108q0 57 21.5 108.5t59.5 89t88 59t107 21.5t108.5 -21.5t89.5 -59t59.5 -89t21.5 -108.5t-21.5 -107.5t-59.5 -87t-89 -58t-109 -21.5q-57 0 -107 21.5t-88 58t-59.5 87t-21.5 107.5zM184 1108q0 -55 39 -94t94 -39t96.5 39t41.5 94q0 57 -41 97t-97 40 q-55 0 -94 -40t-39 -97z" />
<glyph unicode="&#xb1;" horiz-adv-x="1032" d="M59 0v162h914v-162h-914zM59 668v161h369v402h178v-402h367v-161h-367v-416h-178v416h-369z" />
<glyph unicode="&#xb2;" horiz-adv-x="815" d="M72 1559q66 72 154.5 103.5t174.5 31.5q70 0 130.5 -16.5t105.5 -49.5t69.5 -80t24.5 -108q0 -51 -21.5 -99.5t-65.5 -98.5t-110.5 -104.5t-154.5 -117.5h360v-158h-645v144q133 92 219 156.5t135.5 111.5t69 81t19.5 68q0 57 -40 85t-100 28q-72 0 -132 -31.5t-91 -68.5 z" />
<glyph unicode="&#xb3;" horiz-adv-x="815" d="M66 977l98 129q47 -51 111.5 -75.5t121.5 -24.5q74 0 112 26.5t38 69.5q0 59 -51.5 79.5t-128.5 20.5h-54.5t-36.5 -2v156q12 -2 38 -2h51q82 0 126 20.5t44 71.5q0 47 -43 68.5t-107 21.5q-61 0 -115.5 -20.5t-101.5 -67.5l-92 115q53 57 133 94t197 37 q156 0 239.5 -61.5t83.5 -162.5q0 -76 -55.5 -125t-126.5 -61q33 -2 67.5 -15.5t63.5 -38t47 -60t18 -80.5q0 -106 -92 -174t-248 -68q-119 0 -204.5 37t-132.5 92z" />
<glyph unicode="&#xb4;" horiz-adv-x="514" d="M0 1139l274 295h240l-332 -295h-182z" />
<glyph unicode="&#xb5;" horiz-adv-x="1185" d="M129 -377v1366h260v-610q2 -98 51 -136t131 -38q76 0 133.5 35.5t92.5 78.5v670h260v-989h-260v125q-51 -55 -138.5 -102.5t-209.5 -47.5q-16 0 -31 1t-29 4v-357h-260z" />
<glyph unicode="&#xb6;" horiz-adv-x="919" d="M55 1014q0 74 28 137t76 111.5t111.5 76t137.5 27.5h417v-1571h-129v1444h-159v-1444h-129v867q-74 0 -137.5 27.5t-111.5 75.5t-76 111.5t-28 137.5z" />
<glyph unicode="&#xb7;" horiz-adv-x="526" d="M98 500q0 68 48.5 117t115.5 49q68 0 117 -49t49 -117q0 -33 -13.5 -62.5t-36 -52.5t-53 -36t-63.5 -13q-35 0 -64.5 13t-51 36t-35 52.5t-13.5 62.5z" />
<glyph unicode="&#xb8;" horiz-adv-x="452" d="M0 -336l51 105q78 -59 168 -60q41 0 73 16.5t32 51.5q0 53 -60 53q-20 0 -36.5 -8t-28.5 -21l-95 54l62 168h129l-51 -127q29 20 71 20q57 0 97.5 -39t40.5 -104q0 -82 -67 -127t-161 -45q-74 0 -133 18.5t-92 44.5z" />
<glyph unicode="&#xb9;" horiz-adv-x="585" d="M14 1407l279 274h170v-819h-199v568l-137 -142z" />
<glyph unicode="&#xba;" horiz-adv-x="829" d="M61 989q0 68 25 129.5t71 107.5t110.5 73.5t146.5 27.5t148.5 -27.5t111.5 -73.5t69.5 -107.5t24.5 -129.5t-24.5 -129t-69.5 -107t-111.5 -74t-148.5 -28t-146.5 28t-110.5 74t-71 107.5t-25 128.5zM256 989q0 -86 42 -136t116 -50q76 0 118.5 50t42.5 136t-43 134 t-118 48q-74 0 -116 -48t-42 -134z" />
<glyph unicode="&#xbb;" horiz-adv-x="1079" d="M61 129l328 369l-328 362h242l328 -362l-328 -369h-242zM451 129l327 369l-327 362h239l328 -362l-328 -369h-239z" />
<glyph unicode="&#xbc;" horiz-adv-x="1705" d="M14 1092l279 274h170v-819h-199v567l-137 -141zM283 0l872 1366h158l-875 -1366h-155zM952 176v133l324 510h274v-489h107v-154h-107v-176h-196v176h-402zM1147 330h207v323z" />
<glyph unicode="&#xbd;" horiz-adv-x="1775" d="M14 1092l279 274h170v-819h-199v567l-137 -141zM283 0l872 1366h158l-875 -1366h-155zM1032 696q66 72 155 103.5t175 31.5q70 0 130 -16t105 -49t70 -80t25 -108q0 -51 -21.5 -99.5t-65.5 -98.5t-111 -104.5t-155 -117.5h361v-158h-645v143q133 92 219 157t135 112 t68.5 80.5t19.5 68.5q0 57 -40 85t-99 28q-72 0 -132.5 -32t-90.5 -69z" />
<glyph unicode="&#xbe;" horiz-adv-x="1886" d="M66 662l98 129q47 -51 111.5 -76t121.5 -25q74 0 112 26.5t38 69.5q0 59 -51.5 80t-128.5 21h-54.5t-36.5 -2v155q12 -2 38 -2h51q82 0 126 20.5t44 71.5q0 47 -43 69t-107 22q-61 0 -115.5 -20.5t-101.5 -67.5l-92 114q53 57 133 94t197 37q156 0 239.5 -61.5 t83.5 -161.5q0 -76 -55.5 -125t-126.5 -61q33 -2 67.5 -15.5t63.5 -38t47 -60.5t18 -81q0 -106 -92 -174t-248 -68q-119 0 -204.5 37t-132.5 93zM463 0l872 1366h158l-875 -1366h-155zM1130 176v133l324 510h275v-489h106v-154h-106v-176h-197v176h-402zM1325 330h207v323z " />
<glyph unicode="&#xbf;" horiz-adv-x="811" d="M31 231q0 88 46 142.5t101 92.5t101.5 70.5t46.5 75.5q0 41 -37 70l207 57q31 -31 43 -67.5t12 -65.5q0 -45 -18.5 -78.5t-47 -60.5t-61.5 -47.5t-61.5 -40t-47 -41t-18.5 -47.5q0 -39 34 -64.5t101 -25.5q78 0 138.5 29.5t103.5 78.5l127 -164q-72 -82 -175.5 -125 t-219.5 -43q-86 0 -156 19.5t-119 54.5t-74.5 81t-25.5 99zM244 983q0 68 49 117t117 49t116.5 -49t48.5 -117t-49 -117t-116 -49q-68 0 -117 49t-49 117z" />
<glyph unicode="&#xc0;" horiz-adv-x="1400" d="M-8 0l526 1366h365l526 -1366h-330l-86 231h-585l-86 -231h-330zM356 1786h240l274 -295h-182zM487 487h426l-213 588z" />
<glyph unicode="&#xc1;" horiz-adv-x="1400" d="M-8 0l526 1366h365l526 -1366h-330l-86 231h-585l-86 -231h-330zM487 487h426l-213 588zM535 1491l274 295h240l-332 -295h-182z" />
<glyph unicode="&#xc2;" horiz-adv-x="1400" d="M-8 0l526 1366h365l526 -1366h-330l-86 231h-585l-86 -231h-330zM397 1491l189 295h233l193 -295h-160l-150 182l-145 -182h-160zM487 487h426l-213 588z" />
<glyph unicode="&#xc3;" horiz-adv-x="1400" d="M-8 0l526 1366h365l526 -1366h-330l-86 231h-585l-86 -231h-330zM367 1499q0 131 56 203t165 72q51 0 84 -21.5t57.5 -47.5t46 -47.5t49.5 -21.5q31 0 52.5 30t21.5 95h137q0 -131 -55 -202.5t-164 -71.5q-53 0 -86 21.5t-57.5 48t-46 48t-49.5 21.5q-31 0 -52.5 -30.5 t-21.5 -96.5h-137zM487 487h426l-213 588z" />
<glyph unicode="&#xc4;" horiz-adv-x="1400" d="M-8 0l526 1366h365l526 -1366h-330l-86 231h-585l-86 -231h-330zM346 1606q0 59 40 99t99 40t99.5 -40t40.5 -99t-40 -99.5t-100 -40.5q-59 0 -99 40t-40 100zM487 487h426l-213 588zM778 1606q0 59 41 99t99 40q59 0 99 -40t40 -99t-40 -99.5t-99 -40.5q-57 0 -98.5 40 t-41.5 100z" />
<glyph unicode="&#xc5;" horiz-adv-x="1400" d="M-8 0l526 1366h365l526 -1366h-330l-86 231h-585l-86 -231h-330zM487 487h426l-213 588zM487 1634q0 45 17.5 84t46.5 68t68.5 46t82.5 17q45 0 84 -17t68 -46t45 -68t16 -84q0 -43 -16 -83t-45 -68.5t-68 -46t-84 -17.5q-43 0 -82.5 17.5t-68.5 46t-46.5 68.5t-17.5 83z M606 1634q0 -41 28.5 -68.5t67.5 -27.5q41 0 68 27.5t27 68.5t-27 69t-68 28q-39 0 -67.5 -28t-28.5 -69z" />
<glyph unicode="&#xc6;" horiz-adv-x="1982" d="M-18 0l831 1366h1083v-256h-673v-287h659v-256h-659v-311h673v-256h-966v231h-479l-136 -231h-333zM588 487h342v588z" />
<glyph unicode="&#xc7;" horiz-adv-x="1406" d="M70 682q0 158 56 288t154.5 223t231.5 144.5t287 51.5q113 0 202 -28t158.5 -75t120.5 -107.5t88 -123.5l-250 -123q-43 84 -129 141t-190 57q-94 0 -173 -33.5t-136.5 -94t-89 -142.5t-31.5 -178t31.5 -179t89 -142.5t136.5 -93.5t173 -34q104 0 190 57.5t129 141.5 l250 -121q-35 -61 -84 -119.5t-114.5 -104.5t-148.5 -75.5t-187 -34.5l-29 -73q29 20 72 20q57 0 97 -39t40 -104q0 -82 -67 -127t-161 -45q-74 0 -133 18.5t-92 44.5l51 105q78 -59 168 -60q41 0 73 16.5t32 51.5q0 53 -60 53q-37 0 -65 -28l-94 53l43 119 q-137 14 -254 70.5t-203 147.5t-134 214t-48 268z" />
<glyph unicode="&#xc8;" horiz-adv-x="1193" d="M135 0v1366h967v-256h-676v-287h661v-256h-661v-311h676v-256h-967zM274 1786h240l274 -295h-182z" />
<glyph unicode="&#xc9;" horiz-adv-x="1193" d="M135 0v1366h967v-256h-676v-287h661v-256h-661v-311h676v-256h-967zM451 1491l274 295h240l-332 -295h-182z" />
<glyph unicode="&#xca;" horiz-adv-x="1193" d="M135 0v1366h967v-256h-676v-287h661v-256h-661v-311h676v-256h-967zM311 1491l189 295h233l193 -295h-160l-150 182l-145 -182h-160z" />
<glyph unicode="&#xcb;" horiz-adv-x="1193" d="M135 0v1366h967v-256h-676v-287h661v-256h-661v-311h676v-256h-967zM266 1606q0 59 40 99t100 40q59 0 99 -40t40 -99t-40 -99.5t-99 -40.5t-99.5 40t-40.5 100zM698 1606q0 59 41 99t99 40q59 0 99 -40t40 -99t-40 -99.5t-99 -40.5q-57 0 -98.5 40t-41.5 100z" />
<glyph unicode="&#xcc;" horiz-adv-x="561" d="M-66 1786h240l275 -295h-183zM135 0v1366h291v-1366h-291z" />
<glyph unicode="&#xcd;" horiz-adv-x="561" d="M119 1491l274 295h240l-332 -295h-182zM135 0v1366h291v-1366h-291z" />
<glyph unicode="&#xce;" horiz-adv-x="561" d="M-27 1491l189 295h233l193 -295h-160l-149 182l-146 -182h-160zM135 0v1366h291v-1366h-291z" />
<glyph unicode="&#xcf;" horiz-adv-x="561" d="M-74 1606q0 59 40 99t100 40q59 0 99 -40t40 -99t-40 -99.5t-99 -40.5t-99.5 40t-40.5 100zM135 0v1366h291v-1366h-291zM358 1606q0 59 41 99t99 40q59 0 99 -40t40 -99t-40 -99.5t-99 -40.5q-57 0 -98.5 40t-41.5 100z" />
<glyph unicode="&#xd0;" horiz-adv-x="1519" d="M18 567v217h168v582h539q160 0 294 -49t229 -138t148.5 -215t53.5 -280q0 -156 -53.5 -282t-148.5 -215t-228 -138t-293 -49h-541v567h-168zM477 256h248q100 0 180 34t135.5 92t84 136t28.5 166q0 90 -27.5 168t-81 135t-133.5 90t-184 33h-250v-326h307v-217h-307v-311 z" />
<glyph unicode="&#xd1;" horiz-adv-x="1492" d="M135 0v1366h299l633 -858v858h291v-1366h-281l-651 891v-891h-291zM410 1499q0 131 56 203t165 72q51 0 84 -21.5t57.5 -47.5t46 -47.5t49.5 -21.5q31 0 52.5 30t21.5 95h137q0 -131 -55 -202.5t-164 -71.5q-53 0 -86 21.5t-57.5 48t-46 48t-49.5 21.5q-31 0 -52.5 -30.5 t-21.5 -96.5h-137z" />
<glyph unicode="&#xd2;" horiz-adv-x="1566" d="M70 682q0 154 53 284t148.5 224t226.5 146.5t286 52.5q154 0 285 -52.5t226.5 -146.5t148.5 -224t53 -284t-53 -284t-148.5 -224t-226.5 -146.5t-285 -52.5q-156 0 -286.5 52.5t-226 146.5t-148.5 224t-53 284zM369 682q0 -96 29.5 -178t83 -141.5t130 -94.5t172.5 -35 q94 0 171 35t130.5 94.5t83 141.5t29.5 178t-29.5 178t-83 142.5t-130 94t-171.5 33.5q-96 0 -172.5 -33.5t-130 -94t-83 -142.5t-29.5 -178zM444 1786h240l274 -295h-182z" />
<glyph unicode="&#xd3;" horiz-adv-x="1566" d="M70 682q0 154 53 284t148.5 224t226.5 146.5t286 52.5q154 0 285 -52.5t226.5 -146.5t148.5 -224t53 -284t-53 -284t-148.5 -224t-226.5 -146.5t-285 -52.5q-156 0 -286.5 52.5t-226 146.5t-148.5 224t-53 284zM369 682q0 -96 29.5 -178t83 -141.5t130 -94.5t172.5 -35 q94 0 171 35t130.5 94.5t83 141.5t29.5 178t-29.5 178t-83 142.5t-130 94t-171.5 33.5q-96 0 -172.5 -33.5t-130 -94t-83 -142.5t-29.5 -178zM618 1491l275 295h240l-332 -295h-183z" />
<glyph unicode="&#xd4;" horiz-adv-x="1566" d="M70 682q0 154 53 284t148.5 224t226.5 146.5t286 52.5q154 0 285 -52.5t226.5 -146.5t148.5 -224t53 -284t-53 -284t-148.5 -224t-226.5 -146.5t-285 -52.5q-156 0 -286.5 52.5t-226 146.5t-148.5 224t-53 284zM369 682q0 -96 29.5 -178t83 -141.5t130 -94.5t172.5 -35 q94 0 171 35t130.5 94.5t83 141.5t29.5 178t-29.5 178t-83 142.5t-130 94t-171.5 33.5q-96 0 -172.5 -33.5t-130 -94t-83 -142.5t-29.5 -178zM481 1491l189 295h233l193 -295h-160l-150 182l-145 -182h-160z" />
<glyph unicode="&#xd5;" horiz-adv-x="1566" d="M70 682q0 154 53 284t148.5 224t226.5 146.5t286 52.5q154 0 285 -52.5t226.5 -146.5t148.5 -224t53 -284t-53 -284t-148.5 -224t-226.5 -146.5t-285 -52.5q-156 0 -286.5 52.5t-226 146.5t-148.5 224t-53 284zM369 682q0 -96 29.5 -178t83 -141.5t130 -94.5t172.5 -35 q94 0 171 35t130.5 94.5t83 141.5t29.5 178t-29.5 178t-83 142.5t-130 94t-171.5 33.5q-96 0 -172.5 -33.5t-130 -94t-83 -142.5t-29.5 -178zM451 1499q0 131 56 203t165 72q51 0 83.5 -21.5t57.5 -47.5t46.5 -47.5t49.5 -21.5q31 0 52.5 30t21.5 95h137q0 -131 -55 -202.5 t-164 -71.5q-53 0 -86 21.5t-57.5 48t-46 48t-49.5 21.5q-31 0 -52.5 -30.5t-21.5 -96.5h-137z" />
<glyph unicode="&#xd6;" horiz-adv-x="1566" d="M70 682q0 154 53 284t148.5 224t226.5 146.5t286 52.5q154 0 285 -52.5t226.5 -146.5t148.5 -224t53 -284t-53 -284t-148.5 -224t-226.5 -146.5t-285 -52.5q-156 0 -286.5 52.5t-226 146.5t-148.5 224t-53 284zM369 682q0 -96 29.5 -178t83 -141.5t130 -94.5t172.5 -35 q94 0 171 35t130.5 94.5t83 141.5t29.5 178t-29.5 178t-83 142.5t-130 94t-171.5 33.5q-96 0 -172.5 -33.5t-130 -94t-83 -142.5t-29.5 -178zM430 1606q0 59 40 99t99 40t99.5 -40t40.5 -99t-40 -99.5t-100 -40.5q-59 0 -99 40t-40 100zM862 1606q0 59 41 99t98 40 q59 0 99.5 -40t40.5 -99t-40 -99.5t-100 -40.5q-57 0 -98 40t-41 100z" />
<glyph unicode="&#xd7;" horiz-adv-x="1032" d="M113 395l290 289l-290 289l116 114l287 -290l291 290l113 -114l-289 -289l289 -289l-113 -114l-291 290l-287 -290z" />
<glyph unicode="&#xd8;" horiz-adv-x="1566" d="M70 682q0 154 53 284t148.5 224t226.5 146.5t286 52.5q98 0 186.5 -21.5t166.5 -62.5l47 61h209l-119 -156q104 -96 163.5 -230t59.5 -298q0 -154 -53 -284t-148.5 -224t-226.5 -146.5t-285 -52.5q-215 0 -378 97l-54 -72h-211l131 172q-96 94 -149 224t-53 286zM369 682 q0 -80 19.5 -150.5t60.5 -128.5l522 684q-41 20 -87 31.5t-100 11.5q-96 0 -172.5 -33.5t-130 -94t-83 -142.5t-29.5 -178zM571 289q45 -27 98.5 -41.5t114.5 -14.5q94 0 171 35t130.5 94.5t83 141.5t29.5 178q0 90 -24.5 166t-71.5 135z" />
<glyph unicode="&#xd9;" horiz-adv-x="1503" d="M135 547v819h295v-811q0 -143 81 -232.5t241 -89.5t239.5 89.5t79.5 232.5v811h297v-819q0 -127 -38 -232.5t-114.5 -180.5t-192 -117t-271.5 -42t-271.5 42t-192.5 117t-115 180.5t-38 232.5zM412 1786h239l275 -295h-183z" />
<glyph unicode="&#xda;" horiz-adv-x="1503" d="M135 547v819h295v-811q0 -143 81 -232.5t241 -89.5t239.5 89.5t79.5 232.5v811h297v-819q0 -127 -38 -232.5t-114.5 -180.5t-192 -117t-271.5 -42t-271.5 42t-192.5 117t-115 180.5t-38 232.5zM588 1491l274 295h240l-332 -295h-182z" />
<glyph unicode="&#xdb;" horiz-adv-x="1503" d="M135 547v819h295v-811q0 -143 81 -232.5t241 -89.5t239.5 89.5t79.5 232.5v811h297v-819q0 -127 -38 -232.5t-114.5 -180.5t-192 -117t-271.5 -42t-271.5 42t-192.5 117t-115 180.5t-38 232.5zM457 1491l188 295h234l192 -295h-160l-149 182l-146 -182h-159z" />
<glyph unicode="&#xdc;" horiz-adv-x="1503" d="M135 547v819h295v-811q0 -143 81 -232.5t241 -89.5t239.5 89.5t79.5 232.5v811h297v-819q0 -127 -38 -232.5t-114.5 -180.5t-192 -117t-271.5 -42t-271.5 42t-192.5 117t-115 180.5t-38 232.5zM401 1606q0 59 40 99t100 40q59 0 99 -40t40 -99t-40 -99.5t-99 -40.5 t-99.5 40t-40.5 100zM834 1606q0 59 40.5 99t98.5 40q59 0 99 -40t40 -99t-40 -99.5t-99 -40.5q-57 0 -98 40t-41 100z" />
<glyph unicode="&#xdd;" horiz-adv-x="1320" d="M-8 1366h332l338 -547l337 547h330l-522 -807v-559h-291v559zM500 1491l274 295h240l-332 -295h-182z" />
<glyph unicode="&#xde;" horiz-adv-x="1280" d="M135 0v1366h291v-221h348q111 0 197 -36t144.5 -96.5t88 -140t29.5 -170.5q0 -90 -31 -168.5t-89 -138t-143 -94.5t-196 -35h-348v-266h-291zM426 522h307q86 0 144.5 48t58.5 135q0 86 -58.5 136t-144.5 50h-307v-369z" />
<glyph unicode="&#xdf;" horiz-adv-x="2113" d="M37 145l123 209q29 -29 69.5 -55.5t90 -47t103.5 -32.5t109 -12q104 0 152.5 33.5t48.5 87.5q0 47 -49 70.5t-122 41t-159 36t-158.5 55t-121.5 100t-49 170.5q0 72 31.5 135t91 111.5t142.5 76t187 27.5q145 0 259 -43t200 -119l-127 -194q-66 59 -158 92t-178 33 q-80 0 -126 -31t-46 -80q0 -41 49.5 -62.5t122 -38t158.5 -36t158.5 -57t122 -103.5t49.5 -174q0 -164 -124 -263.5t-362 -99.5q-162 0 -287.5 49.5t-199.5 120.5zM1094 145l123 209q29 -29 69.5 -55.5t90 -47t103.5 -32.5t109 -12q104 0 152.5 33.5t48.5 87.5 q0 47 -49 70.5t-122 41t-159 36t-158.5 55t-121.5 100t-49 170.5q0 72 31.5 135t91 111.5t142.5 76t187 27.5q145 0 259 -43t200 -119l-127 -194q-66 59 -158 92t-178 33q-80 0 -126 -31t-46 -80q0 -41 49.5 -62.5t122 -38t158.5 -36t158.5 -57t122 -103.5t49.5 -174 q0 -164 -124 -263.5t-362 -99.5q-162 0 -287.5 49.5t-199.5 120.5z" />
<glyph unicode="&#xe0;" d="M-10 0l456 1126h330l457 -1126h-303l-74 186h-489l-72 -186h-305zM268 1536h240l274 -295h-182zM444 422h334l-166 430z" />
<glyph unicode="&#xe1;" d="M-10 0l456 1126h330l457 -1126h-303l-74 186h-489l-72 -186h-305zM444 422h334l-166 430zM446 1241l275 295h240l-332 -295h-183z" />
<glyph unicode="&#xe2;" d="M-10 0l456 1126h330l457 -1126h-303l-74 186h-489l-72 -186h-305zM307 1241l189 295h233l193 -295h-160l-150 182l-145 -182h-160zM444 422h334l-166 430z" />
<glyph unicode="&#xe3;" d="M-10 0l456 1126h330l457 -1126h-303l-74 186h-489l-72 -186h-305zM279 1249q0 131 56 203t165 72q51 0 83.5 -21.5t57.5 -47t46.5 -47.5t49.5 -22q31 0 52.5 30t21.5 95h137q0 -131 -55 -202.5t-164 -71.5q-53 0 -86 21.5t-57.5 48t-46 48t-50.5 21.5q-31 0 -52 -30.5 t-21 -96.5h-137zM444 422h334l-166 430z" />
<glyph unicode="&#xe4;" d="M-10 0l456 1126h330l457 -1126h-303l-74 186h-489l-72 -186h-305zM256 1380q0 59 40 99.5t99 40.5t99.5 -40.5t40.5 -99.5t-40 -99t-100 -40q-59 0 -99 40t-40 99zM444 422h334l-166 430zM688 1380q0 59 41 99.5t98 40.5q59 0 99.5 -40.5t40.5 -99.5t-40 -99t-100 -40 q-57 0 -98 40t-41 99z" />
<glyph unicode="&#xe5;" d="M-10 0l456 1126h330l457 -1126h-303l-74 186h-489l-72 -186h-305zM397 1440q0 45 17.5 84t46 67.5t68.5 46t83 17.5q45 0 84 -17.5t68 -46t45 -67.5t16 -84q0 -43 -16 -83t-45 -68.5t-68 -46t-84 -17.5q-43 0 -83 17.5t-68.5 46t-46 68.5t-17.5 83zM444 422h334l-166 430 zM516 1440q0 -41 28.5 -69t67.5 -28q41 0 68 28t27 69t-27 68.5t-68 27.5q-39 0 -67.5 -27.5t-28.5 -68.5z" />
<glyph unicode="&#xe6;" horiz-adv-x="1730" d="M-12 0l700 1126h957v-235h-580v-201h567v-235h-567v-219h580v-236h-850v186h-392l-110 -186h-305zM532 422h263v430z" />
<glyph unicode="&#xe7;" horiz-adv-x="1198" d="M66 563q0 131 46 238.5t129 185.5t194.5 121t244.5 43q90 0 166 -22.5t136 -62.5t106.5 -92t76.5 -110l-225 -108q-35 70 -104.5 113.5t-155.5 43.5q-74 0 -136.5 -26.5t-107.5 -73.5t-70.5 -110.5t-25.5 -139.5q0 -74 25.5 -138.5t70.5 -111.5t107.5 -73.5t136.5 -26.5 q86 0 155.5 44t104.5 114l227 -107q-59 -111 -168.5 -192.5t-271.5 -94.5l-33 -81q29 20 72 20q57 0 97 -39t40 -104q0 -82 -66.5 -127t-160.5 -45q-74 0 -133.5 18.5t-91.5 44.5l51 105q78 -59 168 -60q41 0 72.5 16.5t31.5 51.5q0 53 -59 53q-37 0 -66 -29l-94 54l45 125 q-117 12 -215 60t-169 124t-110.5 177t-39.5 222z" />
<glyph unicode="&#xe8;" horiz-adv-x="1064" d="M129 0v1126h850v-235h-580v-201h568v-235h-568v-219h580v-236h-850zM211 1536h240l274 -295h-182z" />
<glyph unicode="&#xe9;" horiz-adv-x="1064" d="M129 0v1126h850v-235h-580v-201h568v-235h-568v-219h580v-236h-850zM391 1241l275 295h239l-332 -295h-182z" />
<glyph unicode="&#xea;" horiz-adv-x="1064" d="M129 0v1126h850v-235h-580v-201h568v-235h-568v-219h580v-236h-850zM252 1241l188 295h234l192 -295h-159l-150 182l-145 -182h-160z" />
<glyph unicode="&#xeb;" horiz-adv-x="1064" d="M129 0v1126h850v-235h-580v-201h568v-235h-568v-219h580v-236h-850zM199 1380q0 59 40 99.5t99 40.5t99 -40.5t40 -99.5t-40 -99t-99 -40t-99 40t-40 99zM631 1380q0 59 41 99.5t98 40.5q59 0 99 -40.5t40 -99.5t-40 -99t-99 -40q-57 0 -98 40t-41 99z" />
<glyph unicode="&#xec;" horiz-adv-x="518" d="M-86 1536h240l274 -295h-182zM129 0v1126h270v-1126h-270z" />
<glyph unicode="&#xed;" horiz-adv-x="518" d="M94 1241l275 295h239l-332 -295h-182zM129 0v1126h270v-1126h-270z" />
<glyph unicode="&#xee;" horiz-adv-x="518" d="M-45 1241l188 295h234l192 -295h-159l-150 182l-145 -182h-160zM129 0v1126h270v-1126h-270z" />
<glyph unicode="&#xef;" horiz-adv-x="518" d="M-94 1380q0 59 40 99.5t99 40.5t99 -40.5t40 -99.5t-40 -99t-99 -40t-99 40t-40 99zM129 0v1126h270v-1126h-270zM338 1380q0 59 41 99.5t98 40.5q59 0 99 -40.5t40 -99.5t-39.5 -99t-99.5 -40q-57 0 -98 40t-41 99z" />
<glyph unicode="&#xf0;" horiz-adv-x="1300" d="M18 475v178h111v473h473q139 0 253 -39.5t193.5 -113.5t124 -178.5t44.5 -231.5t-44.5 -231.5t-124 -178t-193.5 -113.5t-253 -40h-473v475h-111zM399 236h203q84 0 147.5 26.5t106.5 70.5t64.5 103.5t21.5 126.5q0 68 -20.5 128.5t-61.5 104.5t-105.5 69.5t-152.5 25.5 h-203v-238h234v-178h-234v-239z" />
<glyph unicode="&#xf1;" horiz-adv-x="1329" d="M129 0v1126h291l510 -680v680h270v-1126h-276l-525 707v-707h-270zM330 1249q0 131 56 203t165 72q51 0 84 -21.5t57.5 -47t46 -47.5t49.5 -22q31 0 52.5 30t21.5 95h137q0 -131 -55 -202.5t-164 -71.5q-53 0 -85.5 21.5t-57.5 48t-46.5 48t-49.5 21.5q-31 0 -52.5 -30.5 t-21.5 -96.5h-137z" />
<glyph unicode="&#xf2;" horiz-adv-x="1341" d="M66 563q0 127 44 234.5t123.5 186.5t190.5 123t246 44q133 0 244.5 -44t191.5 -123t125 -186.5t45 -234.5t-45 -234.5t-125 -186.5t-191.5 -123t-244.5 -44q-135 0 -246 44t-190.5 123t-123.5 186.5t-44 234.5zM326 1536h239l275 -295h-183zM340 563q0 -74 23.5 -137.5 t66.5 -111.5t103.5 -74.5t136.5 -26.5t136 26.5t103 74.5t66.5 111.5t23.5 137.5t-23.5 138.5t-66.5 111.5t-103.5 73.5t-135.5 26.5q-76 0 -136.5 -26.5t-103.5 -73.5t-66.5 -111.5t-23.5 -138.5z" />
<glyph unicode="&#xf3;" horiz-adv-x="1341" d="M66 563q0 127 44 234.5t123.5 186.5t190.5 123t246 44q133 0 244.5 -44t191.5 -123t125 -186.5t45 -234.5t-45 -234.5t-125 -186.5t-191.5 -123t-244.5 -44q-135 0 -246 44t-190.5 123t-123.5 186.5t-44 234.5zM340 563q0 -74 23.5 -137.5t66.5 -111.5t103.5 -74.5 t136.5 -26.5t136 26.5t103 74.5t66.5 111.5t23.5 137.5t-23.5 138.5t-66.5 111.5t-103.5 73.5t-135.5 26.5q-76 0 -136.5 -26.5t-103.5 -73.5t-66.5 -111.5t-23.5 -138.5zM508 1241l274 295h240l-332 -295h-182z" />
<glyph unicode="&#xf4;" horiz-adv-x="1341" d="M66 563q0 127 44 234.5t123.5 186.5t190.5 123t246 44q133 0 244.5 -44t191.5 -123t125 -186.5t45 -234.5t-45 -234.5t-125 -186.5t-191.5 -123t-244.5 -44q-135 0 -246 44t-190.5 123t-123.5 186.5t-44 234.5zM340 563q0 -74 23.5 -137.5t66.5 -111.5t103.5 -74.5 t136.5 -26.5t136 26.5t103 74.5t66.5 111.5t23.5 137.5t-23.5 138.5t-66.5 111.5t-103.5 73.5t-135.5 26.5q-76 0 -136.5 -26.5t-103.5 -73.5t-66.5 -111.5t-23.5 -138.5zM367 1241l188 295h233l193 -295h-160l-149 182l-146 -182h-159z" />
<glyph unicode="&#xf5;" horiz-adv-x="1341" d="M66 563q0 127 44 234.5t123.5 186.5t190.5 123t246 44q133 0 244.5 -44t191.5 -123t125 -186.5t45 -234.5t-45 -234.5t-125 -186.5t-191.5 -123t-244.5 -44q-135 0 -246 44t-190.5 123t-123.5 186.5t-44 234.5zM340 563q0 -74 23.5 -137.5t66.5 -111.5t103.5 -74.5 t136.5 -26.5t136 26.5t103 74.5t66.5 111.5t23.5 137.5t-23.5 138.5t-66.5 111.5t-103.5 73.5t-135.5 26.5q-76 0 -136.5 -26.5t-103.5 -73.5t-66.5 -111.5t-23.5 -138.5zM342 1249q0 131 56.5 203t164.5 72q51 0 84 -21.5t57.5 -47t46 -47.5t50.5 -22q31 0 52 30t21 95h138 q0 -131 -55 -202.5t-164 -71.5q-53 0 -86 21.5t-57.5 48t-46 48t-50.5 21.5q-31 0 -52.5 -30.5t-21.5 -96.5h-137z" />
<glyph unicode="&#xf6;" horiz-adv-x="1341" d="M66 563q0 127 44 234.5t123.5 186.5t190.5 123t246 44q133 0 244.5 -44t191.5 -123t125 -186.5t45 -234.5t-45 -234.5t-125 -186.5t-191.5 -123t-244.5 -44q-135 0 -246 44t-190.5 123t-123.5 186.5t-44 234.5zM319 1380q0 59 40 99.5t100 40.5q59 0 99 -40.5t40 -99.5 t-40 -99t-99 -40t-99.5 40t-40.5 99zM340 563q0 -74 23.5 -137.5t66.5 -111.5t103.5 -74.5t136.5 -26.5t136 26.5t103 74.5t66.5 111.5t23.5 137.5t-23.5 138.5t-66.5 111.5t-103.5 73.5t-135.5 26.5q-76 0 -136.5 -26.5t-103.5 -73.5t-66.5 -111.5t-23.5 -138.5zM752 1380 q0 59 41 99.5t98 40.5q59 0 99 -40.5t40 -99.5t-40 -99t-99 -40q-57 0 -98 40t-41 99z" />
<glyph unicode="&#xf7;" horiz-adv-x="1046" d="M59 610v162h928v-162h-928zM397 322q0 53 37 88.5t88 35.5q53 0 89 -35.5t36 -88.5t-36 -89t-89 -36q-51 0 -88 35.5t-37 89.5zM397 1057q0 51 37 87t88 36q53 0 89 -36t36 -87q0 -53 -36 -90t-89 -37q-51 0 -88 37t-37 90z" />
<glyph unicode="&#xf8;" horiz-adv-x="1341" d="M66 563q0 127 44 234.5t123.5 186.5t190.5 123t246 44q166 0 301 -70l35 45h208l-110 -139q82 -78 127 -186.5t45 -237.5q0 -127 -45 -234.5t-125 -186.5t-191.5 -123t-244.5 -44q-174 0 -305 72l-37 -47h-209l112 143q-78 78 -121.5 185.5t-43.5 234.5zM340 563 q0 -119 57 -209l416 529q-61 31 -143 30q-76 0 -136.5 -26.5t-103.5 -73.5t-66.5 -111.5t-23.5 -138.5zM520 246q70 -33 150 -33q76 0 136 26.5t103 74.5t66.5 111.5t23.5 137.5q0 59 -16 113.5t-45 99.5z" />
<glyph unicode="&#xf9;" horiz-adv-x="1323" d="M129 446v680h272v-655q0 -117 67 -187.5t194 -70.5q125 0 192.5 70.5t67.5 187.5v655h272v-677q0 -104 -33 -191.5t-98.5 -150t-165.5 -97.5t-235 -35t-234.5 35t-166 96.5t-99.5 148.5t-33 191zM315 1536h240l274 -295h-182z" />
<glyph unicode="&#xfa;" horiz-adv-x="1323" d="M129 446v680h272v-655q0 -117 67 -187.5t194 -70.5q125 0 192.5 70.5t67.5 187.5v655h272v-677q0 -104 -33 -191.5t-98.5 -150t-165.5 -97.5t-235 -35t-234.5 35t-166 96.5t-99.5 148.5t-33 191zM498 1241l274 295h240l-332 -295h-182z" />
<glyph unicode="&#xfb;" horiz-adv-x="1323" d="M129 446v680h272v-655q0 -117 67 -187.5t194 -70.5q125 0 192.5 70.5t67.5 187.5v655h272v-677q0 -104 -33 -191.5t-98.5 -150t-165.5 -97.5t-235 -35t-234.5 35t-166 96.5t-99.5 148.5t-33 191zM356 1241l189 295h233l193 -295h-160l-149 182l-146 -182h-160z" />
<glyph unicode="&#xfc;" horiz-adv-x="1323" d="M129 446v680h272v-655q0 -117 67 -187.5t194 -70.5q125 0 192.5 70.5t67.5 187.5v655h272v-677q0 -104 -33 -191.5t-98.5 -150t-165.5 -97.5t-235 -35t-234.5 35t-166 96.5t-99.5 148.5t-33 191zM307 1380q0 59 40 99.5t99 40.5t99.5 -40.5t40.5 -99.5t-40 -99t-100 -40 q-59 0 -99 40t-40 99zM739 1380q0 59 41 99.5t99 40.5q59 0 99 -40.5t40 -99.5t-40 -99t-99 -40q-57 0 -98.5 40t-41.5 99z" />
<glyph unicode="&#xfd;" horiz-adv-x="1157" d="M-10 1126h305l287 -434l280 434h305l-452 -663v-463h-269v463zM416 1241l274 295h240l-332 -295h-182z" />
<glyph unicode="&#xfe;" horiz-adv-x="1134" d="M129 0v1126h270v-165h299q94 0 168 -30t125 -81t77 -118.5t26 -141.5q0 -76 -25 -143.5t-74 -117.5t-123.5 -80t-173.5 -30h-299v-219h-270zM399 455h267q74 0 112.5 37.5t38.5 97.5q0 59 -39 97t-112 38h-267v-270z" />
<glyph unicode="&#xff;" horiz-adv-x="1157" d="M-10 1126h305l287 -434l280 434h305l-452 -663v-463h-269v463zM227 1380q0 59 40 99.5t100 40.5q59 0 99 -40.5t40 -99.5t-40 -99t-99 -40t-99.5 40t-40.5 99zM659 1380q0 59 41 99.5t99 40.5q59 0 99 -40.5t40 -99.5t-40 -99t-99 -40q-57 0 -98.5 40t-41.5 99z" />
<glyph unicode="&#x152;" horiz-adv-x="2220" d="M70 682q0 156 51 285t142 222t216 145t275 52q115 0 228.5 -44t184.5 -136v160h965v-256h-674v-287h660v-256h-660v-311h674v-256h-965v160q-72 -92 -185.5 -138.5t-227.5 -46.5q-150 0 -275 52.5t-216 145.5t-142 223t-51 286zM369 682q0 -96 29.5 -178t85 -141.5 t134 -94.5t177.5 -35q125 0 223 61.5t149 176.5v424q-51 117 -149 175t-223 58q-98 0 -177 -33.5t-134.5 -93t-85 -141.5t-29.5 -178z" />
<glyph unicode="&#x153;" horiz-adv-x="1902" d="M66 563q0 127 40.5 234.5t113.5 186.5t175.5 123t225.5 44q104 0 193 -39t153 -123v137h850v-235h-578v-201h565v-235h-565v-219h578v-236h-850v139q-63 -86 -151.5 -125t-194.5 -39q-123 0 -225.5 44t-175.5 122t-113.5 186.5t-40.5 235.5zM340 563q0 -74 23.5 -137.5 t66.5 -111.5t104.5 -74.5t139.5 -26.5q98 0 175 48t118 147v313q-41 100 -120 146t-173 46q-78 0 -139.5 -26.5t-104.5 -73.5t-66.5 -111.5t-23.5 -138.5z" />
<glyph unicode="&#x178;" horiz-adv-x="1320" d="M-8 1366h332l338 -547l337 547h330l-522 -807v-559h-291v559zM309 1606q0 59 40 99t100 40q59 0 99 -40t40 -99t-40 -99.5t-99 -40.5t-99.5 40t-40.5 100zM741 1606q0 59 41 99t99 40q59 0 99 -40t40 -99t-40 -99.5t-99 -40.5q-57 0 -98.5 40t-41.5 100z" />
<glyph unicode="&#x2c6;" horiz-adv-x="614" d="M0 1139l188 295h234l192 -295h-159l-150 182l-145 -182h-160z" />
<glyph unicode="&#x2dc;" horiz-adv-x="669" d="M0 1147q0 131 56.5 202.5t164.5 71.5q51 0 84 -21.5t57.5 -47t46 -47t50.5 -21.5q31 0 52 29.5t21 95.5h138q0 -131 -55 -202.5t-164 -71.5q-53 0 -86 21.5t-57.5 48t-46 48t-50.5 21.5q-31 0 -52.5 -31t-21.5 -96h-137z" />
<glyph unicode="&#x2000;" horiz-adv-x="924" />
<glyph unicode="&#x2001;" horiz-adv-x="1849" />
<glyph unicode="&#x2002;" horiz-adv-x="924" />
<glyph unicode="&#x2003;" horiz-adv-x="1849" />
<glyph unicode="&#x2004;" horiz-adv-x="616" />
<glyph unicode="&#x2005;" horiz-adv-x="462" />
<glyph unicode="&#x2006;" horiz-adv-x="308" />
<glyph unicode="&#x2007;" horiz-adv-x="308" />
<glyph unicode="&#x2008;" horiz-adv-x="231" />
<glyph unicode="&#x2009;" horiz-adv-x="369" />
<glyph unicode="&#x200a;" horiz-adv-x="102" />
<glyph unicode="&#x2010;" horiz-adv-x="614" d="M61 385v221h492v-221h-492z" />
<glyph unicode="&#x2011;" horiz-adv-x="614" d="M61 385v221h492v-221h-492z" />
<glyph unicode="&#x2012;" horiz-adv-x="614" d="M61 385v221h492v-221h-492z" />
<glyph unicode="&#x2013;" horiz-adv-x="1214" d="M61 385v221h1092v-221h-1092z" />
<glyph unicode="&#x2014;" horiz-adv-x="1705" d="M61 385v221h1584v-221h-1584z" />
<glyph unicode="&#x2018;" horiz-adv-x="522" d="M80 1008q0 117 57.5 215t153.5 166l112 -93q-49 -27 -97 -83t-62 -111q4 4 16 5t25 1q59 0 99 -41t40 -106q0 -66 -48 -114t-114 -48q-72 0 -127 54.5t-55 154.5z" />
<glyph unicode="&#x2019;" horiz-adv-x="522" d="M96 1225q0 66 48.5 113.5t113.5 47.5q72 0 127 -54t55 -154q0 -117 -57 -215.5t-154 -165.5l-112 92q25 12 50.5 34.5t47 48t37.5 54.5t22 57q-10 -6 -38 -6q-59 0 -99.5 41t-40.5 107z" />
<glyph unicode="&#x201a;" horiz-adv-x="522" d="M96 145q0 68 48.5 116t113.5 48q72 0 127 -54.5t55 -154.5q0 -117 -57 -215t-154 -166l-112 93q25 12 50.5 33.5t47 48t37.5 55t22 55.5q-4 -2 -15 -4t-23 -2q-59 0 -99.5 41t-40.5 106z" />
<glyph unicode="&#x201c;" horiz-adv-x="940" d="M82 1008q0 117 57.5 215t153.5 166l113 -93q-49 -27 -97.5 -83t-62.5 -111q12 6 41 6q59 0 99 -41t40 -106q0 -66 -48 -114t-114 -48q-72 0 -127 54.5t-55 154.5zM500 1008q0 117 57 215t154 166l112 -93q-25 -12 -50 -34.5t-48 -48t-39 -55.5t-22 -56q4 4 16 5t25 1 q59 0 98 -41t39 -106q0 -66 -47 -114t-113 -48q-72 0 -127 54.5t-55 154.5z" />
<glyph unicode="&#x201d;" horiz-adv-x="940" d="M96 1225q0 66 48.5 113.5t113.5 47.5q72 0 127 -54t55 -154q0 -117 -57 -215.5t-154 -165.5l-112 92q25 12 50.5 34.5t47 48t37.5 54.5t22 57q-10 -6 -38 -6q-59 0 -99.5 41t-40.5 107zM514 1225q0 66 47 113.5t113 47.5q72 0 127 -54t55 -154q0 -117 -57.5 -215.5 t-153.5 -165.5l-113 92q25 12 50.5 34.5t48 48t39 54.5t22.5 57q-4 -4 -16 -5t-25 -1q-59 0 -98 41t-39 107z" />
<glyph unicode="&#x201e;" horiz-adv-x="940" d="M96 145q0 68 48.5 116t113.5 48q72 0 127 -54.5t55 -154.5q0 -117 -57 -215t-154 -166l-112 93q25 12 50.5 33.5t47 48t37.5 55t22 55.5q-4 -2 -15 -4t-23 -2q-59 0 -99.5 41t-40.5 106zM514 145q0 68 47 116t113 48q72 0 127 -54.5t55 -154.5q0 -117 -57.5 -215 t-153.5 -166l-113 93q25 12 50.5 33.5t48 48t39 55t22.5 55.5q-4 -2 -16 -4t-25 -2q-59 0 -98 41t-39 106z" />
<glyph unicode="&#x2022;" horiz-adv-x="733" d="M125 496q0 51 19.5 95t52 76.5t76.5 52t96 19.5q51 0 95 -19.5t76.5 -52t52 -76.5t19.5 -95q0 -49 -19.5 -93.5t-52 -77t-76.5 -52t-95 -19.5t-95.5 19.5t-77 52t-52 76.5t-19.5 94z" />
<glyph unicode="&#x2026;" horiz-adv-x="1572" d="M98 143q0 68 48.5 117t115.5 49q68 0 117 -49t49 -117q0 -33 -13.5 -62.5t-36 -52t-53 -35.5t-63.5 -13q-35 0 -64.5 13t-51 35.5t-35 52.5t-13.5 62zM623 143q0 68 48 117t115 49q68 0 117 -49t49 -117q0 -33 -13 -62.5t-35.5 -52t-53.5 -35.5t-64 -13q-35 0 -64.5 13 t-51 35.5t-34.5 52.5t-13 62zM1147 143q0 68 48 117t116 49t117 -49t49 -117q0 -33 -13.5 -62.5t-36 -52t-53.5 -35.5t-63 -13q-35 0 -64.5 13t-51 35.5t-35 52.5t-13.5 62z" />
<glyph unicode="&#x202f;" horiz-adv-x="369" />
<glyph unicode="&#x2039;" horiz-adv-x="692" d="M61 498l328 362h242l-328 -362l328 -369h-242z" />
<glyph unicode="&#x203a;" horiz-adv-x="692" d="M61 129l328 369l-328 362h242l328 -362l-328 -369h-242z" />
<glyph unicode="&#x205f;" horiz-adv-x="462" />
<glyph unicode="&#x20ac;" horiz-adv-x="1251" d="M43 379v139h76q-2 10 -2 21.5v23.5v43h-74v139h100q27 92 82.5 167t132 128.5t171 82t202.5 28.5q90 0 166 -22.5t136.5 -62.5t106.5 -92t77 -110l-226 -108q-35 70 -104.5 113.5t-155.5 43.5q-98 0 -175 -45t-120 -123h381v-139h-424q-2 -10 -2 -21.5v-21.5v-23.5 t2 -21.5h424v-139h-379q43 -76 119 -121t174 -45q86 0 155.5 44t104.5 114l228 -107q-33 -59 -79 -111.5t-106.5 -92.5t-136.5 -62.5t-166 -22.5q-109 0 -203 29t-169.5 81t-131 127t-84.5 167h-100z" />
<glyph unicode="&#x2122;" horiz-adv-x="929" d="M35 1313v53h311v-53h-127v-398h-57v398h-127zM420 915v451h88l131 -328l131 328h88v-451h-57v373l-154 -373h-16l-154 373v-373h-57z" />
<glyph unicode="&#x25fc;" horiz-adv-x="1126" d="M0 0v1126h1126v-1126h-1126z" />
</font>
</defs>
</svg>
